<svg preserveAspectRatio="none" width="100%" height="100%" overflow="visible" style="display: block;" viewBox="0 0 122 19" fill="none" xmlns="http://www.w3.org/2000/svg">
<g id="Group">
<path id="Vector" d="M42.5385 11.2249C46.5795 11.2249 48.6 8.41892 48.6 5.6127C48.6 2.8067 46.5794 0.112444 42.314 0.112444C39.1711 4.28028e-05 27.6093 4.28028e-05 27.6093 4.28028e-05V18.9705H31.2008V3.03095C34.0071 3.03095 41.0788 3.03095 42.5382 3.03095C44.5586 3.03095 45.5689 3.70416 45.5689 5.6127C45.5689 7.18403 44.5588 8.08204 42.6504 8.08204H33.2219L44.4468 18.8577H48.8247L40.7424 11.0003C41.5284 11.2249 42.4263 11.2249 42.5385 11.2249Z" fill="var(--fill-0, black)" fill-opacity="0.64"/>
<path id="Vector_2" d="M55.7855 0.000346229H52.3057V18.9704H55.7855V0.000346229Z" fill="var(--fill-0, black)" fill-opacity="0.64"/>
<path id="Vector_3" d="M99.9008 2.91886V0.000346229H92.4921H89.0123H82.8385L80.818 2.91886H89.0123V18.9704H92.4921V2.91886H99.9008Z" fill="var(--fill-0, black)" fill-opacity="0.64"/>
<path id="Vector_4" d="M73.9723 7.85765C72.1764 7.85765 67.6866 7.85765 65.1044 7.85765C63.3089 7.85765 62.2983 7.07204 62.2983 5.50038C62.2983 3.70458 63.5332 2.91886 65.1044 2.91886C67.5741 2.91886 77.2272 2.91886 77.2272 2.91886L78.7988 0.000346229C78.7988 0.000346229 67.0127 0.000346229 64.9922 0.000346229C61.8489 0.000346229 59.2675 2.35729 59.2675 5.613C59.2675 8.53118 61.7371 10.8883 65.1043 10.8883C67.013 10.8883 72.7373 10.8883 73.9722 10.8883C75.993 10.8883 77.1154 11.7867 77.1154 13.4703C77.1154 14.9293 75.8805 15.9399 73.9722 15.9399H61.7372L59.9414 18.9704C59.9414 18.9704 70.7172 18.9704 74.4212 18.9704C78.1256 18.9704 80.1457 16.277 80.1457 13.2462C80.1461 10.4392 77.7888 7.85765 73.9723 7.85765Z" fill="var(--fill-0, black)" fill-opacity="0.64"/>
<path id="Vector_5" d="M11.225 1.23501C10.4394 2.46936 1.74655e-06 18.9704 1.74655e-06 18.9704H3.70412L7.1841 13.3579H14.5926L16.5009 10.3271H9.09219L13.1331 3.81654L22.5623 18.8577H26.2665C26.2665 18.8577 15.9393 2.58176 15.0411 1.12261C14.031 -0.336315 12.2353 -0.224241 11.225 1.23501Z" fill="var(--fill-0, black)" fill-opacity="0.64"/>
<path id="Vector_6" d="M117.746 18.9705H121.45C121.45 18.9705 111.123 2.69433 110.225 1.23507C109.215 -0.448769 107.419 -0.336258 106.409 1.12278C105.623 2.35723 95.1834 18.8579 95.1834 18.8579H98.8875L102.367 13.2457H109.888L111.796 10.2149H104.388L108.429 3.70419L117.746 18.9705Z" fill="var(--fill-0, black)" fill-opacity="0.64"/>
</g>
</svg>
