<svg preserveAspectRatio="none" width="100%" height="100%" overflow="visible" style="display: block;" viewBox="0 0 162 42" fill="none" xmlns="http://www.w3.org/2000/svg">
<g id="Barracuda">
<path id="Vector" d="M50.4019 6.64159C51.9909 5.86023 53.5592 5.02938 55.2264 4.42512C53.6399 6.38895 51.8268 8.16004 50.2899 10.1655C47.7448 13.2415 45.3742 16.4737 43.3892 19.943C41.7402 22.8809 40.3152 26.0533 39.974 29.4392C39.7317 31.8874 40.284 34.5441 42.0684 36.336C42.9385 37.3414 44.155 37.9196 45.3403 38.4639C37.2465 38.4639 29.1527 38.4561 21.0563 38.4665C22.3093 32.5438 25.5083 27.2019 29.382 22.6153C35.2042 15.9216 42.5477 10.6917 50.4019 6.64159ZM10.3549 21.2687C10.8707 19.2528 11.3266 17.2004 12.181 15.2939C12.2175 17.401 12.0403 19.5159 12.2514 21.6177C12.6161 27.5353 14.2338 33.4502 17.4822 38.4509C14.4604 38.4795 11.4386 38.4483 8.41937 38.4639C8.44021 32.687 9.03676 26.8997 10.3549 21.2687Z" fill="var(--fill-0, black)" fill-opacity="0.64"/>
<path id="Vector_2" d="M55.3841 21.5187C57.7625 21.4744 60.1408 21.5291 62.5166 21.4978C64.0353 21.4822 65.6817 21.701 66.8748 22.7246C68.7035 24.3602 68.3649 27.7618 66.2236 28.9781C65.9344 29.1552 65.6348 29.3089 65.3405 29.4677C66.3564 29.8115 67.4453 30.2465 68.0288 31.2102C69.0995 32.9656 68.8885 35.4634 67.4505 36.9558C66.2809 38.0471 64.6163 38.417 63.0585 38.4586C60.5186 38.4821 57.9787 38.4326 55.4388 38.4795C55.3714 37.8968 55.3427 37.3104 55.3528 36.724C55.3919 31.6556 55.3215 26.5845 55.3841 21.5187ZM57.007 22.8939C56.9757 24.902 56.9679 26.9075 56.9992 28.9156C58.8435 28.9182 60.6879 28.9312 62.5322 28.9104C63.6889 28.8817 65.0044 28.7072 65.7807 27.7513C66.5961 26.8345 66.5362 25.4307 66.0256 24.3837C65.4316 23.3392 64.189 22.9381 63.0532 22.9043C61.0396 22.8392 59.0233 22.873 57.007 22.8939ZM57.0539 30.3116C56.9054 32.5463 57.0122 34.7888 56.9992 37.0287C59.19 37.06 61.386 37.1121 63.5743 37.0079C64.7726 36.9688 66.0047 36.4193 66.6404 35.3722C67.2656 34.1585 67.2499 32.4812 66.234 31.4758C65.3535 30.5616 64.0093 30.335 62.7927 30.3168C60.8807 30.309 58.9686 30.3455 57.0539 30.3116ZM139.302 21.5317C139.784 21.5265 140.269 21.5265 140.756 21.5291C140.784 27.0325 140.813 32.5385 140.74 38.0393C140.303 38.0263 139.87 38.0158 139.435 38.0054C139.422 37.3152 139.409 36.6276 139.386 35.9374C137.75 38.8233 133.217 39.1905 131.146 36.6094C129.747 34.9243 129.575 32.5697 129.841 30.4809C130.114 28.9312 130.891 27.3554 132.274 26.5142C133.871 25.4932 136.049 25.4854 137.682 26.4334C138.375 26.8345 138.812 27.5273 139.3 28.1394C139.287 25.9386 139.268 23.7351 139.302 21.5317ZM133.98 27.1601C132.678 27.582 131.787 28.8088 131.469 30.1006C130.961 32.0254 131.148 34.2601 132.404 35.8645C133.61 37.3517 135.952 37.4845 137.463 36.3984C138.586 35.6587 139.076 34.2992 139.237 33.0229C139.396 31.5175 139.245 29.8793 138.354 28.6082C137.432 27.2226 135.543 26.66 133.98 27.1601ZM108.328 27.3112C110.188 25.363 113.528 25.2301 115.628 26.8554C116.537 27.556 116.886 28.7072 117.144 29.7751C116.633 29.8402 116.12 29.8558 115.607 29.8272C115.31 28.8505 114.859 27.78 113.872 27.3268C112.424 26.6652 110.527 26.9596 109.464 28.1837C107.659 30.1267 107.628 33.3381 109.081 35.492C110.178 37.1199 112.734 37.7111 114.284 36.3906C115.143 35.7421 115.518 34.6977 115.781 33.6949C116.253 33.6949 116.724 33.6975 117.199 33.6949C117.024 34.8539 116.649 36.0234 115.818 36.8855C114.346 38.5289 111.77 38.7061 109.832 37.8596C108.086 37.1017 106.979 35.3332 106.682 33.4996C106.356 31.3456 106.706 28.8947 108.328 27.3112ZM72.4417 26.074C74.0204 26.0245 75.6303 25.9386 77.1881 26.2641C78.6052 26.6105 79.655 27.9649 79.6655 29.4182C79.7019 32.3171 79.6524 35.2186 79.6863 38.12C79.2643 38.1331 78.8449 38.1539 78.4255 38.1357C78.1129 37.6304 78.2926 36.9688 78.1988 36.3984C77.3965 37.2215 76.542 38.1044 75.3646 38.3284C73.9084 38.5915 72.2229 38.5784 71.0116 37.6121C69.9123 36.698 69.6674 35.0988 70.0399 33.7783C70.3734 32.8094 71.2877 32.1686 72.2203 31.8431C73.9214 31.2154 75.7892 31.4003 77.5111 30.895C78.7329 30.1944 78.2379 28.1603 77.0552 27.6498C75.599 27.0559 73.9839 27.3476 72.4548 27.2799C72.447 26.8762 72.4443 26.4751 72.4417 26.074ZM72.1578 33.3485C70.8996 34.1872 71.2877 36.2317 72.5746 36.849C74.445 37.7997 77.1047 36.9245 77.9227 34.9477C78.3395 33.9632 78.1988 32.8693 78.204 31.8275C76.2529 32.5854 73.9631 32.1947 72.1578 33.3485ZM85.532 26.6574C86.3083 26.1782 87.2304 26.0818 88.1187 26.0063C88.137 26.3866 88.1552 26.7668 88.1761 27.1471C87.1445 27.4388 86.066 27.7279 85.2272 28.4337C84.2503 29.2411 83.7267 30.5148 83.7215 31.7728C83.6928 33.8903 83.7553 36.0104 83.6954 38.1278C83.2161 38.1278 82.742 38.1226 82.2653 38.1174C82.2314 34.1507 82.2236 30.1814 82.2653 26.2147C82.7107 26.2147 83.1562 26.2199 83.6042 26.2277C83.6225 27.0481 83.6381 27.8685 83.6564 28.6916C84.193 27.9415 84.6984 27.1132 85.532 26.6574ZM93.5111 26.5532C94.2458 26.1287 95.1106 26.0975 95.9338 26.0271C95.9494 26.5506 96.1396 27.3711 95.3503 27.3581C93.4017 27.6524 91.6902 29.2568 91.5417 31.2675C91.4688 33.5491 91.56 35.8384 91.5053 38.1226C91.0207 38.1278 90.5388 38.1278 90.0569 38.1278C90.0178 34.1611 90.0204 30.1944 90.0543 26.2303C90.5023 26.2303 90.9504 26.2355 91.4011 26.2433C91.3907 27.0585 91.3907 27.8764 91.4297 28.6916C92.0159 27.8894 92.5916 27.009 93.5111 26.5532ZM97.7287 26.1183C99.1745 26.1235 100.628 25.9959 102.069 26.1652C103.645 26.3944 104.958 27.8008 104.939 29.4209C104.96 32.3171 104.926 35.216 104.968 38.1148C104.504 38.1226 104.043 38.1278 103.585 38.1304C103.572 37.4793 103.572 36.8282 103.556 36.177C102.884 36.9584 102.22 37.8413 101.188 38.1565C99.7085 38.667 97.9683 38.5967 96.5903 37.8179C95.1419 36.9428 94.8944 34.9216 95.4675 33.4501C95.9156 32.489 96.968 32.0046 97.9319 31.7102C99.4584 31.2727 101.071 31.3352 102.608 30.9758C103.298 30.8429 103.548 30.0538 103.486 29.4365C103.478 28.3947 102.566 27.5195 101.558 27.3997C100.292 27.1966 99.0051 27.3034 97.7287 27.2721V26.1183ZM97.7625 33.148C96.546 33.6663 96.2803 35.5051 97.2493 36.375C98.643 37.8023 101.128 37.3022 102.467 36.0442C103.645 34.9763 103.54 33.2834 103.481 31.8353C101.626 32.4942 99.5444 32.2598 97.7625 33.148ZM118.478 26.0844C118.944 26.0844 119.413 26.0844 119.882 26.0818C120.015 28.84 119.866 31.6061 119.952 34.3643C120.02 35.4295 120.58 36.6459 121.7 36.9298C122.914 37.2736 124.409 37.2006 125.334 36.2396C126.366 35.2186 126.67 33.6975 126.689 32.2963C126.694 30.2335 126.686 28.1707 126.678 26.1053C127.163 26.0975 127.647 26.0896 128.137 26.0844C128.215 30.0616 128.21 34.0439 128.158 38.0211H126.827C126.811 37.3908 126.806 36.7579 126.795 36.1276C126.043 36.9584 125.248 37.8544 124.112 38.1278C122.489 38.5888 120.405 38.417 119.298 36.9975C118.415 35.901 118.446 34.4112 118.433 33.0776C118.478 30.7466 118.381 28.4129 118.478 26.0844ZM144.754 25.9464C146.724 26.0115 148.938 25.5687 150.681 26.7173C151.986 27.5977 152.022 29.3219 151.991 30.7361C151.97 33.1766 152.02 35.6171 151.934 38.0549C151.488 38.0393 151.048 38.0263 150.611 38.0106C150.582 37.3986 150.556 36.7839 150.522 36.1718C149.821 36.9454 149.105 37.7997 148.055 38.094C146.664 38.4847 145.08 38.4847 143.783 37.7919C141.735 36.7292 141.566 33.2626 143.629 32.1296C145.46 31.0904 147.646 31.3248 149.631 30.8299C150.363 30.6971 150.566 29.835 150.486 29.1995C150.42 28.2019 149.545 27.4127 148.586 27.2695C147.323 27.0689 146.039 27.2096 144.768 27.1497C144.762 26.7486 144.757 26.3475 144.754 25.9464ZM144.319 33.3329C143.16 34.2783 143.702 36.2656 145.002 36.8099C146.768 37.5575 149.087 36.8412 150.053 35.1613C150.657 34.0726 150.47 32.7859 150.491 31.593C148.545 32.5593 146.112 31.9994 144.319 33.3329Z" fill="var(--fill-0, black)" fill-opacity="0.64"/>
</g>
</svg>
