<svg preserveAspectRatio="none" width="100%" height="100%" overflow="visible" style="display: block;" viewBox="0 0 165 35" fill="none" xmlns="http://www.w3.org/2000/svg">
<g id="svgg">
<path id="path0" fill-rule="evenodd" clip-rule="evenodd" d="M12.8936 6.14688C12.8743 6.17789 12.6509 6.22279 12.3962 6.24605C11.5905 6.32115 10.877 6.44807 10.9156 6.50929C10.9357 6.54194 10.8729 6.54888 10.7758 6.5248C10.6786 6.50072 10.599 6.50888 10.599 6.54317C10.599 6.57745 10.353 6.66152 10.0525 6.72927C9.7519 6.79743 9.50588 6.87497 9.50588 6.90191C9.50588 6.92925 9.30578 7.00516 9.0614 7.07087C8.81743 7.13699 8.61733 7.21535 8.61733 7.24555C8.61733 7.27616 8.46315 7.35166 8.27454 7.41411C8.08633 7.47614 7.89402 7.56348 7.84769 7.60756C7.80095 7.65204 7.62463 7.74795 7.45569 7.82101C7.28635 7.89406 7.12357 7.99324 7.09322 8.04099C7.06329 8.08874 7.00588 8.12792 6.9657 8.12792C6.92593 8.12792 6.67867 8.27321 6.41707 8.45115C6.15506 8.62869 5.88525 8.80581 5.8176 8.84458C5.74994 8.88336 5.6216 8.98131 5.53262 9.06252C5.44405 9.14333 5.1599 9.38739 4.90158 9.60411C4.64284 9.82123 4.28939 10.1514 4.11554 10.3383C3.94168 10.5252 3.65548 10.8256 3.47957 11.0064C3.30366 11.1868 3.1581 11.348 3.15605 11.3643C3.14949 11.417 2.91536 11.7647 2.8395 11.8349C2.79891 11.8725 2.64473 12.0867 2.49671 12.3112C2.34869 12.5357 2.20436 12.7295 2.17606 12.7422C2.14736 12.7548 2.14162 12.7928 2.16294 12.8271C2.18426 12.8614 2.1736 12.8895 2.13957 12.8895C2.10554 12.8895 2.01943 13.0193 1.9489 13.1785C1.87797 13.3376 1.78079 13.5078 1.73322 13.5576C1.68566 13.607 1.64671 13.6731 1.64671 13.7049C1.64671 13.7364 1.58602 13.9029 1.51221 14.0751C1.438 14.2469 1.37895 14.4069 1.38141 14.4302C1.38346 14.4534 1.35517 14.4914 1.31868 14.5143C1.23667 14.5657 0.877477 15.6835 0.927091 15.7329C0.947183 15.7529 0.963175 15.7382 0.963175 15.7003C0.963175 15.6627 1.15548 15.5746 1.39043 15.5044C1.62538 15.4342 1.85828 15.3374 1.9079 15.2897C1.95751 15.2415 2.05838 15.2019 2.13219 15.2019C2.20559 15.2019 2.2839 15.1562 2.30522 15.0999C2.32696 15.044 2.40281 14.9979 2.47416 14.9979C2.5451 14.9979 2.60332 14.9709 2.60332 14.9379C2.60332 14.9048 2.7616 14.8261 2.95513 14.7632C3.14826 14.7004 3.35615 14.5943 3.41642 14.5277C3.4767 14.4612 3.65671 14.3665 3.81662 14.3175C3.97612 14.2682 4.10693 14.2029 4.10693 14.1722C4.10693 14.1004 5.03033 13.6703 5.31981 13.607C5.442 13.5805 5.54205 13.536 5.54205 13.5082C5.54205 13.4805 5.78028 13.3838 6.07182 13.294C6.36295 13.2038 6.61061 13.1091 6.6225 13.083C6.63398 13.0568 6.8185 12.9813 7.03254 12.9148C7.24617 12.8483 7.46185 12.754 7.51187 12.7054C7.56148 12.6569 7.62299 12.6173 7.64841 12.6169C7.85917 12.6153 8.51318 12.4712 8.54516 12.4194C8.5673 12.3834 8.70795 12.3385 8.85761 12.3198C9.00727 12.301 9.22541 12.2516 9.34227 12.21C9.45913 12.1688 9.58214 12.1414 9.61536 12.1496C9.73181 12.1777 10.3604 12.0557 10.4453 11.9884C10.5035 11.9423 10.531 11.9447 10.531 11.9969C10.531 12.0386 10.5769 12.0733 10.6335 12.0733C10.6897 12.0733 10.736 12.0427 10.736 12.0051C10.736 11.9676 10.7819 11.9369 10.8385 11.9369C10.8947 11.9369 10.9414 11.9753 10.9418 12.0222C10.9426 12.0798 10.9664 12.0741 11.0156 12.0051C11.0702 11.9284 11.0964 11.9243 11.1227 11.988C11.1637 12.0888 11.5561 12.1039 11.5561 12.0051C11.5561 11.9112 11.88 11.919 11.912 12.0137C11.9276 12.0598 12.1793 12.1006 12.5496 12.1165C13.2532 12.1471 13.2991 12.1528 13.8281 12.2688C14.0442 12.3161 14.2213 12.3834 14.2213 12.4181C14.2213 12.4528 14.2779 12.4814 14.3472 12.4814C14.5009 12.4814 14.8942 12.6708 15.0606 12.825C15.1287 12.8879 15.2509 12.9246 15.3374 12.9083C15.4535 12.8862 15.5129 12.923 15.5732 13.054C15.6171 13.1507 15.6942 13.2295 15.7438 13.2295C15.9016 13.2295 16.2018 13.3964 16.2026 13.4846C16.2026 13.5315 16.2317 13.5694 16.2666 13.5694C16.3018 13.5694 16.3523 13.6384 16.3789 13.7225C16.406 13.807 16.4847 13.9155 16.5544 13.9645C16.6241 14.0135 16.6819 14.0898 16.6827 14.1347C16.6832 14.1792 16.7602 14.2877 16.8533 14.3759C16.9468 14.4641 17.0231 14.5787 17.0231 14.631C17.0231 14.6832 17.0538 14.7261 17.0916 14.7261C17.1289 14.7261 17.1596 14.7873 17.1596 14.862C17.1596 14.9367 17.192 14.9979 17.2314 14.9979C17.2712 14.9979 17.5401 15.1742 17.8296 15.3893C19.0741 16.3137 19.5587 16.621 20.4744 17.0634C21.5146 17.5666 21.4215 17.5572 21.7192 17.1895C21.8615 17.0136 22.0317 16.8104 22.0973 16.7373C22.1629 16.6647 22.217 16.5822 22.217 16.5545C22.217 16.5267 22.2572 16.4639 22.3068 16.4145C22.5692 16.1517 22.5602 16.0729 22.2223 15.6807C22.044 15.4734 21.839 15.1975 21.7668 15.0673C21.695 14.9371 21.5974 14.7893 21.5507 14.7391C21.5035 14.6893 21.465 14.6151 21.465 14.5747C21.465 14.5343 21.3896 14.3424 21.2977 14.1486C20.8922 13.2952 20.8938 10.9546 21.3002 10.5032C21.3535 10.444 21.3969 10.3477 21.3969 10.2889C21.3969 10.2302 21.5044 10.0228 21.636 9.82857C21.7676 9.6339 21.875 9.44861 21.875 9.41678C21.875 9.26046 20.1365 8.2977 19.1758 7.92181C18.1634 7.52593 18.1031 7.49451 18.222 7.42839C18.2815 7.39533 18.3741 7.38513 18.4283 7.40594C18.6251 7.48104 18.8301 7.35166 18.7075 7.22923C18.6091 7.13128 18.6206 7.11781 18.8383 7.0774C19.1471 7.01945 19.0893 6.93782 18.6632 6.82885C18.475 6.7811 18.3217 6.72029 18.3217 6.69417C18.3217 6.66805 18.1839 6.62642 18.0158 6.60112C17.8473 6.57623 17.6927 6.52807 17.6718 6.4946C17.6508 6.46073 17.5881 6.45093 17.5328 6.47215C17.477 6.49338 17.3917 6.47787 17.3437 6.43828C17.2953 6.39828 16.9111 6.32727 16.49 6.28074C16.0689 6.23422 15.7245 6.17626 15.7245 6.15177C15.7245 6.08607 12.9346 6.08117 12.8936 6.14688ZM23.2249 17.2716C22.8464 17.8144 22.9682 17.9115 23.9162 17.8205C24.9905 17.718 26.0599 17.4466 25.3911 17.4466C25.0979 17.4466 24.2672 17.236 24.2672 17.1618C24.2672 17.1234 24.2209 17.1099 24.1647 17.1312C24.1081 17.1528 24.0622 17.1471 24.0622 17.1181C24.0622 17.0663 23.6661 16.9018 23.5447 16.9034C23.5099 16.9038 23.3659 17.0695 23.2249 17.2716Z" fill="var(--fill-0, black)" fill-opacity="0.64"/>
<path id="path1" fill-rule="evenodd" clip-rule="evenodd" d="M18.1618 16.3923C18.0466 16.507 17.776 16.5307 17.776 16.4262C17.776 16.3891 17.6993 16.3585 17.6054 16.3585C17.5115 16.3585 17.434 16.3964 17.4332 16.4434C17.4328 16.5001 17.4102 16.4948 17.3651 16.4262C17.3053 16.3356 17.2905 16.3356 17.2319 16.4262C17.1843 16.5001 17.0272 16.5311 16.6681 16.5385C16.3942 16.5442 16.0415 16.5674 15.8841 16.5899C15.718 16.6135 15.5798 16.6021 15.5548 16.5621C15.5167 16.5005 15.112 16.5148 14.5642 16.5976C14.4703 16.6115 14.2566 16.6401 14.0897 16.6609C13.9229 16.6813 13.7621 16.7364 13.7322 16.7833C13.6887 16.8515 13.6777 16.8515 13.6768 16.7833C13.676 16.7368 13.6141 16.6984 13.5391 16.6984C13.464 16.6984 13.4021 16.7368 13.4013 16.7833C13.4005 16.8401 13.3783 16.8343 13.334 16.7666C13.2898 16.6984 13.2676 16.6927 13.2668 16.7495C13.266 16.7964 13.2041 16.8343 13.129 16.8343C13.054 16.8343 12.9921 16.7964 12.9913 16.7495C12.9904 16.6915 12.9744 16.6878 12.94 16.7384C12.8506 16.8703 12.4357 16.9788 12.336 16.8968C12.2868 16.856 12.2089 16.8462 12.1626 16.8743C12.1167 16.9029 11.9231 16.9327 11.7324 16.9409C11.5422 16.9494 11.2297 16.9768 11.0383 17.0021C10.67 17.0502 10.3465 16.9237 9.79748 16.5164C9.67529 16.4258 9.57524 16.3825 9.57524 16.4205C9.57524 16.4585 9.6388 16.5234 9.71589 16.5646C9.86555 16.6442 11.461 17.8285 11.6135 17.973C11.6632 18.0204 11.732 18.0587 11.7673 18.0587C11.8727 18.0587 11.8391 18.1652 11.6767 18.3477C11.0801 19.0178 10.7561 19.5986 10.9456 19.6586C11.019 19.6814 11.0788 19.73 11.0788 19.7659C11.0788 19.8022 11.1326 19.8516 11.1986 19.8761C11.2962 19.9124 12.2938 20.6177 12.548 20.8303C12.5857 20.8617 12.801 21.0237 13.0265 21.1907C13.252 21.3576 13.4739 21.5396 13.5198 21.5959C13.5657 21.6519 13.6039 21.6751 13.6051 21.647C13.6063 21.6188 13.6613 21.6441 13.7269 21.7029C14.2398 22.1616 14.4071 22.2265 14.5715 22.0294C15.0734 21.4274 17.0412 21.1682 17.876 21.5939C18.0249 21.6698 18.1815 21.7318 18.2237 21.7318C18.298 21.7318 18.938 20.9613 18.938 20.8719C18.938 20.8478 19.002 20.7638 19.0807 20.685C19.159 20.6062 19.4202 20.2814 19.6605 19.9634C19.9012 19.6455 20.1448 19.3239 20.2018 19.2492C20.2592 19.1745 20.5134 18.8378 20.7664 18.5011C21.0198 18.1644 21.2797 17.8306 21.3445 17.7596C21.4995 17.5886 21.4626 17.5465 21.0386 17.4086C20.6749 17.2902 19.33 16.6184 19.143 16.4617C19.0114 16.3515 18.5809 16.3417 18.5132 16.4474C18.4788 16.5017 18.4611 16.4895 18.4607 16.4095C18.4591 16.2634 18.3004 16.2544 18.1618 16.3923ZM27.9875 17.1351C27.7735 17.2841 26.8636 17.4465 26.2436 17.4465C25.8184 17.4465 25.6659 17.4718 25.6073 17.5518C25.4367 17.7836 22.8334 17.9959 22.8334 17.7775C22.8334 17.6971 22.7186 17.8363 21.871 18.9431C21.6849 19.1864 21.4807 19.4619 21.4171 19.5553C21.3535 19.6488 21.2145 19.8324 21.1083 19.9634C21.0021 20.0944 20.8927 20.232 20.8652 20.2695C20.2866 21.0605 20.055 21.3658 19.5551 21.9959C19.1578 22.4971 19.1623 22.4783 19.369 22.7301C19.7913 23.2448 20.0369 23.952 20.0406 24.6634C20.0427 25.0866 20.1443 25.2193 20.1808 24.8462C20.1993 24.6577 20.2587 24.5961 20.6122 24.3989C21.5938 23.8512 22.8416 22.9562 24.7031 21.4649C27.4721 19.246 27.6718 19.2215 27.5968 21.1058C27.3794 26.5661 23.5173 31.4995 18.1836 33.1291C17.2774 33.4063 17.2474 33.4087 17.2093 33.2104L17.1798 33.0573L17.1704 33.2104C17.1654 33.2948 17.1343 33.3634 17.1015 33.3634C16.9834 33.3634 16.9539 32.9104 17.0289 32.2651C17.0711 31.904 17.0892 31.4297 17.0695 31.2105C17.0494 30.9918 17.0043 30.4776 16.9694 30.0674C16.9317 29.6274 16.8739 29.3115 16.8284 29.2964C16.7328 29.265 16.7251 29.0103 16.8194 29.0103C16.8571 29.0103 16.8878 28.9642 16.8878 28.9083C16.8878 28.852 16.8571 28.8063 16.8194 28.8063C16.7816 28.8063 16.7509 28.7602 16.7509 28.7043C16.7509 28.6479 16.7201 28.6022 16.6828 28.6022C16.6451 28.6022 16.6143 28.541 16.6143 28.4659C16.6143 28.3753 16.5688 28.33 16.4778 28.33C16.4024 28.33 16.3408 28.3027 16.3408 28.2692C16.3408 28.2357 16.2256 28.1929 16.0846 28.1741C14.736 27.9953 13.6666 26.9775 13.266 25.4919C13.0864 24.8254 13.1508 24.1182 13.462 23.3431C13.5395 23.1505 13.4009 22.8281 13.2385 22.8224C13.2049 22.8211 13.0458 22.713 12.8855 22.5824C12.7247 22.4514 12.5755 22.344 12.5529 22.344C12.5136 22.344 11.5848 21.6135 11.3224 21.3756C11.2494 21.3098 11.1695 21.256 11.1449 21.256C11.1203 21.256 11.0108 21.1792 10.9017 21.0854C10.7922 20.9915 10.6491 20.8976 10.5835 20.8768C10.5175 20.8556 10.4638 20.8107 10.4638 20.7768C10.4638 20.7213 10.114 20.5075 10.023 20.5075C10.0025 20.5075 9.98528 20.5401 9.98528 20.5797C9.98528 20.6642 9.58016 21.1968 9.45592 21.2764C9.40877 21.3062 9.37023 21.3694 9.37023 21.4164C9.37023 21.4637 9.28453 21.5841 9.17956 21.6841L8.98889 21.8661L8.73303 21.6559C8.59239 21.5404 8.31684 21.3298 8.12084 21.1878C7.92485 21.0458 7.68743 20.8646 7.59354 20.7854C7.49964 20.7058 7.14988 20.4422 6.81611 20.1989C6.20023 19.75 5.86482 19.4925 5.6799 19.3264C5.62372 19.2757 5.5085 19.1982 5.42362 19.1541C5.26658 19.0725 5.34326 18.8215 5.57575 18.655C5.6229 18.6215 5.62208 18.6048 5.57329 18.604C5.50399 18.6032 5.20179 18.9623 5.20179 19.0456C5.20179 19.0676 5.27847 19.1619 5.37237 19.2553C5.59625 19.4778 5.58805 19.5349 5.32521 19.592C5.07714 19.6463 4.93937 19.7577 4.9775 19.8728C4.99226 19.9157 4.916 19.9704 4.80857 19.9936C4.70114 20.0173 4.56952 20.0965 4.51662 20.1699C4.46332 20.2434 4.38049 20.3034 4.33252 20.3034C4.28413 20.3034 4.24477 20.3495 4.24477 20.4054C4.24477 20.4618 4.18654 20.5075 4.11561 20.5075C4.04426 20.5075 3.9684 20.5536 3.94667 20.6095C3.92535 20.6658 3.86794 20.7115 3.81915 20.7115C3.77077 20.7115 3.69286 20.7728 3.6457 20.8478C3.59896 20.9225 3.51449 20.9838 3.45832 20.9838C3.40255 20.9838 3.3025 21.0372 3.2369 21.1029C3.17129 21.1682 2.97119 21.3135 2.79283 21.4258C2.48038 21.6225 2.375 21.8245 2.55337 21.8861C2.60052 21.9024 2.53902 21.9379 2.41682 21.9653C2.29463 21.9926 2.19458 22.0396 2.19458 22.0702C2.19458 22.1004 2.11791 22.1445 2.02401 22.1681C1.93011 22.1914 1.85302 22.2428 1.85302 22.2824C1.85302 22.3755 1.67876 22.5481 1.58445 22.5481C1.54427 22.5481 1.51146 22.5909 1.51146 22.6428C1.51146 22.695 1.43438 22.7566 1.34048 22.7803C1.24658 22.8036 1.16949 22.853 1.16949 22.8897C1.16949 22.9264 1.13669 22.9562 1.09651 22.9562C1.00179 22.9562 0.827932 23.1293 0.827932 23.2235C0.827932 23.2635 0.785288 23.2966 0.732804 23.2966C0.680319 23.2966 0.619634 23.3423 0.598312 23.3986C0.540087 23.5488 0.381812 23.5227 0.291604 23.3476C0.224768 23.2182 0.219028 23.2419 0.254701 23.5007C0.277663 23.6688 0.318257 23.8374 0.344089 23.8745C0.370331 23.912 0.448238 24.1724 0.517535 24.4528C0.586421 24.7336 0.663918 24.9936 0.68893 25.0311C0.714352 25.0683 0.776268 25.2368 0.827112 25.405C0.973085 25.8902 2.02934 28.0043 2.18638 28.1259C2.21058 28.1447 2.29053 28.2749 2.36475 28.4149C2.43856 28.5553 2.52097 28.67 2.54722 28.67C2.57387 28.67 2.61323 28.7259 2.63496 28.794C2.6567 28.8622 2.73542 28.983 2.80923 29.0622C2.88345 29.1409 3.08682 29.3838 3.2615 29.6013C3.63299 30.0637 4.61134 31.0375 5.09477 31.426C5.28052 31.575 5.48103 31.7436 5.54089 31.8007C5.60035 31.8578 5.84842 32.0321 6.09157 32.1884C6.33513 32.3443 6.57829 32.5121 6.63241 32.5606C6.75255 32.6688 7.03589 32.8218 7.91172 33.2512C8.28158 33.4324 8.66127 33.6197 8.75517 33.6675C8.84948 33.7152 9.04917 33.7911 9.19965 33.8368C9.34972 33.8821 9.57278 33.9642 9.69538 34.0189C9.81757 34.0735 10.1559 34.169 10.447 34.2307C10.7381 34.2927 10.9915 34.3645 11.0104 34.3907C11.0887 34.4996 12.637 34.6715 13.8466 34.7053C15.4228 34.7494 17.776 34.5515 17.776 34.3743C17.776 34.3421 17.8317 34.316 17.8998 34.316C18.0675 34.316 19.0901 34.0466 19.1763 33.9801C19.2144 33.9507 19.3378 33.905 19.4506 33.8793C19.8549 33.7858 21.5811 32.9365 22.1498 32.5512C22.206 32.5129 22.3676 32.4055 22.5082 32.3125C22.8522 32.0856 23.1737 31.8554 23.3197 31.7309C23.3861 31.675 23.5526 31.537 23.6908 31.4248C23.9335 31.2273 25.157 30.0327 25.3276 29.8266C25.3744 29.7703 25.5642 29.5409 25.75 29.3164C25.9357 29.092 26.1473 28.801 26.2203 28.67C26.2933 28.539 26.3872 28.41 26.429 28.3826C26.4712 28.3553 26.5442 28.2406 26.5914 28.1276C26.6385 28.0145 26.6992 27.9219 26.7267 27.9219C26.7537 27.9219 26.8337 27.7917 26.9042 27.6329C26.9747 27.4738 27.0522 27.3285 27.0764 27.3097C27.156 27.2481 27.4118 26.7053 27.4118 26.5983C27.4118 26.5404 27.4377 26.4934 27.4692 26.4934C27.5008 26.4934 27.5841 26.3249 27.6542 26.1192C27.7243 25.9135 27.8022 25.7453 27.8272 25.7453C27.8518 25.7453 27.9244 25.5539 27.9883 25.3201C28.0523 25.0862 28.1458 24.803 28.1966 24.6908C28.2471 24.5785 28.3397 24.2112 28.4029 23.8745C28.466 23.5378 28.5435 23.2011 28.5759 23.1264C28.8482 22.4914 28.8404 17.9795 28.5661 17.6881C28.5329 17.6526 28.5054 17.5555 28.5054 17.4718C28.5054 17.3886 28.4607 17.2759 28.4062 17.2217C28.3516 17.1674 28.3258 17.1037 28.3492 17.0809C28.4357 16.9947 28.1208 17.0421 27.9875 17.1351ZM120.792 17.5245C120.772 17.5563 120.642 17.5833 120.503 17.5837C120.166 17.5849 119.435 17.76 119.055 17.9298C118.296 18.2693 117.583 18.686 117.381 18.9084C117.343 18.9497 117.244 19.0301 117.161 19.0872C116.62 19.4578 115.695 20.885 115.469 21.698C115.407 21.9224 115.338 22.1518 115.315 22.2081C115.227 22.4363 115.214 22.5522 115.18 23.4492C115.143 24.4189 115.277 25.3029 115.559 25.9494C115.617 26.08 115.658 26.2102 115.651 26.2384C115.644 26.2665 115.664 26.2894 115.696 26.2894C115.727 26.2894 115.795 26.4151 115.846 26.5685C115.897 26.7224 115.974 26.862 116.019 26.8787C116.063 26.8959 116.152 27.0269 116.218 27.1701C116.351 27.4656 117.478 28.5851 117.831 28.7736C118.753 29.265 119.245 29.4858 119.506 29.525C119.671 29.5495 119.807 29.5932 119.807 29.6213C119.807 29.6935 120.913 29.8266 121.515 29.8266C122.124 29.8266 123.224 29.6931 123.224 29.6197C123.224 29.5903 123.355 29.545 123.514 29.5185C123.674 29.4923 124.028 29.367 124.302 29.2405C124.575 29.114 124.824 29.0103 124.855 29.0103C124.886 29.0103 124.967 28.9491 125.035 28.874C125.103 28.7993 125.2 28.7381 125.25 28.7381C125.3 28.7381 125.38 28.6769 125.427 28.6022C125.474 28.5271 125.539 28.4659 125.573 28.4659C125.683 28.4659 126.689 27.3978 126.836 27.1236C126.879 27.0448 126.952 26.9395 126.999 26.8897C127.072 26.8126 127.409 26.1857 127.431 26.0853C127.435 26.0665 127.472 25.9698 127.514 25.8698C127.556 25.7702 127.629 25.4948 127.677 25.2576C127.725 25.0209 127.795 24.8058 127.832 24.7797C127.927 24.7144 127.922 22.5909 127.827 22.4706C127.787 22.4199 127.717 22.1869 127.672 21.953C127.628 21.7196 127.5 21.3462 127.389 21.1237C127.278 20.9013 127.188 20.6932 127.188 20.6613C127.188 20.6295 127.142 20.5434 127.086 20.4703C127.031 20.3973 126.845 20.1479 126.674 19.9165C126.088 19.1256 124.918 18.2334 124.146 17.9893C123.996 17.942 123.857 17.8791 123.838 17.8502C123.819 17.8212 123.542 17.7485 123.223 17.689C122.904 17.629 122.484 17.5486 122.29 17.5098C121.881 17.4282 120.845 17.4384 120.792 17.5245ZM104.089 23.6027V29.5544H105.456H106.822V27.8284V26.1029L108.343 26.0723C109.206 26.0551 109.923 26.011 110 25.9706C110.075 25.9315 110.351 25.8486 110.612 25.7862C110.874 25.7241 111.104 25.6486 111.125 25.618C111.145 25.587 111.239 25.5433 111.333 25.5201C112.109 25.3282 113.183 24.1214 113.432 23.1607C113.658 22.2857 113.706 21.0478 113.522 20.8136C113.493 20.7764 113.447 20.6234 113.42 20.4736C113.306 19.8332 112.45 18.6717 111.886 18.3901C111.788 18.3415 111.632 18.2522 111.538 18.1914C111.444 18.1305 111.213 18.0408 111.025 17.9914C110.837 17.942 110.653 17.8791 110.615 17.8514C110.419 17.7065 109.366 17.6506 106.827 17.6506H104.089V23.6027ZM130.294 17.8036C130.277 17.8506 130.27 20.5364 130.279 23.7725L130.297 29.6564L131.527 29.6756C132.204 29.6866 132.827 29.678 132.911 29.6576L133.065 29.6197V23.6692V17.7188H131.696C130.664 17.7188 130.319 17.7396 130.294 17.8036ZM136.191 18.3138C136.137 19.4888 136.142 29.5221 136.197 29.607C136.239 29.6731 136.557 29.6891 137.546 29.6748L138.839 29.6564L138.875 26.0853C138.895 24.1214 138.918 22.5044 138.926 22.4922C138.953 22.4546 139.111 22.635 139.435 23.0729C139.606 23.3056 139.789 23.5419 139.84 23.5982C139.891 23.6545 140.019 23.8165 140.124 23.9578C140.284 24.1724 140.603 24.5948 141.294 25.507C141.628 25.9478 141.993 26.409 142.099 26.5224C142.166 26.5947 142.238 26.7093 142.26 26.7775C142.282 26.8457 142.33 26.9016 142.366 26.9016C142.402 26.9016 142.452 26.955 142.477 27.0207C142.523 27.1399 143.175 27.9953 143.49 28.3484C143.582 28.4516 143.657 28.5618 143.657 28.5928C143.657 28.6239 143.722 28.723 143.802 28.8128C143.882 28.9026 144.071 29.1369 144.221 29.3332L144.494 29.6903H145.641H146.787L146.82 29.3675C146.838 29.1895 146.849 26.5036 146.844 23.3986L146.835 17.7526H145.502H144.17L144.152 21.2723C144.132 25.1711 144.165 24.936 143.727 24.3157C143.635 24.1855 143.52 24.0382 143.471 23.9888C143.424 23.9394 143.384 23.8761 143.384 23.8488C143.384 23.821 143.33 23.7378 143.264 23.6639C142.97 23.3333 140.787 20.4585 140.787 20.4009C140.787 20.3748 140.718 20.2859 140.633 20.2034C140.463 20.0381 140.307 19.841 139.902 19.2831C139.753 19.0774 139.588 18.8631 139.535 18.8072C139.482 18.7509 139.404 18.6387 139.362 18.5574C139.319 18.4762 139.246 18.3689 139.198 18.3191C139.151 18.2697 139.027 18.1142 138.921 17.9738L138.73 17.7188H137.474H136.218L136.191 18.3138ZM149.056 18.9999V20.3034H150.843H152.63L152.603 24.9801L152.576 29.6564L153.928 29.716C154.672 29.7491 155.302 29.754 155.329 29.7274C155.356 29.7009 155.389 27.5697 155.402 24.9915L155.427 20.3034H157.23H159.034V19.0831C159.034 18.4122 159.006 17.8461 158.972 17.8253C158.939 17.8045 156.694 17.7669 153.984 17.742L149.056 17.6963V18.9999ZM160.537 17.991C160.537 18.1787 160.556 18.195 160.776 18.195H161.016V18.8795V19.5639L161.238 19.5427L161.46 19.5214L161.479 18.8582L161.499 18.195H161.736C161.953 18.195 161.972 18.1783 161.972 17.991V17.7869H161.255H160.537V17.991ZM162.314 18.6709V19.5553H162.519H162.724V19.097V18.6387L162.906 18.8929C163.127 19.2019 163.225 19.2113 163.387 18.9378L163.51 18.7285L163.544 19.1247C163.578 19.5141 163.582 19.5218 163.8 19.5427L164.023 19.5639V18.6754V17.7869H163.819C163.652 17.7869 163.576 17.8461 163.391 18.1187L163.167 18.4505L162.937 18.1187C162.752 17.8514 162.669 17.7869 162.511 17.7869H162.314V18.6709ZM5.93617 18.0893C5.83284 18.2183 5.74919 18.3481 5.75001 18.3783C5.75165 18.4379 5.98373 18.1652 6.09444 17.9738C6.20105 17.7894 6.14242 17.8322 5.93617 18.0893ZM122.575 20.2238C123.642 20.5993 124.365 21.256 124.672 22.1273C124.747 22.34 124.844 22.5571 124.887 22.6097C125.069 22.8285 124.987 24.4312 124.764 25.0287C123.858 27.4595 120.804 28.0349 118.975 26.1192C118.832 25.9698 118.715 25.809 118.714 25.7621C118.714 25.7156 118.686 25.6772 118.652 25.6772C118.618 25.6772 118.495 25.476 118.379 25.2299C117.958 24.3332 117.936 23.0125 118.329 22.1853C118.428 21.9779 118.508 21.7825 118.508 21.751C118.508 21.5417 119.804 20.2875 119.808 20.4928C119.809 20.5197 119.834 20.5026 119.864 20.4548C120.119 20.0544 121.71 19.919 122.575 20.2238ZM109.539 20.2593C110.333 20.4638 110.721 20.9189 110.771 21.7029C110.816 22.3938 110.426 23.2284 110.058 23.2284C110.011 23.2284 109.948 23.2709 109.918 23.3231C109.815 23.5023 109.32 23.5676 108.07 23.568L106.822 23.5684V21.8682V20.1675H108.003C108.773 20.1675 109.308 20.1993 109.539 20.2593Z" fill="var(--fill-0, black)" fill-opacity="0.64"/>
<path id="path2" fill-rule="evenodd" clip-rule="evenodd" d="M26.764 19.9751C26.4134 20.1603 26.2863 20.2558 24.6458 21.5647C23.3041 22.6352 21.737 23.7988 21.3995 23.9755C21.2162 24.071 21.1006 24.2204 21.0813 24.3848C21.0116 24.9848 20.9062 26.2492 20.9075 26.4765C20.9079 26.6357 20.8853 26.7658 20.857 26.7658C20.8091 26.7658 20.7131 27.5609 20.6065 28.8403C20.5819 29.1395 20.5368 29.4003 20.5069 29.4195C20.4765 29.4391 20.431 29.9133 20.406 30.4741C20.3806 31.0344 20.3412 31.5238 20.3183 31.5609C20.2957 31.598 20.2584 31.7744 20.2354 31.9527C20.1866 32.331 20.233 32.3343 20.7882 31.9943C20.9636 31.887 21.1396 31.7993 21.1793 31.7993C21.2187 31.7993 21.2617 31.7756 21.274 31.7466C21.2868 31.7176 21.4967 31.5601 21.7411 31.396C22.9388 30.5932 24.8159 28.6804 25.3974 27.6707C25.4577 27.5658 25.6094 27.3115 25.7348 27.1058C26.7661 25.4137 27.4152 23.3923 27.5644 21.4076C27.6813 19.8538 27.5238 19.5726 26.764 19.9751ZM13.4957 23.1246C13.5391 23.2168 13.585 23.2617 13.5982 23.2241C13.6314 23.1274 13.5563 22.9564 13.4805 22.9564C13.4448 22.9564 13.4514 23.0307 13.4957 23.1246Z" fill="var(--fill-0, black)" fill-opacity="0.64"/>
<path id="path3" fill-rule="evenodd" clip-rule="evenodd" d="M30.5911 0.0307013C30.1171 0.0845738 29.5295 0.227826 29.4635 0.304961C29.4446 0.327 29.2917 0.389443 29.1232 0.443316C28.9546 0.497596 28.6709 0.641664 28.4925 0.763694C28.3146 0.885723 28.1538 0.985714 28.1358 0.985714C28.0558 0.985714 27.0242 2.07418 26.9061 2.28314C26.8335 2.41129 26.7532 2.53128 26.7269 2.55006C26.5088 2.70514 26.0495 4.09685 26.0475 4.60782C26.0471 4.74822 26.0159 4.8629 25.9782 4.8629C25.9384 4.8629 25.9101 5.08982 25.9101 5.40693C25.9101 5.72445 25.9384 5.95137 25.9782 5.95137C26.0159 5.95137 26.0467 6.04483 26.0467 6.1587C26.0467 6.44398 26.2463 7.31532 26.3501 7.48184C26.3964 7.55653 26.4899 7.76304 26.5576 7.94098C26.6248 8.11851 26.7076 8.26381 26.7409 8.26381C26.7745 8.26381 26.8315 8.34135 26.8676 8.43563C26.9036 8.53031 26.9795 8.62541 27.0365 8.64704C27.0935 8.66867 27.1402 8.7258 27.1402 8.77396C27.1402 8.86375 27.9398 9.69224 28.0267 9.69224C28.0538 9.69224 28.1649 9.76897 28.274 9.86243C28.3835 9.95589 28.4966 10.0322 28.5253 10.0322C28.5544 10.0326 28.6926 10.1065 28.8329 10.1971C28.9731 10.2877 29.2261 10.4012 29.3954 10.4489C29.5644 10.4967 29.7181 10.5554 29.737 10.5791C29.9379 10.8313 33.0858 10.835 33.0858 10.5824C33.0858 10.5558 33.2403 10.495 33.4294 10.4469C33.6184 10.3983 33.8103 10.324 33.8562 10.2808C33.9021 10.2379 34.058 10.1481 34.2027 10.0816C34.6341 9.88284 35.2549 9.34942 35.7949 8.71315C36.0384 8.42624 36.4202 7.70019 36.5063 7.35981C36.5506 7.1835 36.6113 7.03943 36.6404 7.03943C36.8921 7.03943 36.9007 3.96584 36.6498 3.77443C36.6252 3.75566 36.5313 3.51854 36.4407 3.24754C36.3501 2.97614 36.2533 2.75412 36.2254 2.75412C36.1971 2.75412 36.1434 2.67005 36.1057 2.5672C35.9622 2.17581 34.9125 1.08489 34.4524 0.848992C34.3585 0.800833 34.2663 0.739614 34.2474 0.713086C34.192 0.634726 33.7845 0.441683 33.675 0.441683C33.6192 0.441683 33.5298 0.397606 33.4761 0.344141C33.242 0.11151 31.5211 -0.0758193 30.5911 0.0307013ZM42.4481 17.3944C42.2415 17.4315 42.057 17.4842 42.0381 17.5115C42.0192 17.5389 41.8962 17.5821 41.7646 17.6074C41.4956 17.6597 40.3979 18.1751 40.3979 18.2498C40.3979 18.2763 40.3057 18.3384 40.1933 18.3882C39.9531 18.4939 38.8943 19.5281 38.8943 19.6566C38.8943 19.7052 38.8468 19.7631 38.789 19.7852C38.7307 19.8076 38.6381 19.9333 38.5831 20.0647C38.5278 20.1962 38.4564 20.3035 38.4244 20.3035C38.3925 20.3035 38.3133 20.4721 38.2481 20.6777C38.1833 20.8834 38.1079 21.052 38.0804 21.052C38.0242 21.052 37.7987 21.9625 37.8004 22.1854C37.8008 22.2666 37.7647 22.3449 37.72 22.3596C37.6163 22.3943 37.6044 24.5762 37.7077 24.6451C37.7454 24.6704 37.8155 24.9137 37.8635 25.1859C37.9115 25.4577 37.9873 25.7181 38.0316 25.7638C38.0763 25.8099 38.1567 25.9813 38.21 26.1454C38.2633 26.3095 38.3396 26.4776 38.3789 26.5196C38.4183 26.5613 38.5241 26.7302 38.6139 26.8947C38.8 27.2347 38.8214 27.2612 39.3565 27.8244C39.5721 28.0513 39.8485 28.2954 39.9707 28.3664C40.0929 28.4374 40.1929 28.5125 40.1929 28.5333C40.1929 28.5541 40.3081 28.6317 40.4492 28.7056C40.5903 28.7794 40.7399 28.8721 40.7817 28.9113C40.824 28.9504 40.9929 29.0263 41.1577 29.0794C41.3226 29.1325 41.4944 29.212 41.5399 29.2557C41.9491 29.6491 46.0581 29.6283 46.3377 29.2316C46.3595 29.2002 46.5145 29.1308 46.6822 29.077C46.8495 29.0231 47.0332 28.9251 47.0902 28.8586C47.1471 28.7925 47.2263 28.7382 47.2661 28.7382C47.5035 28.7382 48.6672 27.6481 48.6672 27.4257C48.6672 27.3057 47.4387 25.9597 47.1447 25.7577C47.0061 25.6622 46.8183 25.7348 46.5772 25.9768C46.3427 26.2123 46.1434 26.3572 45.8428 26.5107C45.6858 26.5907 45.5423 26.6776 45.5234 26.7037C45.4701 26.7772 44.7689 26.9698 44.5541 26.9698C44.4483 26.9698 44.3618 27.0004 44.3618 27.0376C44.3618 27.0759 44.1678 27.1057 43.9173 27.1057C43.6668 27.1057 43.4732 27.0759 43.4732 27.0376C43.4732 27.0004 43.406 26.9698 43.324 26.9698C43.1009 26.9698 42.3797 26.7564 42.3797 26.6902C42.3797 26.6588 42.28 26.5833 42.1578 26.5221C41.9028 26.3948 41.1495 25.6308 41.1495 25.4997C41.1495 25.4516 41.1081 25.3875 41.0569 25.3577C41.006 25.3275 40.9117 25.1349 40.8469 24.9292C40.7826 24.7235 40.6936 24.4811 40.6493 24.3913C40.5464 24.1819 40.539 22.4955 40.6407 22.427C40.6801 22.4 40.7637 22.2168 40.8264 22.0188C40.8896 21.8213 41.0187 21.5585 41.1139 21.4344C41.2086 21.3103 41.2865 21.1904 41.2865 21.1671C41.2865 21.0361 42.0307 20.4039 42.3674 20.2492C42.5059 20.1855 42.6552 20.0998 42.6991 20.0586C42.827 19.939 43.7996 19.8105 44.2178 19.8574C44.6808 19.9101 45.2499 20.0423 45.2499 20.0974C45.2499 20.1194 45.4037 20.197 45.5919 20.2696C45.7797 20.3423 45.9334 20.4263 45.9334 20.4561C45.9334 20.4863 46.0027 20.541 46.0872 20.5773C46.3295 20.6814 46.4985 20.8014 46.6362 20.9667C46.8786 21.2585 47.0409 21.1683 47.6991 20.3761C47.8368 20.2104 48.0111 20.0076 48.0861 19.9256C48.7529 19.1979 48.7582 19.1869 48.5249 18.9722C48.4466 18.9 48.2957 18.7571 48.1899 18.6543C48.0837 18.5514 47.968 18.4669 47.9328 18.4669C47.8971 18.4669 47.8159 18.4094 47.752 18.3392C47.5945 18.1657 46.5751 17.6711 46.2582 17.614C46.1171 17.5882 46.0019 17.5458 46.0019 17.5189C46.0019 17.3393 43.2842 17.2442 42.4481 17.3944ZM79.7274 17.425C79.6151 17.4438 79.5072 17.4821 79.4884 17.5099C79.4695 17.538 79.2538 17.5993 79.0099 17.6462C78.5465 17.7352 77.6383 18.1306 77.4087 18.3437C77.3353 18.4114 77.2459 18.4669 77.2102 18.4669C77.1352 18.4669 77.0171 18.5702 76.4471 19.1326C75.7841 19.7864 75.1145 20.8234 75.1145 21.1961C75.1145 21.2601 75.0813 21.3234 75.0407 21.3369C74.9579 21.3646 74.7787 22.1245 74.775 22.4633C74.7738 22.5849 74.7418 22.6845 74.7045 22.6845C74.6623 22.6845 74.636 23.0245 74.636 23.5685C74.636 24.1129 74.6623 24.4529 74.7045 24.4529C74.7418 24.4529 74.7725 24.548 74.7725 24.6643C74.7725 24.9512 74.9862 25.8132 75.0571 25.8132C75.0887 25.8132 75.1145 25.8585 75.1145 25.9136C75.1145 26.2091 75.6619 27.1531 76.0769 27.573C76.1741 27.6714 76.2905 27.8207 76.3356 27.9048C76.3807 27.9893 76.4451 28.0579 76.4783 28.0579C76.5115 28.0579 76.6415 28.1526 76.7666 28.2681C77.1139 28.5888 77.1848 28.6443 77.3697 28.739C77.4636 28.7872 77.5559 28.8488 77.5747 28.8758C77.6629 29.0031 78.7109 29.4226 79.1259 29.4973C79.3814 29.543 79.6118 29.6116 79.6376 29.65C79.6996 29.7406 82.0757 29.7438 82.1405 29.6528C82.1663 29.6165 82.4402 29.5361 82.7486 29.4741C83.3058 29.3622 84.1165 29.0206 84.3703 28.7905C84.4429 28.7243 84.5421 28.6701 84.5901 28.6701C84.638 28.6701 84.7102 28.6088 84.7504 28.5342C84.7906 28.4595 84.8615 28.3982 84.9083 28.3982C84.9927 28.3982 85.7755 27.6187 85.7755 27.5347C85.7755 27.431 84.0902 25.8132 83.982 25.8132C83.9164 25.8132 83.7807 25.905 83.6802 26.0172C83.5797 26.1295 83.4641 26.2213 83.4227 26.2213C83.3817 26.2213 83.3095 26.2825 83.2628 26.3576C83.2156 26.4323 83.1389 26.4939 83.0926 26.4947C83.0459 26.4956 82.8778 26.5837 82.7187 26.6911C82.5596 26.7984 82.3135 26.9078 82.1721 26.9339C82.0302 26.9604 81.8924 27.0176 81.8654 27.0608C81.803 27.1612 80.1202 27.171 80.0493 27.0714C80.0227 27.0339 79.8775 26.9616 79.7274 26.9106C79.1501 26.7164 78.6314 26.2997 78.2423 25.7181C78.1394 25.5646 78.0233 25.4014 77.9844 25.3553C77.945 25.3091 77.8601 25.0643 77.7953 24.8112C77.7301 24.5582 77.6481 24.3301 77.6125 24.3048C77.5218 24.2395 77.5317 22.9286 77.6244 22.7388C77.6666 22.6527 77.7535 22.4062 77.8179 22.1911C77.8823 21.976 77.9557 21.8001 77.9807 21.8001C78.0061 21.8001 78.0774 21.6854 78.1398 21.545C78.2505 21.2961 78.9746 20.5076 79.0927 20.5076C79.1255 20.5076 79.2149 20.4492 79.292 20.3782C79.3686 20.3068 79.5368 20.2288 79.6647 20.2051C79.793 20.1811 79.898 20.1358 79.898 20.1047C79.898 19.9019 81.6321 19.895 82.0003 20.0962C82.0659 20.1321 82.2578 20.2227 82.4267 20.2978C82.8974 20.5063 83.3066 20.763 83.5801 21.021C83.8856 21.3095 83.9783 21.3083 84.2378 21.0128C84.3506 20.8847 84.5888 20.628 84.7672 20.4423C84.946 20.2566 85.0923 20.0807 85.0928 20.0513C85.0932 20.0219 85.1998 19.8946 85.3298 19.7693C85.7336 19.3783 85.7095 19.082 85.2498 18.7991C85.1256 18.7228 85.0235 18.6367 85.0235 18.6086C85.0235 18.58 84.9009 18.4984 84.7512 18.4269C84.6011 18.3555 84.4781 18.2755 84.4777 18.2494C84.4757 18.1168 83.0733 17.5829 82.7277 17.5829C82.6436 17.5829 82.5624 17.5458 82.5473 17.5005C82.519 17.416 80.1645 17.3528 79.7274 17.425ZM50.6489 23.4314V29.4186H52.0155H53.3826V27.0718V24.7251H55.7366H58.0906L58.0492 27.1057L58.0078 29.4863H59.4085H60.8096L60.8547 27.7408C60.8793 26.7808 60.8998 24.1023 60.8998 21.7891V17.5829H59.9087C59.2937 17.5829 58.9181 17.5568 58.9181 17.5148C58.9181 17.4768 58.7356 17.4466 58.508 17.4466H58.098V19.7933V22.1401H55.7403H53.3826V20.2696C53.3826 19.0134 53.4059 18.3992 53.4539 18.3992C53.4986 18.3992 53.5179 18.227 53.5052 17.94L53.4851 17.4809L52.0668 17.4625L50.6489 17.4442V23.4314ZM63.8385 23.5346V29.4863H68.417H72.9959V28.2281V26.9698H69.784H66.5718V25.8475V24.7251H69.374H72.1758L72.1762 24.2317C72.1762 23.9607 72.1963 23.3942 72.2209 22.9734L72.2652 22.2082H69.4183H66.5718V21.0749V19.9419L69.784 19.9823L72.9959 20.0231V18.8028V17.5829H68.417H63.8385V23.5346ZM87.5522 23.5346V29.4863H88.2935C88.7011 29.4863 89.3161 29.5063 89.6602 29.5308L90.2859 29.5749V27.7567V25.9385L90.821 25.4165C91.115 25.1296 91.3753 24.8414 91.3995 24.7761C91.4237 24.7104 91.4914 24.657 91.55 24.657C91.6087 24.657 91.6775 24.7104 91.7025 24.7761C91.7489 24.8969 92.1761 25.4793 92.2639 25.5414C92.2905 25.5597 92.3713 25.6822 92.4435 25.8132C92.5161 25.9442 92.6288 26.0915 92.6948 26.1401C92.7604 26.1891 92.8142 26.2576 92.8142 26.2927C92.8142 26.3539 93.1959 26.8968 93.3862 27.1057C93.437 27.1616 93.5186 27.2845 93.5674 27.3779C93.6162 27.4714 93.7126 27.5877 93.7819 27.6367C93.8511 27.6857 93.9077 27.7681 93.9077 27.8199C93.9077 27.8718 93.9619 27.9542 94.0275 28.0032C94.0935 28.0522 94.2083 28.2068 94.2825 28.3472C94.3567 28.4872 94.4416 28.6023 94.4711 28.6023C94.5006 28.6023 94.5765 28.7092 94.6392 28.8402C94.702 28.9713 94.775 29.0782 94.802 29.0782C94.8291 29.0782 94.9144 29.1855 94.9923 29.3165L95.1333 29.5545H96.7829H98.4329L98.3886 29.3675C98.364 29.2647 98.2836 29.1296 98.2102 29.0676C98.1364 29.0051 98.0766 28.9321 98.0766 28.9043C98.0766 28.877 97.9736 28.7288 97.8478 28.575C97.7223 28.4215 97.5812 28.2248 97.5353 28.1379C97.4476 27.9734 97.3287 27.8248 97.0683 27.5555C96.9838 27.4677 96.9145 27.3722 96.9145 27.3428C96.9145 27.3139 96.8124 27.1641 96.6874 27.0106C96.5627 26.8572 96.4405 26.678 96.4163 26.6127C96.3921 26.547 96.3425 26.4935 96.3065 26.4935C96.27 26.4935 96.2228 26.4376 96.2011 26.3695C96.1793 26.3013 96.1072 26.1866 96.0407 26.1144C95.9743 26.0421 95.8447 25.876 95.7529 25.7454C95.6611 25.6144 95.5311 25.4479 95.4642 25.3753C95.3974 25.303 95.3429 25.2043 95.3429 25.1565C95.3429 25.1088 95.2814 25.0369 95.2063 24.9969C95.1309 24.9569 95.0694 24.8937 95.0694 24.8565C95.0694 24.7925 94.6331 24.1954 94.4264 23.9766C94.3735 23.9207 94.2915 23.7905 94.2448 23.6877C94.1976 23.5848 94.1365 23.5007 94.1086 23.5007C94.0808 23.5007 93.9951 23.4012 93.9184 23.2795C93.8417 23.1579 93.7146 22.9759 93.6355 22.8751L93.492 22.6923L94.3834 21.8005C94.8734 21.3099 95.2744 20.8904 95.2744 20.8683C95.2744 20.8463 95.6204 20.4851 96.0432 20.0656C96.7206 19.3938 97.311 18.7804 98.0594 17.9707C98.1815 17.8388 98.2816 17.7127 98.2816 17.6907C98.2816 17.6686 97.532 17.6507 96.616 17.6507H94.9509L94.4683 18.1441C93.5432 19.0897 92.7838 19.8982 92.7276 19.9986C92.6965 20.0541 92.4419 20.3194 92.1618 20.588C91.8817 20.8565 91.6525 21.1014 91.6525 21.1324C91.6525 21.1634 91.3987 21.445 91.0887 21.7585C90.7787 22.0719 90.4786 22.3845 90.4224 22.4535C90.331 22.5657 90.3179 22.3135 90.3019 20.0811L90.2842 17.5829H88.918H87.5522V23.5346Z" fill="var(--fill-0, black)" fill-opacity="0.64"/>
<path id="path4" fill-rule="evenodd" clip-rule="evenodd" d="M10.4451 11.9825C10.4033 12.0499 9.75668 12.1797 9.61808 12.1482C9.58487 12.1409 9.46186 12.1686 9.345 12.2099C9.22814 12.2515 9.01 12.3009 8.86034 12.3196C8.71067 12.3384 8.57003 12.3833 8.54789 12.4192C8.51591 12.4711 7.8619 12.6151 7.65114 12.6168C7.62572 12.6172 7.56421 12.6568 7.5146 12.7053C7.46457 12.7539 7.24889 12.8482 7.03526 12.9147C6.82122 12.9812 6.63671 13.0567 6.62523 13.0828C6.61334 13.109 6.36567 13.2036 6.07455 13.2938C5.78301 13.3836 5.54478 13.4804 5.54478 13.5081C5.54478 13.5359 5.44473 13.5803 5.32254 13.6069C5.03305 13.6701 4.10965 14.1003 4.10965 14.1721C4.10965 14.2027 3.97885 14.268 3.81935 14.3174C3.65943 14.3664 3.47942 14.4611 3.41915 14.5276C3.35887 14.5941 3.15099 14.7002 2.95786 14.7631C2.76432 14.8259 2.60605 14.9047 2.60605 14.9378C2.60605 14.9708 2.54782 14.9978 2.47689 14.9978C2.40554 14.9978 2.32968 15.0439 2.30795 15.0998C2.28663 15.1561 2.20831 15.2018 2.13491 15.2018C2.06111 15.2018 1.95491 15.2479 1.89832 15.3039C1.84215 15.3602 1.75522 15.4071 1.70561 15.4083C1.58178 15.4112 1.4112 15.5516 1.35708 15.6952C1.33206 15.7605 1.24678 15.814 1.16682 15.814C1.08153 15.814 1.00772 15.8675 0.987632 15.9438C0.96877 16.0152 0.892914 16.0895 0.819107 16.1087C0.712908 16.1364 0.700606 16.1246 0.761292 16.0519C0.803116 16.0017 0.84699 15.8891 0.858471 15.8022C0.869952 15.7152 0.914236 15.5581 0.956879 15.4524C1.05078 15.2206 1.05488 15.1341 0.971641 15.1341C0.936788 15.1341 0.888403 15.2259 0.863391 15.3385C0.838379 15.4512 0.777283 15.6275 0.727669 15.7299C0.677644 15.8324 0.584976 16.1458 0.52183 16.4262C0.458685 16.707 0.379138 16.9976 0.345515 17.0727C0.0896517 17.6396 0.0240459 19.854 0.273348 19.5129C0.29713 19.4802 0.424242 19.4463 0.555453 19.4378C0.686665 19.4292 0.803936 19.3929 0.815827 19.3569C0.828128 19.321 1.05898 19.2243 1.32919 19.1415C1.59941 19.059 1.83559 18.9688 1.85445 18.9415C1.87331 18.9141 2.06562 18.8366 2.28171 18.7688C2.4978 18.7015 2.67452 18.6244 2.67452 18.5978C2.67452 18.5713 2.75161 18.5305 2.84551 18.5072C2.93941 18.4836 3.01608 18.4321 3.01608 18.393C3.01608 18.3509 3.07677 18.3407 3.1637 18.3685C3.2699 18.4019 3.34165 18.375 3.41997 18.2721C3.48148 18.1917 3.63278 18.1162 3.76809 18.0991C4.13179 18.053 4.64721 17.8501 4.87396 17.664C4.93752 17.6118 5.02362 17.5902 5.06504 17.6159C5.10686 17.6416 5.20855 17.6187 5.29138 17.5649C5.37461 17.5114 5.65754 17.3979 5.92078 17.3131C6.40586 17.1559 6.92988 16.7172 7.45842 16.025C7.55232 15.9022 7.69296 15.7352 7.77087 15.6548C7.84878 15.574 7.93242 15.4545 7.95662 15.3892C8.01033 15.2439 8.16368 15.2349 8.27644 15.37C8.32237 15.4247 8.55281 15.5773 8.7894 15.7087L9.21871 15.9479L9.58569 15.8393C9.78743 15.7801 9.96785 15.7071 9.98671 15.6773C10.0056 15.6479 10.1979 15.5724 10.414 15.51C10.6538 15.4406 10.8068 15.359 10.8068 15.2998C10.8068 15.2471 10.8609 15.2104 10.9265 15.2182C11.0836 15.2377 11.8319 14.9892 11.8319 14.9174C11.8319 14.8868 11.8954 14.8619 11.9729 14.8619C12.0619 14.8619 12.0955 14.8329 12.0644 14.7831C12.0311 14.7292 12.0619 14.7166 12.1632 14.7427C12.2587 14.7676 12.2944 14.7553 12.2653 14.708C12.2358 14.6611 12.2624 14.6509 12.3383 14.6798C12.4719 14.7313 12.743 14.6129 12.6897 14.5268C12.6704 14.4962 12.8131 14.4501 13.007 14.4243C13.3363 14.3811 13.5979 14.2876 13.677 14.1852C13.6959 14.1611 13.9034 14.084 14.1383 14.0146C14.3733 13.9448 14.5656 13.866 14.5656 13.8387C14.5656 13.4077 15.8465 14.0929 18.5241 15.9564C18.9161 16.2291 19.2183 16.4225 19.1957 16.3862C19.1732 16.3499 18.9755 16.1985 18.7566 16.0499C18.5376 15.9018 18.1218 15.6042 17.8323 15.3892C17.5429 15.1741 17.2739 14.9978 17.2341 14.9978C17.1947 14.9978 17.1623 14.9365 17.1623 14.8619C17.1623 14.7872 17.1316 14.726 17.0943 14.726C17.0566 14.726 17.0258 14.6831 17.0258 14.6309C17.0258 14.5786 16.9495 14.4639 16.8561 14.3758C16.763 14.2876 16.6859 14.1791 16.6855 14.1346C16.6847 14.0897 16.6268 14.0134 16.5571 13.9644C16.4874 13.9154 16.4087 13.8069 16.3816 13.7224C16.355 13.6383 16.3046 13.5693 16.2693 13.5693C16.2344 13.5693 16.2053 13.5314 16.2053 13.4844C16.2045 13.3963 15.9044 13.2294 15.7465 13.2294C15.6969 13.2294 15.6198 13.1506 15.5759 13.0539C15.5156 12.9229 15.4562 12.8861 15.3401 12.9082C15.2536 12.9245 15.1314 12.8878 15.0634 12.8249C14.8969 12.6706 14.5037 12.4813 14.3499 12.4813C14.2806 12.4813 14.224 12.4527 14.224 12.418C14.224 12.3833 14.0469 12.316 13.8308 12.2686C13.3019 12.1527 13.2559 12.147 12.5523 12.1164C12.182 12.1005 11.9303 12.0597 11.9147 12.0136C11.8827 11.9189 11.5588 11.9111 11.5588 12.005C11.5588 12.1037 11.1664 12.0886 11.1254 11.9878C11.0991 11.9242 11.0729 11.9283 11.0184 12.005C10.9692 12.074 10.9454 12.0797 10.9446 12.0221C10.9441 11.9752 10.8974 11.9368 10.8412 11.9368C10.7846 11.9368 10.7387 11.9674 10.7387 12.005C10.7387 12.1013 10.5505 12.0899 10.5177 11.9915C10.4988 11.9356 10.4759 11.9327 10.4451 11.9825ZM1.42391 14.0411C1.29229 14.2627 1.28122 14.3178 1.36938 14.3178C1.42924 14.3178 1.60269 13.9085 1.56086 13.8664C1.54938 13.855 1.48747 13.9338 1.42391 14.0411ZM1.0598 14.8349C1.03397 14.9059 1.00075 14.9867 0.985582 15.0149C0.970411 15.0431 0.988452 15.0659 1.02577 15.0659C1.10449 15.0659 1.20208 14.8023 1.14468 14.7451C1.12335 14.7239 1.08522 14.7643 1.0598 14.8349ZM22.9131 17.5918C22.8081 17.7587 22.8992 17.8591 23.1423 17.8444C23.26 17.8375 23.2575 17.8322 23.1251 17.8069C22.9562 17.7742 22.9258 17.6555 23.0533 17.5281C23.0985 17.4832 23.1058 17.4465 23.0697 17.4465C23.0337 17.4465 22.9631 17.5118 22.9131 17.5918Z" fill="var(--fill-0, black)" fill-opacity="0.64"/>
<path id="path5" fill-rule="evenodd" clip-rule="evenodd" d="M136.165 18.2629C136.165 18.5808 136.177 18.711 136.191 18.5522C136.205 18.3931 136.205 18.1331 136.191 17.9739C136.177 17.8147 136.165 17.9449 136.165 18.2629ZM27.5669 21.4258C27.5677 21.5756 27.5817 21.6287 27.5981 21.5442C27.614 21.4597 27.6136 21.3373 27.5964 21.272C27.5792 21.2071 27.5661 21.2765 27.5669 21.4258ZM27.3143 23.0624C27.2885 23.1987 27.2811 23.324 27.2979 23.3408C27.3143 23.3575 27.3492 23.2591 27.375 23.1228C27.4004 22.9861 27.4078 22.8608 27.3914 22.8445C27.3746 22.8277 27.3397 22.9257 27.3143 23.0624ZM21.9797 23.5407L21.7747 23.7158L21.997 23.5697C22.1191 23.4893 22.2192 23.4101 22.2192 23.3938C22.2192 23.3432 22.1901 23.3608 21.9797 23.5407ZM21.5262 23.8444C21.3733 23.977 21.3729 23.9807 21.5148 23.9121C21.5972 23.8725 21.6837 23.8097 21.7066 23.7721C21.7739 23.664 21.7001 23.6938 21.5262 23.8444ZM20.8755 24.2415C20.7193 24.339 20.4962 24.4709 20.3802 24.5349C20.2158 24.6247 20.169 24.6966 20.169 24.8578C20.169 24.972 20.1411 25.0651 20.1075 25.0651C20.0735 25.0651 20.0312 25.1953 20.0128 25.354C19.9693 25.7332 19.8016 26.3095 19.75 26.2576C19.7274 26.2356 19.6425 26.3711 19.5613 26.5596C19.4797 26.7478 19.3834 26.9017 19.3469 26.9017C19.3104 26.9017 19.2805 26.9319 19.2805 26.969C19.2805 27.0857 19.0541 27.3045 18.9779 27.2612C18.9377 27.2388 18.9262 27.2437 18.9524 27.273C19.0201 27.3477 18.8438 27.5065 18.599 27.5914C18.4854 27.631 18.3919 27.7061 18.3919 27.7587C18.3919 27.811 18.369 27.8473 18.3407 27.8387C18.264 27.8158 17.8453 28.0154 17.8453 28.0746C17.8453 28.1028 17.8129 28.126 17.7728 28.126C17.733 28.126 17.7199 28.0877 17.7441 28.0411C17.7678 27.9942 17.7408 28.0126 17.6842 28.0815C17.6046 28.1787 17.4386 28.2187 16.9445 28.2587C16.5943 28.2872 16.377 28.315 16.4615 28.3203C16.5664 28.3268 16.6152 28.3733 16.6152 28.466C16.6152 28.5411 16.646 28.6023 16.6837 28.6023C16.721 28.6023 16.7518 28.648 16.7518 28.7043C16.7518 28.7603 16.7825 28.8064 16.8202 28.8064C16.858 28.8064 16.8887 28.8521 16.8887 28.9084C16.8887 28.9643 16.858 29.0104 16.8202 29.0104C16.7259 29.0104 16.7337 29.2651 16.8293 29.2965C16.8748 29.3116 16.9326 29.6275 16.9703 30.0675C17.0052 30.4776 17.0503 30.9919 17.0704 31.2106C17.09 31.4298 17.072 31.904 17.0298 32.2652C16.9556 32.9007 16.9843 33.3635 17.0974 33.3635C17.1278 33.3635 17.1659 33.2949 17.1819 33.2104L17.2118 33.0574L17.2208 33.2104C17.2352 33.4439 18.2619 33.1917 19.5913 32.6289L20.1989 32.3718L20.2211 32.0685C20.2334 31.9016 20.2711 31.6885 20.3051 31.5951C20.3392 31.5016 20.3863 30.9817 20.4101 30.4397C20.4335 29.8977 20.477 29.4386 20.5069 29.4194C20.5368 29.4002 20.5815 29.1394 20.6061 28.8402C20.7127 27.5608 20.8087 26.7657 20.8566 26.7657C20.8849 26.7657 20.9075 26.6356 20.9071 26.4764C20.9063 26.3176 20.9428 25.805 20.9879 25.3373C21.0334 24.8696 21.0715 24.4411 21.0731 24.3847C21.0748 24.3288 21.1068 24.2439 21.1445 24.1962C21.2663 24.0431 21.167 24.0599 20.8755 24.2415ZM26.2171 26.2213C26.1584 26.3335 26.1264 26.4254 26.1449 26.4254C26.1637 26.4254 26.2269 26.3335 26.2851 26.2213C26.3438 26.1091 26.3757 26.0172 26.3573 26.0172C26.3384 26.0172 26.2753 26.1091 26.2171 26.2213ZM24.7774 28.5117C24.6724 28.6492 24.6212 28.7398 24.6638 28.7137C24.7512 28.6599 25.0472 28.2619 24.9997 28.2619C24.9828 28.2619 24.8828 28.3746 24.7774 28.5117ZM146.819 29.3843C146.82 29.5341 146.834 29.5871 146.85 29.5026C146.867 29.4182 146.866 29.2957 146.849 29.2304C146.832 29.1655 146.818 29.2349 146.819 29.3843ZM23.5842 29.8777L23.0048 30.4727L23.6031 29.8961C24.1583 29.3606 24.2321 29.2822 24.1825 29.2822C24.1722 29.2822 23.9028 29.5504 23.5842 29.8777Z" fill="var(--fill-0, black)" fill-opacity="0.64"/>
<path id="path6" fill-rule="evenodd" clip-rule="evenodd" d="M13.6136 6.04893C13.6742 6.10933 15.0274 6.1379 15.118 6.08077C15.175 6.04485 14.8892 6.02077 14.398 6.02036C13.9502 6.01955 13.5972 6.03261 13.6136 6.04893ZM12.684 6.15545C12.552 6.21177 12.5524 6.21381 12.6967 6.21871C12.7791 6.22116 12.8657 6.19259 12.889 6.15545C12.939 6.07505 12.8718 6.07505 12.684 6.15545ZM15.7248 6.15545C15.7248 6.19259 15.8405 6.22279 15.9811 6.22239C16.1718 6.22157 16.2111 6.20443 16.1349 6.15545C16.0004 6.06852 15.7248 6.06852 15.7248 6.15545ZM16.4256 6.27014C16.4912 6.28728 16.599 6.28728 16.6646 6.27014C16.7302 6.25299 16.6765 6.23912 16.5449 6.23912C16.4133 6.23912 16.3596 6.25299 16.4256 6.27014ZM17.331 6.42726C17.3543 6.46481 17.4175 6.49542 17.4716 6.49542C17.5257 6.49542 17.57 6.46481 17.57 6.42726C17.57 6.39013 17.5069 6.35952 17.4294 6.35952C17.3519 6.35952 17.3076 6.39013 17.331 6.42726ZM17.6762 6.49012C17.7881 6.59827 18.2535 6.65785 18.2535 6.56358C18.2535 6.51787 18.2076 6.49828 18.151 6.51991C18.0944 6.54154 18.0485 6.5297 18.0485 6.49338C18.0485 6.45706 17.9501 6.42726 17.83 6.42726C17.6951 6.42726 17.636 6.45134 17.6762 6.49012ZM18.322 6.68642C18.322 6.71703 18.4754 6.78111 18.6636 6.82886C19.0896 6.93783 19.1474 7.01945 18.8387 7.07741C18.6209 7.11781 18.6094 7.13128 18.7079 7.22923C18.8305 7.35167 18.6254 7.48104 18.4286 7.40595C18.3745 7.38513 18.2818 7.39534 18.2224 7.42839C18.1035 7.49451 18.1637 7.52594 19.1761 7.92182C19.7846 8.15976 21.1398 8.85642 21.5802 9.15721C21.8696 9.35475 22.0123 9.40005 22.0123 9.29393C22.0123 9.26169 22.1366 9.09477 22.2887 8.92295L22.5651 8.61032L22.4281 8.47401C22.3527 8.39892 22.1669 8.27444 22.0152 8.1973C21.8631 8.12017 21.7388 8.02711 21.7388 7.99038C21.7388 7.95365 21.6913 7.92386 21.6331 7.92386C21.5121 7.92386 21.1082 7.72918 21.0529 7.64429C21.0324 7.61328 20.8802 7.54022 20.7142 7.48186C20.5485 7.42391 20.3652 7.33738 20.307 7.29004C20.2488 7.2427 20.0167 7.14597 19.7912 7.07537C19.5657 7.00476 19.3487 6.92273 19.309 6.89375C19.1392 6.76927 18.322 6.59786 18.322 6.68642ZM1.24152 15.5489C1.15008 15.5852 1.03568 15.5999 0.987298 15.5815C0.939324 15.5631 0.878639 15.5823 0.852806 15.6235C0.824514 15.6693 0.836815 15.6803 0.884789 15.6509C0.995089 15.5827 0.983608 15.6386 0.832715 15.9064C0.707653 16.128 0.707243 16.1374 0.826154 16.1064C0.89504 16.0884 0.966387 16.0153 0.985248 15.9439C1.00534 15.8676 1.07915 15.8141 1.16443 15.8141C1.24439 15.8141 1.32968 15.7607 1.35387 15.6954C1.37806 15.6297 1.43096 15.5538 1.47114 15.5264C1.57447 15.4558 1.44285 15.4689 1.24152 15.5489Z" fill="var(--fill-0, black)" fill-opacity="0.64"/>
<path id="path7" fill-rule="evenodd" clip-rule="evenodd" d="M14.7159 13.7535C14.6314 13.7698 14.5621 13.8065 14.5621 13.8355C14.5621 13.8645 14.3698 13.9449 14.1349 14.0147C13.8999 14.084 13.6924 14.1612 13.6736 14.1852C13.5944 14.2877 13.3328 14.3811 13.0036 14.4244C12.8096 14.4501 12.6669 14.4962 12.6862 14.5268C12.7395 14.613 12.4685 14.7313 12.3348 14.6799C12.2589 14.6509 12.2323 14.6611 12.2618 14.7081C12.2909 14.7554 12.2553 14.7676 12.1597 14.7427C12.0584 14.7166 12.0277 14.7293 12.0609 14.7831C12.0921 14.8329 12.0584 14.8619 11.9695 14.8619C11.892 14.8619 11.8284 14.8868 11.8284 14.9174C11.8284 14.9893 11.0801 15.2378 10.923 15.2182C10.8574 15.2105 10.8033 15.2472 10.8033 15.2998C10.8033 15.359 10.6504 15.4406 10.4105 15.51C10.1944 15.5725 10.0021 15.648 9.98324 15.6774C9.96438 15.7071 9.78314 15.7802 9.58058 15.8402L9.21155 15.9488L8.82858 15.7353C8.42633 15.5108 8.519 15.6472 8.97496 15.9504C9.1156 16.0438 9.23082 16.1434 9.23123 16.1712C9.23123 16.1993 9.27019 16.223 9.31693 16.2242C9.43338 16.2267 9.92051 16.5993 9.8795 16.6544C9.86146 16.6785 9.86638 16.6838 9.89057 16.6662C9.91476 16.6483 10.1046 16.727 10.3129 16.8405C10.6463 17.0229 10.7328 17.0421 11.0379 17.0017C11.2285 16.9768 11.5402 16.9495 11.7304 16.9409C11.9211 16.9327 12.1146 16.903 12.1605 16.8744C12.2069 16.8462 12.2848 16.856 12.334 16.8968C12.4336 16.9789 12.8486 16.8703 12.938 16.7385C12.9724 16.6879 12.9884 16.6915 12.9892 16.7495C12.99 16.7964 13.052 16.8344 13.127 16.8344C13.202 16.8344 13.2639 16.7964 13.2648 16.7495C13.2656 16.6928 13.2877 16.6985 13.332 16.7666C13.3763 16.8344 13.3984 16.8401 13.3993 16.7834C13.4001 16.7368 13.462 16.6985 13.537 16.6985C13.6121 16.6985 13.674 16.7368 13.6748 16.7834C13.6756 16.8515 13.6867 16.8515 13.7302 16.7834C13.7601 16.7364 13.9208 16.6813 14.0877 16.6609C14.2546 16.6401 14.4682 16.6115 14.5621 16.5977C15.1099 16.5148 15.5146 16.5005 15.5528 16.5622C15.5778 16.6022 15.716 16.6136 15.882 16.5899C16.0395 16.5675 16.3921 16.5442 16.666 16.5385C17.0252 16.5312 17.1823 16.5001 17.2298 16.4263C17.2885 16.3357 17.3032 16.3357 17.3631 16.4263C17.4082 16.4948 17.4307 16.5001 17.4311 16.4434C17.432 16.3965 17.5095 16.3585 17.6034 16.3585C17.6973 16.3585 17.7739 16.3891 17.7739 16.4263C17.7739 16.5307 18.0446 16.5071 18.1598 16.3924C18.2984 16.2544 18.4571 16.2634 18.4587 16.4095C18.4591 16.4895 18.4767 16.5018 18.5112 16.4475C18.578 16.3434 19.0077 16.3508 19.141 16.4589C19.2812 16.5728 20.2719 17.1066 20.3424 17.1066C20.3736 17.1066 20.1239 16.9499 19.7872 16.7581C19.4506 16.5667 18.8675 16.1965 18.4915 15.9353C16.7562 14.7297 15.0337 13.6661 14.8959 13.7147C14.8815 13.72 14.8004 13.7375 14.7159 13.7535ZM8.13808 15.3358C8.13808 15.3717 8.20737 15.4374 8.29184 15.4815C8.44478 15.5614 8.44519 15.561 8.31562 15.4162C8.17088 15.2537 8.13808 15.239 8.13808 15.3358ZM7.65218 15.7631C7.57223 15.9153 7.57223 15.9157 7.7182 15.7867C7.88098 15.6427 7.89615 15.61 7.79898 15.61C7.76248 15.61 7.69688 15.679 7.65218 15.7631ZM7.40288 16.0989C6.87024 16.7646 6.38394 17.1621 5.91732 17.3131C5.65407 17.398 5.37115 17.5115 5.28791 17.5649C5.20508 17.6188 5.10339 17.6417 5.06157 17.6159C5.02016 17.5902 4.93405 17.6119 4.87049 17.6641C4.64374 17.8502 4.12833 18.053 3.76462 18.0992C3.62931 18.1163 3.47801 18.1918 3.4165 18.2722C3.33819 18.3751 3.26643 18.402 3.16023 18.3685C3.0733 18.3408 3.01262 18.351 3.01262 18.393C3.01262 18.4322 2.93594 18.4836 2.84204 18.5073C2.74814 18.5306 2.67106 18.5714 2.67106 18.5979C2.67106 18.6244 2.49433 18.7016 2.27824 18.7689C2.06215 18.8366 1.86984 18.9142 1.85098 18.9415C1.83212 18.9689 1.59594 19.0591 1.32573 19.1415C1.05551 19.2244 0.824662 19.3211 0.81236 19.357C0.800469 19.3929 0.683199 19.4292 0.551987 19.4378C0.420775 19.4464 0.293664 19.4803 0.269882 19.5129C0.184184 19.63 0.100947 19.4917 0.0841352 19.2048C0.0747044 19.0444 0.0496922 18.8971 0.0283703 18.8771C-0.0573274 18.7967 0.0693739 22.4522 0.166143 22.8542C0.321546 23.4991 0.480231 23.6999 0.596271 23.3987C0.617593 23.3423 0.678278 23.2966 0.730763 23.2966C0.783248 23.2966 0.825892 23.2636 0.825892 23.2236C0.825892 23.1293 0.999747 22.9563 1.09447 22.9563C1.13465 22.9563 1.16745 22.9265 1.16745 22.8897C1.16745 22.853 1.24454 22.8036 1.33844 22.7804C1.43234 22.7567 1.50942 22.6951 1.50942 22.6428C1.50942 22.591 1.54223 22.5481 1.58241 22.5481C1.67672 22.5481 1.85098 22.3755 1.85098 22.2824C1.85098 22.2429 1.92807 22.1914 2.02197 22.1682C2.11587 22.1445 2.19254 22.1004 2.19254 22.0702C2.19254 22.0396 2.29259 21.9927 2.41478 21.9653C2.53697 21.938 2.59848 21.9025 2.55133 21.8862C2.37296 21.8245 2.47834 21.6225 2.79079 21.4258C2.96915 21.3136 3.16925 21.1683 3.23486 21.103C3.30046 21.0373 3.40051 20.9838 3.45628 20.9838C3.51245 20.9838 3.59692 20.9226 3.64366 20.8479C3.69082 20.7728 3.76873 20.7116 3.81711 20.7116C3.8659 20.7116 3.92331 20.6659 3.94463 20.6095C3.96636 20.5536 4.04222 20.5075 4.11357 20.5075C4.1845 20.5075 4.24273 20.4618 4.24273 20.4055C4.24273 20.3496 4.28209 20.3034 4.33048 20.3034C4.37845 20.3034 4.46128 20.2435 4.51458 20.17C4.56748 20.0965 4.6991 20.0174 4.80653 19.9937C4.91396 19.9704 4.99022 19.9157 4.97546 19.8729C4.93733 19.7578 5.0751 19.6464 5.32317 19.5921C5.58601 19.535 5.59421 19.4778 5.37033 19.2554C5.14809 19.0342 5.15137 19.0158 5.47284 18.6791C5.62332 18.522 5.74633 18.3783 5.74633 18.36C5.74633 18.3351 7.06501 16.6258 7.53983 16.0353C7.57756 15.9883 7.58863 15.9504 7.56484 15.9504C7.54106 15.9504 7.46849 16.0173 7.40288 16.0989ZM20.4392 17.1495C20.4392 17.1956 20.9271 17.3919 20.9599 17.3592C20.9751 17.3441 20.864 17.2837 20.7135 17.2246C20.5626 17.1658 20.4392 17.1319 20.4392 17.1495ZM25.5646 17.4968C25.5646 17.5368 25.4494 17.6025 25.3084 17.6429L25.0521 17.7163L25.2891 17.6825C25.54 17.6461 25.6893 17.5482 25.6114 17.4707C25.586 17.4449 25.5646 17.4568 25.5646 17.4968Z" fill="var(--fill-0, black)" fill-opacity="0.64"/>
</g>
</svg>
