<svg preserveAspectRatio="none" width="100%" height="100%" overflow="visible" style="display: block;" viewBox="0 0 75 40" fill="none" xmlns="http://www.w3.org/2000/svg">
<g id="Cisco">
<path id="Vector" d="M21.2912 26.1777H24.6153V39.1625H21.2912V26.1777ZM51.0004 29.9173C50.8965 29.8135 49.8577 29.1902 48.1957 29.1902C46.1181 29.1902 44.5599 30.6445 44.5599 32.6182C44.5599 34.5919 46.0142 36.0462 48.1957 36.0462C49.7539 36.0462 50.7927 35.4229 51.0004 35.319V38.8509C50.5849 38.9548 49.4422 39.2664 47.9879 39.2664C44.2483 39.2664 41.0281 36.7733 41.0281 32.5143C41.0281 28.6708 43.9367 25.7622 47.9879 25.7622C49.5461 25.7622 50.6888 26.1777 51.0004 26.1777V29.9173ZM16.7205 29.9173C16.6166 29.8135 15.5778 29.1902 13.9158 29.1902C11.8382 29.1902 10.28 30.6445 10.28 32.6182C10.28 34.5919 11.7343 36.0462 13.9158 36.0462C15.474 36.0462 16.5127 35.4229 16.7205 35.319V38.8509C16.305 38.9548 15.1623 39.2664 13.708 39.2664C10.0723 39.2664 6.74816 36.7733 6.74816 32.5143C6.74816 28.6708 9.65676 25.7622 13.708 25.7622C15.2662 25.7622 16.4089 26.1777 16.7205 26.1777V29.9173ZM68.1404 32.7221C68.1404 36.4617 65.2318 39.4742 61.2844 39.4742C57.337 39.4742 54.4284 36.4617 54.4284 32.7221C54.4284 28.9824 57.337 25.97 61.2844 25.97C65.3357 25.97 68.1404 28.9824 68.1404 32.7221ZM61.2844 29.2941C59.3107 29.2941 57.8564 30.8522 57.8564 32.7221C57.8564 34.5919 59.3107 36.1501 61.2844 36.1501C63.2581 36.1501 64.7124 34.5919 64.7124 32.7221C64.7124 30.8522 63.2581 29.2941 61.2844 29.2941ZM36.9768 29.1902C36.9768 29.1902 35.5225 28.7747 34.3799 28.7747C33.0294 28.7747 32.3023 29.1902 32.3023 29.8135C32.3023 30.6445 33.2372 30.8522 33.7566 31.06L34.6915 31.3716C36.7691 32.0988 37.8078 33.5531 37.8078 35.1113C37.8078 38.3315 34.8992 39.4742 32.4062 39.4742C30.6402 39.4742 28.9782 39.1625 28.8743 39.1625V36.1501C29.1859 36.2539 30.5363 36.6694 31.9906 36.6694C33.6527 36.6694 34.3799 36.1501 34.3799 35.4229C34.3799 34.7996 33.7566 34.3841 32.9256 34.1764C32.7178 34.0725 32.4062 33.9686 32.1984 33.9686C30.3286 33.3453 28.8743 32.3065 28.8743 30.1251C28.8743 27.7359 30.7441 26.0738 33.7566 26.0738C35.3148 26.0738 36.8729 26.4894 36.9768 26.4894V29.1902Z" fill="var(--fill-0, black)" fill-opacity="0.64"/>
<path id="Vector_2" d="M3.32422 12.258C3.32701 12.0389 3.28593 11.8215 3.20339 11.6186C3.12085 11.4157 2.99853 11.2314 2.84363 11.0765C2.68874 10.9216 2.5044 10.7993 2.30149 10.7167C2.09858 10.6342 1.8812 10.5931 1.66216 10.5959C1.44313 10.5931 1.22575 10.6342 1.02283 10.7167C0.819924 10.7993 0.635589 10.9216 0.480693 11.0765C0.325798 11.2314 0.203476 11.4157 0.120938 11.6186C0.0384001 11.8215 -0.00268441 12.0389 0.000106217 12.258V15.686C-0.00268441 15.905 0.0384001 16.1224 0.120938 16.3253C0.203476 16.5282 0.325798 16.7125 0.480693 16.8674C0.635589 17.0223 0.819924 17.1446 1.02283 17.2272C1.22575 17.3097 1.44313 17.3508 1.66216 17.348C1.8812 17.3508 2.09858 17.3097 2.30149 17.2272C2.5044 17.1446 2.68874 17.0223 2.84363 16.8674C2.99853 16.7125 3.12085 16.5282 3.20339 16.3253C3.28593 16.1224 3.32701 15.905 3.32422 15.686V12.258Z" fill="var(--fill-0, black)" fill-opacity="0.64"/>
<path id="Vector_3" d="M12.2551 7.79102C12.2579 7.57198 12.2169 7.3546 12.1343 7.15169C12.0518 6.94878 11.9295 6.76445 11.7746 6.60955C11.6197 6.45466 11.4353 6.33233 11.2324 6.2498C11.0295 6.16726 10.8121 6.12617 10.5931 6.12896C9.65818 6.12896 9.03491 6.85611 9.03491 7.79102V15.6858C9.03212 15.9048 9.0732 16.1222 9.15574 16.3251C9.23828 16.528 9.3606 16.7124 9.5155 16.8673C9.67039 17.0222 9.85473 17.1445 10.0576 17.227C10.2605 17.3096 10.4779 17.3506 10.697 17.3478C10.916 17.3506 11.1334 17.3096 11.3363 17.227C11.5392 17.1445 11.7235 17.0222 11.8784 16.8673C12.0333 16.7124 12.1557 16.528 12.2382 16.3251C12.3207 16.1222 12.3618 15.9048 12.359 15.6858V7.79102H12.2551ZM21.2926 1.66219C21.2954 1.44315 21.2543 1.22577 21.1717 1.02286C21.0892 0.819948 20.9669 0.635612 20.812 0.480717C20.6571 0.325821 20.4728 0.2035 20.2698 0.120962C20.0669 0.0384235 19.8496 -0.00266091 19.6305 0.000129722C19.4115 -0.00266091 19.1941 0.0384235 18.9912 0.120962C18.7883 0.2035 18.6039 0.325821 18.4491 0.480717C18.2942 0.635612 18.1718 0.819948 18.0893 1.02286C18.0068 1.22577 17.9657 1.44315 17.9685 1.66219V18.906C17.9657 19.1251 18.0068 19.3424 18.0893 19.5454C18.1718 19.7483 18.2942 19.9326 18.4491 20.0875C18.6039 20.2424 18.7883 20.3647 18.9912 20.4473C19.1941 20.5298 19.4115 20.5709 19.6305 20.5681C19.8496 20.5709 20.0669 20.5298 20.2698 20.4473C20.4728 20.3647 20.6571 20.2424 20.812 20.0875C20.9669 19.9326 21.0892 19.7483 21.1717 19.5454C21.2543 19.3424 21.2954 19.1251 21.2926 18.906V1.66219ZM30.2261 7.79102C30.2289 7.57198 30.1878 7.3546 30.1053 7.15169C30.0228 6.94878 29.9004 6.76445 29.7455 6.60955C29.5907 6.45466 29.4063 6.33233 29.2034 6.2498C29.0005 6.16726 28.7831 6.12617 28.5641 6.12896C28.345 6.12617 28.1277 6.16726 27.9247 6.2498C27.7218 6.33233 27.5375 6.45466 27.3826 6.60955C27.2277 6.76445 27.1054 6.94878 27.0229 7.15169C26.9403 7.3546 26.8992 7.57198 26.902 7.79102V15.6858C26.8992 15.9048 26.9403 16.1222 27.0229 16.3251C27.1054 16.528 27.2277 16.7124 27.3826 16.8673C27.5375 17.0222 27.7218 17.1445 27.9247 17.227C28.1277 17.3096 28.345 17.3506 28.5641 17.3478C28.7831 17.3506 29.0005 17.3096 29.2034 17.227C29.4063 17.1445 29.5907 17.0222 29.7455 16.8673C29.9004 16.7124 30.0228 16.528 30.1053 16.3251C30.1878 16.1222 30.2289 15.9048 30.2261 15.6858V7.79102Z" fill="var(--fill-0, black)" fill-opacity="0.64"/>
<path id="Vector_4" d="M39.1624 12.258C39.1652 12.0389 39.1241 11.8215 39.0416 11.6186C38.9591 11.4157 38.8367 11.2314 38.6818 11.0765C38.5269 10.9216 38.3426 10.7993 38.1397 10.7167C37.9368 10.6342 37.7194 10.5931 37.5004 10.5959C37.2813 10.5931 37.064 10.6342 36.861 10.7167C36.6581 10.7993 36.4738 10.9216 36.3189 11.0765C36.164 11.2314 36.0417 11.4157 35.9591 11.6186C35.8766 11.8215 35.8355 12.0389 35.8383 12.258V15.686C35.8355 15.905 35.8766 16.1224 35.9591 16.3253C36.0417 16.5282 36.164 16.7125 36.3189 16.8674C36.4738 17.0223 36.6581 17.1446 36.861 17.2272C37.064 17.3097 37.2813 17.3508 37.5004 17.348C37.7194 17.3508 37.9368 17.3097 38.1397 17.2272C38.3426 17.1446 38.5269 17.0223 38.6818 16.8674C38.8367 16.7125 38.9591 16.5282 39.0416 16.3253C39.1241 16.1224 39.1652 15.905 39.1624 15.686V12.258Z" fill="var(--fill-0, black)" fill-opacity="0.64"/>
<path id="Vector_5" d="M48.0951 7.79089C48.0951 7.35008 47.92 6.92733 47.6083 6.61564C47.2966 6.30394 46.8739 6.12883 46.4331 6.12883C45.9923 6.12883 45.5695 6.30394 45.2578 6.61564C44.9461 6.92733 44.771 7.35008 44.771 7.79089V15.6857C44.771 16.1265 44.9461 16.5492 45.2578 16.8609C45.5695 17.1726 45.9923 17.3477 46.4331 17.3477C46.8739 17.3477 47.2966 17.1726 47.6083 16.8609C47.92 16.5492 48.0951 16.1265 48.0951 15.6857V7.79089ZM57.0287 1.66205C57.0287 1.22125 56.8536 0.798498 56.5419 0.486802C56.2302 0.175106 55.8075 -3.47715e-06 55.3666 -3.47715e-06C54.9258 -3.47715e-06 54.5031 0.175106 54.1914 0.486802C53.8797 0.798498 53.7046 1.22125 53.7046 1.66205V18.9059C53.7046 19.3467 53.8797 19.7694 54.1914 20.0811C54.5031 20.3928 54.9258 20.5679 55.3666 20.5679C55.8075 20.5679 56.2302 20.3928 56.5419 20.0811C56.8536 19.7694 57.0287 19.3467 57.0287 18.9059V1.66205ZM65.9623 7.79089C65.9623 7.57262 65.9193 7.3565 65.8357 7.15485C65.7522 6.9532 65.6298 6.76997 65.4755 6.61564C65.3211 6.4613 65.1379 6.33887 64.9362 6.25535C64.7346 6.17182 64.5185 6.12883 64.3002 6.12883C64.0819 6.12883 63.8658 6.17182 63.6642 6.25535C63.4625 6.33887 63.2793 6.4613 63.1249 6.61564C62.9706 6.76997 62.8482 6.9532 62.7647 7.15485C62.6811 7.3565 62.6381 7.57262 62.6381 7.79089V15.6857C62.6381 15.9039 62.6811 16.12 62.7647 16.3217C62.8482 16.5233 62.9706 16.7066 63.1249 16.8609C63.2793 17.0152 63.4625 17.1377 63.6642 17.2212C63.8658 17.3047 64.0819 17.3477 64.3002 17.3477C64.5185 17.3477 64.7346 17.3047 64.9362 17.2212C65.1379 17.1377 65.3211 17.0152 65.4755 16.8609C65.6298 16.7066 65.7522 16.5233 65.8357 16.3217C65.9193 16.12 65.9623 15.9039 65.9623 15.6857V7.79089ZM74.8958 12.2577C74.8958 11.8169 74.7207 11.3941 74.409 11.0824C74.0973 10.7707 73.6746 10.5956 73.2338 10.5956C72.793 10.5956 72.3702 10.7707 72.0585 11.0824C71.7468 11.3941 71.5717 11.8169 71.5717 12.2577V15.6857C71.5717 16.1265 71.7468 16.5492 72.0585 16.8609C72.3702 17.1726 72.793 17.3477 73.2338 17.3477C73.6746 17.3477 74.0973 17.1726 74.409 16.8609C74.7207 16.5492 74.8958 16.1265 74.8958 15.6857V12.2577Z" fill="var(--fill-0, black)" fill-opacity="0.64"/>
</g>
</svg>
