<svg preserveAspectRatio="none" width="100%" height="100%" overflow="visible" style="display: block;" viewBox="0 0 150 20" fill="none" xmlns="http://www.w3.org/2000/svg">
<g id="Dell" clip-path="url(#clip0_0_134)">
<path id="Vector" d="M58.3084 1.79109V1.18957L58.0491 1.01534H47.7154L47.5432 1.1875V1.79109L47.7154 1.96325H52.1065L52.2786 2.13541V14.7093L52.4508 14.8814H53.2265L53.3987 14.7093V2.22253L53.5709 2.0483H58.0512L58.3084 1.79109ZM60.6356 4.807C57.879 4.807 56.2383 6.78579 56.2383 9.62746V10.061C56.2383 12.8176 57.6176 15.2258 60.8057 15.2258C63.5623 15.2258 64.5953 13.417 64.7674 12.2119L64.5974 12.0418H63.8195L63.6494 12.2119C63.218 13.417 62.4402 14.1928 60.8907 14.1928C58.3063 14.1928 57.5305 11.7805 57.5305 10.5754L57.7068 10.4053H64.8525L65.0267 10.2311V9.62746C65.0267 6.78579 63.4773 4.807 60.6356 4.807ZM60.6356 5.83995C61.8407 5.83995 62.6352 6.33569 63.1309 7.00151C63.6266 7.66941 63.8195 8.50946 63.8195 9.1981L63.6494 9.37233H57.6218L57.4476 9.1981C57.4476 8.50946 57.6405 7.66941 58.1362 7.00151C58.6299 6.33569 59.4284 5.83995 60.6356 5.83995ZM67.0076 9.97386C67.0076 7.21516 68.3849 5.75284 70.3678 5.75284C72.3466 5.75284 73.1224 6.95795 73.3796 8.16514L73.5517 8.3373H74.4146L74.5868 8.16514C74.4146 6.18427 72.7781 4.80492 70.3657 4.80492C67.7813 4.80492 65.8025 6.44355 65.8025 9.97386C65.8025 13.5913 67.7813 15.1407 70.3657 15.1407C72.7781 15.1407 74.3275 13.7634 74.5868 11.7805L74.4146 11.6104H73.6388L73.4667 11.7826C73.2945 12.9856 72.4337 14.1928 70.4529 14.1928C68.472 14.1928 67.0076 12.8155 67.0076 9.97386ZM84.2318 14.7964V8.76666C84.2318 6.18427 82.8546 4.80492 80.6144 4.80492C79.2371 4.80492 78.032 5.40644 77.4284 6.44355H77.2563V1.27254L76.997 1.01326H76.2233L76.0512 1.18542V14.7922L76.2233 14.9665H76.997L77.1692 14.7943V9.36819C77.1692 7.12804 78.2042 5.75076 80.3572 5.75076C81.9938 5.75076 82.9396 6.78372 82.9396 8.76459V14.7943L83.1118 14.9665H83.8875L84.2318 14.7964ZM94.3955 14.7964V8.76666C94.3955 6.18427 93.0182 4.80492 90.7781 4.80492C89.4008 4.80492 88.1936 5.40644 87.5921 6.44355H87.4199L87.2477 5.23636L87.0756 5.0642H86.472L86.2998 5.23636V14.7964L86.472 14.9686H87.2477L87.4199 14.7964V9.36819C87.4199 7.12804 88.4529 5.75076 90.6059 5.75076C92.2424 5.75076 93.1904 6.78372 93.1904 8.76459V14.7943L93.3625 14.9665H94.2233L94.3955 14.7964ZM100.166 4.89204C97.5835 4.89204 95.6027 6.70283 95.6027 10.061C95.6027 13.4212 97.5835 15.2258 100.166 15.2258C102.748 15.2258 104.733 13.4212 104.733 10.061C104.733 6.70075 102.75 4.89204 100.166 4.89204ZM100.166 5.83995C101.157 5.83995 101.997 6.25065 102.589 6.98077C103.182 7.71504 103.524 8.76874 103.524 10.061C103.524 11.3532 103.182 12.4069 102.591 13.1391C101.997 13.8713 101.157 14.2799 100.166 14.2799C99.7017 14.2882 99.2417 14.1897 98.8217 13.9918C98.4016 13.794 98.0326 13.5023 97.7433 13.1391C97.1521 12.409 96.8099 11.3532 96.8099 10.061C96.8099 8.72518 97.1521 7.67148 97.7433 6.94966C98.3365 6.22783 99.1745 5.83995 100.166 5.83995ZM107.401 14.7964V1.18957L107.142 1.01534H106.368L106.194 1.1875V14.7964L106.368 14.9686H107.142L107.401 14.7964ZM113.345 4.89204C110.761 4.89204 108.78 6.70283 108.78 10.061C108.78 13.4212 110.761 15.2258 113.343 15.2258C115.926 15.2258 117.907 13.4212 117.907 10.061C117.907 6.70075 115.93 4.89204 113.345 4.89204ZM113.345 5.83995C114.335 5.83995 115.171 6.25065 115.764 6.98077C116.355 7.71504 116.704 8.76874 116.704 10.061C116.704 11.3532 116.355 12.4069 115.764 13.1391C115.476 13.5023 115.107 13.7941 114.688 13.992C114.269 14.1898 113.809 14.2884 113.345 14.2799C112.881 14.2882 112.421 14.1897 112.001 13.9918C111.581 13.794 111.212 13.5023 110.923 13.1391C110.327 12.4069 109.979 11.3532 109.979 10.061C109.979 8.72518 110.325 7.67148 110.919 6.94966C111.51 6.22783 112.35 5.83995 113.341 5.83995H113.345ZM123.161 4.807C120.404 4.807 118.94 7.043 118.94 9.97178C118.94 12.9856 120.319 15.1407 123.161 15.1407C124.969 15.1407 125.919 14.365 126.349 13.5042V13.5892C126.349 16.1737 125.747 18.1545 123.335 18.1545C121.526 18.1545 120.923 17.3829 120.75 16.35L120.576 16.1737H119.802L119.628 16.3479C119.8 17.9865 121.01 19.1025 123.42 19.1025C126.004 19.1025 127.641 17.4659 127.641 13.5042V5.23636L127.467 5.06627H126.865L126.693 5.23636L126.519 6.44355H126.349C125.919 5.66779 124.969 4.80492 123.161 4.80492V4.807ZM123.161 5.75491C124.152 5.75491 124.949 6.09508 125.498 6.79616C126.048 7.49517 126.349 8.55095 126.349 9.97178C126.349 11.3926 126.048 12.4484 125.498 13.1474C124.949 13.8485 124.15 14.1928 123.161 14.1928C122.171 14.1928 121.373 13.8485 120.823 13.1474C120.273 12.4484 119.977 11.3926 119.977 9.97178C119.977 8.59451 120.273 7.53873 120.823 6.82728C121.373 6.1179 122.171 5.75491 123.161 5.75491ZM130.74 3.25549V2.05037L130.568 1.87821H129.794L129.535 2.05037V3.25549L129.707 3.42765H130.483L130.74 3.25549ZM130.74 14.7964V5.23636L130.568 5.0642H129.794L129.535 5.23636V14.7964L129.707 14.9686H130.483L130.74 14.7964ZM136.51 4.807C133.754 4.807 132.119 6.78579 132.119 9.62746V10.063C132.119 12.8176 133.496 15.2278 136.682 15.2278C139.441 15.2278 140.474 13.417 140.646 12.2119L140.472 12.0418H139.698L139.524 12.2119C139.093 13.417 138.321 14.1928 136.77 14.1928C134.185 14.1928 133.409 11.7805 133.409 10.5754L133.586 10.4053H140.731L140.906 10.2311V9.62954C140.906 6.87084 139.267 4.807 136.51 4.807ZM136.51 5.83995C137.715 5.83995 138.514 6.33569 139.01 7.00151C139.505 7.66941 139.698 8.50946 139.698 9.20017L139.524 9.37233H133.496L133.326 9.1981C133.326 8.50946 133.519 7.66941 134.015 7.00151C134.511 6.33569 135.305 5.83995 136.51 5.83995ZM149.343 12.3841C149.343 10.5754 148.31 9.8017 146.33 9.37026C144.349 8.93882 143.144 8.76874 143.144 7.38939C143.144 6.35643 143.917 5.75284 145.384 5.75284C147.19 5.75284 147.794 6.52859 147.794 7.56155L147.966 7.73371H148.742L148.914 7.56155C148.914 5.58068 147.275 4.80492 145.297 4.80492C143.056 4.80492 141.936 6.01211 141.936 7.38939C141.936 9.02594 143.144 9.8017 145.124 10.146C147.105 10.5754 148.138 10.7475 148.138 12.3862C148.138 13.4191 147.537 14.1928 145.554 14.1928C143.745 14.1928 142.971 13.1598 142.971 11.9527L142.797 11.7826H142.024L141.851 11.9547C141.851 13.7634 143.229 15.1407 145.641 15.1407C148.138 15.2278 149.343 14.0206 149.343 12.3841Z" fill="var(--fill-0, black)" fill-opacity="0.64"/>
<path id="Vector_2" d="M47.4559 12.0315V14.8814H38.4953V0.828642H41.7518V12.0294L47.4559 12.0315ZM20.3646 0.013477L12.4246 6.12618C11.6094 3.07086 8.96063 0.828642 5.70412 0.828642H3.90335e-05V14.8814H5.70412C8.96063 14.8814 11.8127 12.6413 12.4246 9.58596L20.3646 15.6966L28.3089 9.58596V14.8814H37.2695V12.0294H31.3683V0.828642H28.1056V6.12203L20.57 12.2368L18.9417 10.8097L22.6089 7.9577L26.4794 4.90239L24.2393 3.07294L16.7037 8.97407L15.0754 7.54909L22.6089 1.84501L20.3688 0.013477L20.3646 0.013477ZM3.05328 3.68068H5.4967C6.00488 3.68068 6.50477 3.79476 6.96317 4.00426C7.42157 4.21375 7.84263 4.52281 8.1994 4.90239C8.55616 5.28612 8.84655 5.74037 9.04982 6.25685C9.25309 6.77126 9.3651 7.34789 9.3651 7.9577C9.3651 8.51774 9.26554 9.06326 9.07886 9.56937C8.89011 10.0755 8.61631 10.5401 8.26992 10.9363C7.92767 11.3304 7.51698 11.6539 7.04821 11.88C6.58151 12.1061 6.05674 12.2327 5.4967 12.2327H3.05328V3.68068Z" fill="var(--fill-0, black)" fill-opacity="0.64"/>
</g>
<defs>
<clipPath id="clip0_0_134">
<rect width="149.343" height="19.1159" fill="white"/>
</clipPath>
</defs>
</svg>
