<svg preserveAspectRatio="none" width="100%" height="100%" overflow="visible" style="display: block;" viewBox="0 0 136 59" fill="none" xmlns="http://www.w3.org/2000/svg">
<g id="Group 91965" filter="url(#filter0_d_0_9)">
<path id="Vector" d="M45.9041 6.08306C45.942 6.11559 45.9799 6.14811 46.019 6.18162C46.1226 6.27129 46.2251 6.36203 46.3273 6.45331C46.3712 6.49238 46.4152 6.53145 46.4605 6.5717C46.8013 6.87887 47.1296 7.19724 47.4545 7.52107C47.4943 7.56064 47.5341 7.60021 47.5752 7.64097C47.8224 7.88889 48.0563 8.1447 48.2843 8.41033C48.3332 8.46577 48.3823 8.52114 48.4314 8.57644C48.8892 9.09755 49.303 9.64903 49.7124 10.2087C49.7405 10.2468 49.7686 10.2849 49.7975 10.3242C52.2625 13.6774 53.8549 17.7767 54.433 21.888C54.441 21.9446 54.449 22.0011 54.4572 22.0594C54.6036 23.1676 54.6514 24.2716 54.6479 25.3888C54.6478 25.4549 54.6477 25.521 54.6475 25.5891C54.6447 26.6078 54.6166 27.6058 54.4727 28.6152C54.4626 28.6885 54.4526 28.7617 54.4425 28.8349C54.1035 31.2678 53.4217 33.6235 52.4099 35.8615C52.3882 35.9098 52.3666 35.9581 52.3443 36.0079C51.1105 38.7431 49.302 41.2009 47.1862 43.3165C47.094 43.4088 47.0023 43.5015 46.9105 43.5942C46.5945 43.9117 46.2751 44.2112 45.9231 44.489C45.7999 44.5874 45.6832 44.6905 45.5669 44.797C45.2701 45.063 44.954 45.3027 44.6347 45.5408C44.6 45.5668 44.5653 45.5928 44.5295 45.6195C43.5377 46.359 42.4908 47.0061 41.4083 47.6036C41.3676 47.6262 41.327 47.6488 41.2851 47.6721C36.7497 50.1821 31.3992 51.0694 22.3161 49.6976C20.138 49.0665 18.0594 48.1518 16.1257 46.9689C16.0475 46.9217 15.9692 46.8745 15.891 46.8274C14.6419 46.0672 13.4769 45.1642 12.3974 44.1796C12.3241 44.1136 12.2505 44.0478 12.1755 43.9838C11.8813 43.7316 11.6059 43.4622 11.3327 43.1877C11.2564 43.1112 11.1799 43.0349 11.1033 42.9587C10.8268 42.6824 10.5608 42.4006 10.3075 42.1028C10.2573 42.0455 10.2071 41.9883 10.1567 41.9311C9.74405 41.458 9.3603 40.9663 8.98522 40.4631C8.95734 40.4261 8.92946 40.389 8.90074 40.3508C7.96085 39.0979 7.17725 37.7406 6.49517 36.3321C6.44639 36.2317 6.39672 36.1319 6.347 36.0319C5.16628 33.6266 4.47341 30.968 4.15879 28.3144C4.15438 28.2774 4.14998 28.2404 4.14544 28.2022C4.03458 27.2571 4.00065 26.3199 4.00011 25.369C4.00007 25.312 4.00004 25.2551 4 25.1965C4.00184 23.3404 4.20936 21.5233 4.60507 19.7095C4.61828 19.6488 4.6315 19.588 4.64511 19.5255C4.65774 19.4702 4.67036 19.4148 4.68337 19.3578C4.69443 19.3093 4.70549 19.2608 4.71688 19.2108C4.75383 19.0946 4.75383 19.0946 4.85961 18.9888C4.85641 19.0333 4.8532 19.0778 4.8499 19.1237C4.53456 23.6222 5.11463 28.0476 10.572 37.7656C10.7031 37.9157 10.8374 38.0627 10.9732 38.2086C11.0751 38.3193 11.1737 38.4316 11.2718 38.5456C11.4856 38.7907 11.7133 39.0205 11.9439 39.2499C11.9841 39.2903 12.0243 39.3307 12.0657 39.3723C12.3173 39.6235 12.5761 39.8621 12.8464 40.0929C12.8997 40.1393 12.9531 40.1857 13.0065 40.2321C14.061 41.1352 15.1928 41.9297 16.3902 42.6317C16.4452 42.6641 16.4452 42.6641 16.5013 42.6971C20.7539 45.1789 25.7796 46.0675 34.2654 44.7996C34.6924 44.686 35.1152 44.5608 35.5372 44.4301C35.5902 44.414 35.6432 44.398 35.6978 44.3814C38.0156 43.6749 40.1942 42.5075 42.043 40.9392C42.0942 40.8977 42.1454 40.8562 42.1981 40.8135C42.6343 40.4562 43.0354 40.0639 43.4347 39.6664C43.4618 39.6396 43.4888 39.6128 43.5167 39.5852C43.8791 39.2257 44.2112 38.8536 44.5289 38.4532C44.5806 38.3911 44.6324 38.3292 44.6845 38.2675C45.4466 37.3508 46.0825 36.329 46.6446 35.2797C46.6708 35.2309 46.6969 35.1822 46.7239 35.1319C49.137 30.5838 49.6067 25.1886 47.9727 18.7519C47.122 16.0522 45.8151 13.4341 43.8673 11.3552C43.7566 11.2362 43.6495 11.1156 43.5438 10.9921C41.7368 8.91339 39.1211 7.43302 36.5422 6.55909C36.4605 6.5314 36.4605 6.5314 36.3772 6.50315C35.0181 6.04949 33.627 5.77369 32.205 5.60703C32.159 5.6015 32.113 5.59597 32.0656 5.59027C31.4812 5.53078 30.891 5.54123 30.3042 5.54092C30.2451 5.54088 30.1861 5.54084 30.1253 5.54081C29.2038 5.54169 28.3037 5.57022 27.3918 5.71282C27.333 5.72189 27.2742 5.73097 27.2136 5.74032C25.4476 6.0221 23.7109 6.51088 22.1025 7.29959C22.0511 7.32467 21.9996 7.34975 21.9466 7.37559C20.6777 7.99968 19.5129 8.75511 18.4765 9.719C18.3652 9.82176 18.2517 9.91967 18.1356 10.0169C16.6399 11.3276 15.5345 13.2796 15.015 15.1806C15.0021 15.2226 14.9892 15.2646 14.9759 15.3079C14.8753 15.6878 14.9543 15.9618 15.0877 16.3244C15.1072 16.3799 15.1268 16.4355 15.147 16.4928C15.3147 16.9572 15.5152 17.3945 15.7554 17.8252C15.7829 17.8753 15.7829 17.8753 15.8109 17.9264C16.0962 18.5363 16.0962 18.5363 16.5488 18.9888C16.5532 18.9553 16.5576 18.9217 16.5621 18.8872C16.6182 18.6568 16.715 18.4503 16.8133 18.2351C16.8346 18.1882 16.856 18.1413 16.878 18.093C17.4942 16.7544 18.2738 15.4257 19.2908 14.3502C19.3889 14.2457 19.4827 14.1391 19.5763 14.0306C20.0842 13.4481 20.6407 12.8979 21.2563 12.4302C21.3178 12.3818 21.3793 12.3333 21.4408 12.2849C24.4575 9.9357 28.5024 8.86751 32.2994 9.32231C34.9475 9.68548 37.4825 10.8163 39.1647 12.96C40.702 14.9917 41.4524 17.5104 41.1304 20.0512C40.7502 22.7078 39.0607 25.2818 36.9653 26.9227C36.9126 26.9651 36.8599 27.0075 36.8056 27.0512C33.5114 29.6776 29.1464 30.2916 25.0635 30.0187C25.0012 30.0146 24.939 30.0104 24.8749 30.0061C24.6899 29.99 24.5075 29.9655 24.324 29.9375C24.929 30.9595 25.6292 31.8362 26.5984 32.5293C26.6271 32.55 26.6559 32.5707 26.6855 32.592C28.8299 34.113 31.6215 34.4419 34.162 34.0102C36.419 33.5786 38.469 32.6243 40.1917 31.1012C40.2645 31.0382 40.2645 31.0382 40.3386 30.9739C40.613 30.7329 40.8598 30.4844 41.0909 30.202C41.1255 30.1605 41.1255 30.1605 41.1607 30.1181C41.8921 29.2381 42.5282 28.2598 42.9421 27.1871C43.2718 27.5168 43.1139 28.4381 43.1141 28.8927C43.1129 29.5869 43.084 30.2607 42.9421 30.9425C42.9316 30.9933 42.9211 31.0442 42.9103 31.0965C42.5915 32.5854 41.9811 34.0234 41.038 35.2268C41.0029 35.2729 40.9678 35.3191 40.9316 35.3667C40.35 36.1158 39.6753 36.8189 38.9223 37.3954C38.8891 37.4209 38.8558 37.4465 38.8215 37.4728C36.8072 39.0078 34.4781 39.8567 31.9934 40.2516C31.9492 40.2587 31.905 40.2658 31.8595 40.2731C28.4107 40.7956 24.6125 39.9284 21.8022 37.8637C21.429 37.5832 21.0737 37.2851 20.7273 36.9722C20.6954 36.9435 20.6634 36.9148 20.6305 36.8853C19.8868 36.2146 19.2137 35.4982 18.6116 34.6979C18.576 34.6513 18.576 34.6513 18.5396 34.6037C17.0213 32.6196 15.9033 30.1595 15.5862 27.6708C15.581 27.6305 15.5757 27.5902 15.5702 27.5487C15.5443 27.3494 15.5205 27.1502 15.5002 26.9503C15.4535 26.5415 15.3938 26.2693 15.068 25.9989C15.0156 25.9587 15.0156 25.9587 14.9621 25.9177C14.9147 25.8702 14.8674 25.8227 14.8187 25.7737C14.7388 25.6942 14.6581 25.6155 14.5765 25.5378C13.1877 24.1977 12.1871 22.3559 11.6298 20.5227C11.6158 20.4769 11.6018 20.431 11.5874 20.3838C10.7109 17.4688 10.8199 14.3695 11.7356 11.4781C11.7508 11.43 11.766 11.382 11.7816 11.3325C12.4256 9.34025 13.5232 7.48689 14.9092 5.92439C14.9324 5.89819 14.9556 5.872 14.9795 5.84502C15.5318 5.22464 16.107 4.64038 16.7604 4.12604C16.8202 4.07686 16.8799 4.02754 16.9395 3.97811C20.8832 0.727398 26.2243 -0.306102 45.9041 6.08306ZM25.5632 19.4978C25.4962 19.5624 25.4278 19.6257 25.3593 19.6888C24.4645 20.5344 23.7743 21.7625 23.4777 22.9557C23.4777 23.0256 23.4777 23.0954 23.4777 23.1673C24.5299 23.3504 24.5299 23.3504 25.5934 23.4318C25.6617 23.4339 25.7299 23.436 25.8003 23.4382C27.8526 23.4814 30.1716 23.0396 31.7818 21.6863C31.8343 21.6424 31.8867 21.5985 31.9407 21.5533C32.7798 20.8288 33.403 19.8408 33.5273 18.7243C33.5755 18.0425 33.5636 17.3735 33.3686 16.7144C30.5606 16.6241 27.6051 17.5178 25.5632 19.4978Z" fill="var(--fill-0, white)"/>
<path id="Vector_2" d="M45.9042 6.08309C45.9421 6.11561 45.9801 6.14814 46.0191 6.18164C46.1227 6.27132 46.2252 6.36206 46.3274 6.45334C46.3714 6.49241 46.4153 6.53147 46.4606 6.57173C46.8014 6.87889 47.1297 7.19727 47.4546 7.5211C47.4945 7.56067 47.5343 7.60024 47.5753 7.641C47.8225 7.88891 48.0564 8.14473 48.2844 8.41036C48.3334 8.4658 48.3824 8.52117 48.4315 8.57647C48.8894 9.09758 49.3032 9.64905 49.7125 10.2087C49.7406 10.2468 49.7687 10.2849 49.7976 10.3242C52.2626 13.6774 53.855 17.7768 54.4331 21.888C54.4411 21.9446 54.4491 22.0012 54.4574 22.0595C54.6037 23.1677 54.6515 24.2717 54.648 25.3888C54.6479 25.4549 54.6478 25.5211 54.6477 25.5892C54.6449 26.6078 54.6167 27.6058 54.4728 28.6153C54.4628 28.6885 54.4527 28.7617 54.4427 28.835C54.1036 31.2678 53.4219 33.6235 52.41 35.8615C52.3884 35.9098 52.3667 35.9581 52.3444 36.0079C51.1107 38.7432 49.3022 41.2009 47.1863 43.3165C47.0941 43.4088 47.0024 43.5015 46.9106 43.5942C46.5947 43.9118 46.2752 44.2113 45.9232 44.489C45.8001 44.5875 45.6833 44.6906 45.5671 44.797C45.2702 45.063 44.9541 45.3028 44.6348 45.5408C44.6001 45.5668 44.5654 45.5928 44.5297 45.6196C43.5379 46.359 42.4909 47.0062 41.4084 47.6036C41.3678 47.6262 41.3271 47.6488 41.2853 47.6721C36.7498 50.1822 31.3993 51.0694 22.3162 49.6977C20.1381 49.0665 18.0595 48.1518 16.1258 46.9689C16.0476 46.9217 15.9693 46.8746 15.8911 46.8274C14.6421 46.0672 13.477 45.1642 12.3975 44.1797C12.3243 44.1136 12.2507 44.0479 12.1757 43.9838C11.8814 43.7317 11.606 43.4622 11.3328 43.1877C11.2565 43.1112 11.18 43.0349 11.1034 42.9587C10.8269 42.6824 10.5609 42.4006 10.3077 42.1028C10.2575 42.0455 10.2072 41.9883 10.1568 41.9311C9.74417 41.4581 9.36042 40.9664 8.98534 40.4632C8.95746 40.4261 8.92959 40.389 8.90086 40.3508C7.96097 39.0979 7.17738 37.7406 6.49529 36.3321C6.44651 36.2318 6.39684 36.1319 6.34713 36.032C5.16641 33.6267 4.47353 30.968 4.15891 28.3144C4.1545 28.2774 4.1501 28.2404 4.14556 28.2022C4.0347 27.2571 4.00077 26.3199 4.00023 25.369C4.0002 25.3121 4.00016 25.2552 4.00012 25.1965C4.00196 23.3405 4.20948 21.5233 4.60519 19.7095C4.6184 19.6488 4.63162 19.5881 4.64523 19.5255C4.65786 19.4702 4.67049 19.4149 4.68349 19.3578C4.69455 19.3093 4.70561 19.2608 4.717 19.2109C4.75395 19.0946 4.75395 19.0946 4.85973 18.9888C4.82482 19.5823 4.78992 20.1757 4.75395 20.7872C4.71904 20.8046 4.68413 20.8221 4.64816 20.8401C4.62393 20.991 4.62393 20.991 4.61697 21.1766C4.61502 21.2118 4.61307 21.2469 4.61106 21.2831C4.5896 21.6942 4.57858 22.1057 4.56868 22.5172C4.56551 22.6487 4.56207 22.7803 4.5586 22.9119C4.5523 23.1557 4.54709 23.3995 4.54238 23.6434C4.54118 23.6992 4.53998 23.755 4.53875 23.8125C4.53313 24.2942 4.56902 24.7733 4.60519 25.2533C4.60864 25.2992 4.6121 25.3452 4.61565 25.3925C4.73874 26.9995 4.97329 28.5787 5.33577 30.1491C5.34366 30.1835 5.35156 30.2178 5.3597 30.2532C6.27201 34.2002 8.02575 37.9746 10.8076 40.9534C10.9341 41.089 11.0575 41.2268 11.1804 41.3656C11.5368 41.7622 11.9114 42.1415 12.3174 42.4875C12.4367 42.5904 12.5521 42.697 12.668 42.8036C12.9672 43.0736 13.2826 43.3201 13.6016 43.5659C13.6845 43.6303 13.7665 43.6958 13.8483 43.7615C14.8053 44.521 15.8554 45.1556 16.9192 45.7524C16.9587 45.7748 16.9983 45.7972 17.039 45.8202C20.426 47.7277 24.3692 48.6154 28.2316 48.6213C28.4339 48.6218 28.6361 48.6234 28.8384 48.6251C32.1113 48.6391 35.3645 47.827 38.3406 46.4929C38.3894 46.4711 38.4382 46.4493 38.4884 46.4268C39.2401 46.0877 39.957 45.6936 40.6679 45.2764C40.7113 45.2509 40.7548 45.2255 40.7996 45.1992C41.8606 44.5742 42.8444 43.8443 43.7885 43.0549C43.8161 43.0319 43.8437 43.0089 43.8721 42.9852C44.6645 42.3219 45.4535 41.6231 46.1266 40.8373C46.2308 40.717 46.3386 40.6002 46.4464 40.483C46.7126 40.1875 46.9568 39.8771 47.1993 39.5622C47.284 39.4522 47.3692 39.3427 47.4544 39.2332C47.7843 38.8076 48.1002 38.3785 48.3902 37.9243C48.4364 37.8536 48.4827 37.7828 48.529 37.7121C49.3577 36.4351 50.1369 35.0734 50.6427 33.6328C50.7031 33.4615 50.7732 33.2952 50.8443 33.1281C51.5221 31.5117 51.9317 29.7159 52.1455 27.9805C52.1513 27.9353 52.1571 27.89 52.163 27.8434C52.1971 27.5722 52.2282 27.3009 52.2513 27.0285C52.2582 26.951 52.2582 26.951 52.2651 26.8719C52.3165 26.212 52.3193 25.5513 52.3208 24.8896C52.321 24.7966 52.321 24.7966 52.3212 24.7017C52.3214 23.6965 52.2681 22.7301 52.0927 21.7392C52.0831 21.6837 52.0735 21.6281 52.0636 21.5709C52.0153 21.2956 51.9635 21.0213 51.9058 20.7478C51.8882 20.6628 51.8714 20.5776 51.8551 20.4923C51.8083 20.2476 51.7508 20.0181 51.6695 19.7822C51.6364 19.6435 51.6045 19.5049 51.5736 19.3657C51.097 17.2897 50.1483 15.2389 49.0249 13.4351C49 13.3946 48.975 13.3541 48.9493 13.3124C48.2319 12.1477 47.4279 11.0387 46.5038 10.0279C46.4356 9.95255 46.3678 9.87684 46.3016 9.79978C46.0449 9.50133 45.7727 9.22074 45.4943 8.94259C45.4473 8.89561 45.4003 8.84864 45.3519 8.80024C45.0797 8.53064 44.8075 8.27393 44.5047 8.03908C44.3775 7.9399 44.2558 7.83595 44.1343 7.73001C43.689 7.34368 43.2141 7.00162 42.7307 6.66491C42.6919 6.63782 42.6531 6.61074 42.6131 6.58283C41.9861 6.14818 41.3356 5.76379 40.6679 5.39549C40.6272 5.37273 40.5866 5.34998 40.5447 5.32653C38.2568 4.04952 35.6757 3.27469 33.0911 2.89632C33.0368 2.88833 32.9825 2.88033 32.9266 2.8721C31.895 2.73069 30.8622 2.67769 29.8216 2.68145C29.7375 2.68159 29.7375 2.68159 29.6517 2.68174C28.7133 2.68444 27.7932 2.72487 26.863 2.85665C26.7967 2.86601 26.7305 2.87537 26.6623 2.88501C24.7695 3.16131 22.887 3.64357 21.1633 4.49115C21.0398 4.55165 20.9155 4.60997 20.7909 4.66822C19.833 5.12347 18.9106 5.68325 18.0828 6.34755C18.0199 6.39542 18.0199 6.39542 17.9558 6.44425C17.3189 6.93555 16.7522 7.51451 16.182 8.07978C16.1357 8.1254 16.0894 8.17103 16.0417 8.21804C15.7467 8.51264 15.4798 8.81959 15.2266 9.15085C15.163 8.95999 15.1876 8.92513 15.2657 8.74589C15.287 8.69668 15.3083 8.64746 15.3302 8.59676C15.3539 8.54397 15.3775 8.49119 15.4019 8.4368C15.426 8.38228 15.4502 8.32775 15.4751 8.27158C16.1158 6.84498 16.9436 5.5713 18.0299 4.44343C18.0634 4.40855 18.0968 4.37368 18.1313 4.33774C18.6149 3.83589 19.1067 3.37361 19.6696 2.96244C19.7305 2.91705 19.7914 2.87167 19.8523 2.82628C20.2854 2.5069 20.7342 2.22068 21.2035 1.95748C21.2475 1.93278 21.2914 1.90809 21.3368 1.88264C22.3376 1.32683 23.3692 0.903768 24.4828 0.635172C24.6151 0.599006 24.7473 0.562639 24.8795 0.526082C25.4781 0.367566 26.0702 0.254411 26.6863 0.197958C26.9096 0.176494 27.1141 0.13497 27.3317 0.0775166C27.5564 0.0295113 27.7843 0.0249979 28.0134 0.0169925C28.0982 0.0139499 28.0982 0.0139499 28.1847 0.0108458C32.9885 -0.12605 37.9386 0.985194 45.9042 6.08309Z" fill="var(--fill-0, white)"/>
<path id="Vector_3" d="M124.662 10.3145C124.587 10.7796 124.475 11.2322 124.355 11.6876C124.334 11.767 124.313 11.8463 124.293 11.9256C124.248 12.0976 124.203 12.2696 124.158 12.4415C124.046 12.869 123.935 13.2966 123.824 13.7241C123.797 13.8268 123.77 13.9295 123.743 14.0322C123.34 15.5821 122.943 17.1336 122.545 18.6849C122.467 18.9884 122.389 19.2918 122.311 19.5952C122.296 19.654 122.281 19.7127 122.266 19.7732C122.082 20.4875 121.898 21.2016 121.712 21.9152C121.681 22.0374 121.649 22.1596 121.617 22.2817C121.597 22.3585 121.577 22.4353 121.557 22.5121C121.548 22.5487 121.538 22.5853 121.528 22.623C121.483 22.7986 121.437 22.9742 121.391 23.1497C121.342 23.3349 121.294 23.5201 121.246 23.7053C121.225 23.785 121.225 23.785 121.203 23.8664C121.191 23.9136 121.179 23.9609 121.166 24.0096C121.155 24.0504 121.145 24.0911 121.134 24.1331C121.126 24.1787 121.126 24.1787 121.118 24.2252C121.135 24.2426 121.153 24.2601 121.171 24.2781C121.19 24.2521 121.208 24.226 121.228 24.1992C121.644 23.6254 122.071 23.0641 122.524 22.518C122.63 22.3892 122.735 22.2591 122.84 22.1293C122.918 22.0344 122.997 21.9397 123.075 21.845C123.097 21.818 123.119 21.7909 123.142 21.763C124.355 20.2911 125.922 18.887 127.888 18.6186C128.75 18.5727 129.543 18.6542 130.232 19.2136C130.798 19.7549 131.006 20.3793 131.038 21.1493C131.049 21.6244 131 22.0702 130.885 22.5306C130.871 22.5861 130.857 22.6417 130.843 22.6989C130.64 23.5038 130.391 24.2962 130.146 25.0892C130.093 25.2606 130.041 25.4322 129.988 25.6038C129.937 25.7717 129.886 25.9395 129.834 26.1072C129.81 26.1861 129.786 26.2649 129.762 26.3438C129.631 26.7721 129.489 27.1928 129.325 27.6097C129.23 27.8545 129.15 28.1033 129.071 28.3533C129.054 28.4063 129.037 28.4594 129.019 28.514C128.965 28.6843 128.911 28.8547 128.857 29.0252C128.838 29.0834 128.82 29.1416 128.801 29.2016C128.707 29.4956 128.614 29.7898 128.521 30.0841C128.442 30.3345 128.362 30.5846 128.282 30.8345C128.23 30.9955 128.179 31.1569 128.128 31.3183C128.105 31.391 128.082 31.4636 128.058 31.5362C127.881 32.0359 127.881 32.0359 127.994 32.5293C128.102 32.6689 128.102 32.6689 128.258 32.7409C128.605 32.7539 128.808 32.5942 129.052 32.3706C129.642 31.7939 130.115 31.1258 130.586 30.451C130.61 30.4165 130.634 30.3821 130.659 30.3466C130.704 30.2828 130.748 30.2188 130.792 30.1544C130.938 29.9434 130.938 29.9434 131.115 29.8847C131.247 29.9587 131.37 30.0342 131.495 30.1194C131.529 30.1423 131.564 30.1653 131.6 30.1889C131.685 30.2457 131.77 30.3031 131.855 30.3607C131.608 30.9233 131.267 31.4028 130.903 31.8946C130.88 31.926 130.857 31.9575 130.833 31.9899C130.371 32.6116 129.875 33.2093 129.316 33.7458C129.252 33.8113 129.252 33.8113 129.187 33.878C129.143 33.9217 129.098 33.9653 129.052 34.0103C129.02 34.0417 128.989 34.0731 128.956 34.1055C128.124 34.8932 127.102 35.1812 125.977 35.1904C125.916 35.192 125.855 35.1935 125.791 35.1951C125.189 35.1995 124.629 35.0751 124.186 34.645C123.752 34.1676 123.594 33.6595 123.591 33.0285C123.589 32.9631 123.589 32.9631 123.587 32.8963C123.582 32.011 123.817 31.1366 124.034 30.2847C124.046 30.2341 124.059 30.1836 124.072 30.1315C124.307 29.2023 124.58 28.2937 124.898 27.3897C125.157 26.6548 125.406 25.9168 125.653 25.1778C125.7 25.0386 125.746 24.8995 125.793 24.7605C126.018 24.0919 126.242 23.4236 126.436 22.7454C126.449 22.7014 126.462 22.6574 126.475 22.6121C126.641 22.0525 126.641 22.0525 126.536 21.4979C126.339 21.3006 126.175 21.2754 125.905 21.2368C125.3 21.2565 124.801 21.6459 124.397 22.0566C124.338 22.1137 124.278 22.1708 124.219 22.2277C123.84 22.5925 123.502 22.9696 123.193 23.395C123.124 23.4894 123.055 23.5828 122.985 23.6762C122.668 24.1002 122.368 24.5335 122.079 24.9766C122.021 25.0661 121.961 25.1546 121.901 25.2431C120.064 27.9953 119.138 31.4657 118.249 34.6173C118.209 34.7508 118.209 34.7508 118.156 34.8566C116.725 34.8566 115.293 34.8566 113.819 34.8566C114.062 33.8237 114.062 33.8237 114.166 33.4411C114.178 33.3965 114.19 33.3519 114.203 33.306C114.242 33.1608 114.281 33.0157 114.321 32.8706C114.349 32.7657 114.377 32.6608 114.406 32.5559C114.482 32.2749 114.558 31.994 114.634 31.713C114.715 31.4157 114.795 31.1183 114.875 30.821C115.007 30.3351 115.138 29.8492 115.27 29.3634C115.439 28.7416 115.607 28.1198 115.775 27.4979C116.035 26.5346 116.296 25.5714 116.557 24.6082C116.652 24.2566 116.747 23.9049 116.843 23.5533C117.16 22.3805 117.478 21.2078 117.795 20.0352C117.952 19.4581 118.108 18.8809 118.264 18.3037C118.373 17.9 118.483 17.4963 118.592 17.0926C118.656 16.8572 118.72 16.6219 118.783 16.3865C118.842 16.1695 118.901 15.9526 118.96 15.7356C118.981 15.657 119.002 15.5783 119.023 15.4996C119.129 15.1071 119.241 14.7191 119.372 14.3343C119.48 13.8365 119.568 13.297 119.333 12.8269C119.027 12.4865 118.572 12.3783 118.126 12.3502C118.028 12.3464 117.93 12.3433 117.832 12.3409C117.781 12.3391 117.731 12.3373 117.679 12.3354C117.556 12.3311 117.433 12.3277 117.31 12.3244C117.31 11.9927 117.31 11.6611 117.31 11.3194C117.406 11.3109 117.503 11.3024 117.602 11.2937C118.602 11.2029 119.594 11.0818 120.587 10.9402C120.787 10.9118 120.987 10.8841 121.186 10.8565C122.073 10.7338 122.952 10.594 123.829 10.4134C123.892 10.4005 123.956 10.3875 124.021 10.3742C124.076 10.3627 124.131 10.3512 124.188 10.3393C124.348 10.3139 124.499 10.3101 124.662 10.3145Z" fill="var(--fill-0, white)"/>
<path id="Vector_4" d="M65.6862 18.6186C65.5683 19.072 65.4288 19.517 65.2835 19.9622C65.2596 20.0357 65.2358 20.1093 65.2119 20.1828C65.1615 20.3382 65.111 20.4936 65.0604 20.649C64.942 21.0128 64.824 21.3768 64.706 21.7407C64.6797 21.8217 64.6534 21.9027 64.6271 21.9838C64.3894 22.7169 64.1541 23.4509 63.9209 24.1855C63.9053 24.2349 63.8896 24.2842 63.8735 24.335C63.79 24.5981 63.7066 24.8612 63.6234 25.1244C63.7798 24.9302 63.9288 24.7326 64.073 24.5293C64.0958 24.4972 64.1187 24.4652 64.1423 24.4321C64.2657 24.2587 64.3882 24.0848 64.5098 23.9101C64.8763 23.3846 65.2588 22.8731 65.6492 22.3651C65.803 22.1649 65.9535 21.9627 66.1027 21.7591C66.296 21.5001 66.5067 21.2622 66.7269 21.0258C66.8299 20.9145 66.9279 20.8011 67.025 20.6847C67.961 19.6156 69.1687 18.7785 70.6052 18.6186C71.53 18.5703 72.3907 18.5766 73.1436 19.1789C73.6833 19.67 73.8062 20.3767 73.8486 21.0752C73.8869 22.194 73.58 23.2731 73.2597 24.3343C73.2281 24.4412 73.1965 24.5481 73.165 24.655C72.8433 25.742 72.4944 26.819 72.1273 27.8915C72.0481 28.1228 71.9694 28.3542 71.8906 28.5857C71.7678 28.9464 71.645 29.307 71.5215 29.6675C71.1934 30.6249 71.1934 30.6249 70.9126 31.5971C70.9016 31.638 70.8905 31.6789 70.8791 31.721C70.7996 32.0456 70.8157 32.3146 70.9225 32.6351C71.0756 32.7251 71.181 32.7409 71.3589 32.7409C72.4169 32.4587 73.1018 30.9523 73.673 30.0962C73.9522 30.2359 74.2315 30.3755 74.5192 30.5194C74.2175 31.2737 73.7123 32.0083 73.1969 32.6351C73.1748 32.6624 73.1526 32.6898 73.1298 32.718C72.1949 33.8682 71.1736 34.9162 69.6531 35.1739C69.4126 35.1932 69.1739 35.1991 68.9327 35.1975C68.8264 35.1971 68.7202 35.1986 68.6139 35.2003C67.9822 35.1999 67.5048 35.0735 67.0207 34.6595C66.4932 34.1218 66.4579 33.5094 66.4604 32.796C66.4761 31.8254 66.7267 30.9125 67.0003 29.9871C67.0566 29.7962 67.1111 29.6049 67.1654 29.4134C67.5864 27.9332 68.0723 26.4786 68.572 25.0233C68.7728 24.4373 68.9664 23.8492 69.1573 23.2599C69.1718 23.2152 69.1863 23.1706 69.2012 23.1246C69.2414 23.0008 69.2814 22.8771 69.3213 22.7533C69.3329 22.7175 69.3445 22.6817 69.3564 22.6449C69.5004 22.2014 69.5004 22.2014 69.4945 21.7392C69.3284 21.4725 69.1575 21.3572 68.8597 21.2632C68.2464 21.217 67.7225 21.7411 67.273 22.1095C67.2425 22.1345 67.2119 22.1595 67.1805 22.1852C66.9603 22.3669 66.7448 22.5533 66.5325 22.7442C66.5044 22.7694 66.4764 22.7946 66.4475 22.8206C63.4357 25.5718 62.264 31.0689 61.2432 34.8566C59.812 34.8566 58.3807 34.8566 56.9061 34.8566C57.0251 34.2612 57.0251 34.2612 57.0976 33.9883C57.114 33.9263 57.1304 33.8643 57.1473 33.8005C57.1651 33.7342 57.1828 33.6679 57.2011 33.5995C57.2203 33.5274 57.2395 33.4553 57.2586 33.3832C57.3107 33.1879 57.3629 32.9926 57.4153 32.7974C57.4484 32.6739 57.4815 32.5504 57.5146 32.4268C57.8716 31.094 58.2398 29.7645 58.6151 28.4367C58.6275 28.3931 58.6398 28.3495 58.6525 28.3046C58.9003 27.4282 59.1495 26.5523 59.4019 25.6772C59.6796 24.7144 59.9553 23.7519 60.2019 22.7806C60.2119 22.7419 60.2218 22.7033 60.2321 22.6636C60.4604 21.8874 60.4604 21.8874 60.3937 21.1045C60.2779 20.9253 60.1668 20.8204 59.9738 20.7343C59.7885 20.6961 59.6038 20.6831 59.4151 20.6715C59.317 20.6642 59.2189 20.6569 59.1207 20.6494C59.0776 20.6466 59.0345 20.6438 58.99 20.6409C58.8584 20.628 58.7283 20.6015 58.5986 20.5756C58.5986 20.2265 58.5986 19.8774 58.5986 19.5178C58.754 19.5088 58.9094 19.4998 59.0695 19.4905C61.1248 19.3683 63.1222 19.1355 65.1377 18.6992C65.2113 18.6833 65.2113 18.6833 65.2864 18.6671C65.3293 18.6577 65.3723 18.6483 65.4165 18.6387C65.5275 18.6186 65.5275 18.6186 65.6862 18.6186Z" fill="var(--fill-0, white)"/>
<path id="Vector_5" d="M113.182 19.3591C113.773 19.8636 114.281 20.528 114.399 21.3161C114.455 22.2084 114.361 22.9653 113.787 23.6797C113.454 24.0421 112.99 24.258 112.501 24.2925C111.74 24.3166 111.128 24.152 110.537 23.6434C110.258 23.3708 110.167 23.0173 110.114 22.6384C110.109 22.0288 110.308 21.5341 110.58 21.0023C110.714 20.7313 110.792 20.5093 110.802 20.2054C110.676 20.021 110.533 19.9591 110.326 19.888C109.641 19.807 109.089 20.0581 108.554 20.4645C106.167 22.4707 105.269 26.5307 104.999 29.4809C104.926 30.4206 105.072 31.4704 105.681 32.2219C106.155 32.7267 106.721 33.0015 107.417 33.0276C108.506 33.0367 109.311 32.5191 110.114 31.8417C110.159 31.8051 110.204 31.7686 110.25 31.731C110.858 31.2162 111.296 30.5295 111.754 29.8847C112.121 30.0779 112.472 30.2825 112.812 30.5194C111.771 32.4543 109.858 34.4699 107.734 35.121C106.312 35.501 104.628 35.5127 103.291 34.8566C103.217 34.8207 103.217 34.8207 103.142 34.784C102.786 34.6007 102.483 34.3769 102.18 34.1161C102.136 34.0784 102.091 34.0407 102.045 34.0018C101.101 33.1847 100.633 32.1183 100.488 30.8896C100.478 30.7003 100.474 30.511 100.472 30.3215C100.471 30.2668 100.47 30.2122 100.469 30.1559C100.443 27.9718 100.443 27.9718 100.805 26.9227C100.831 26.8387 100.856 26.7546 100.88 26.6704C101.4 24.9401 102.409 23.3919 103.609 22.0566C103.634 22.0278 103.66 21.999 103.686 21.9693C105.801 19.588 110.113 17.1002 113.182 19.3591Z" fill="var(--fill-0, white)"/>
<path id="Vector_6" d="M84.835 18.6186C84.8006 18.9574 84.7026 19.2664 84.5984 19.5897C84.5796 19.6488 84.5609 19.708 84.5415 19.7689C84.5009 19.8965 84.4603 20.024 84.4194 20.1515C84.3552 20.3523 84.2913 20.5532 84.2275 20.7542C84.1505 20.9967 84.0734 21.2392 83.9962 21.4816C83.7976 22.1051 83.6001 22.7289 83.4035 23.353C83.348 23.529 83.2922 23.705 83.2364 23.8809C83.2028 23.9878 83.1691 24.0947 83.1354 24.2016C83.1199 24.2503 83.1044 24.2989 83.0885 24.349C83.0746 24.3933 83.0607 24.4377 83.0463 24.4834C83.0342 24.5219 83.022 24.5604 83.0095 24.6C82.9773 24.7095 82.9773 24.7095 82.9838 24.8599C83.2039 24.4732 83.4234 24.0865 83.6286 23.6916C84.4007 22.2066 85.3043 20.7753 86.4747 19.5707C86.5169 19.527 86.5592 19.4834 86.6028 19.4384C87.1995 18.8612 87.9113 18.5952 88.733 18.5994C89.0434 18.607 89.2805 18.6557 89.5424 18.8302C89.5824 18.8559 89.6223 18.8816 89.6635 18.9081C90.1091 19.2232 90.4123 19.6318 90.5245 20.17C90.6321 21.0809 90.583 21.9813 90.0435 22.7541C89.6771 23.2093 89.1537 23.4811 88.5757 23.5525C88.0305 23.5755 87.6502 23.3821 87.2437 23.0306C87.0913 22.8857 86.956 22.7323 86.8209 22.5715C86.7007 22.4367 86.5839 22.3475 86.4218 22.2682C86.1102 22.2546 85.9026 22.4403 85.6813 22.6384C85.2764 23.0308 84.9755 23.487 84.6763 23.9607C84.6567 23.9913 84.6371 24.0219 84.6169 24.0534C84.275 24.5885 83.9959 25.1523 83.716 25.7217C83.6007 25.9555 83.4786 26.1832 83.3507 26.4103C82.4052 28.1546 81.9203 30.1749 81.3377 32.0601C81.1293 32.7344 80.9159 33.4068 80.6929 34.0764C80.6804 34.1139 80.668 34.1514 80.6551 34.1901C80.6207 34.2936 80.5861 34.397 80.5513 34.5004C80.532 34.5581 80.5126 34.6158 80.4926 34.6752C80.4449 34.8037 80.4449 34.8037 80.392 34.8566C80.2585 34.8616 80.1263 34.8632 79.9928 34.8626C79.9301 34.8626 79.9301 34.8626 79.8661 34.8626C79.7273 34.8626 79.5885 34.8621 79.4497 34.8617C79.3537 34.8616 79.2577 34.8616 79.1618 34.8615C78.9086 34.8613 78.6555 34.8608 78.4024 34.8602C78.1443 34.8597 77.8862 34.8594 77.6281 34.8591C77.1213 34.8586 76.6145 34.8577 76.1078 34.8566C76.1822 34.4373 76.2927 34.0328 76.4125 33.6245C76.4327 33.555 76.453 33.4854 76.4732 33.4159C76.5167 33.2662 76.5603 33.1166 76.6041 32.967C76.6744 32.7264 76.7444 32.4858 76.8143 32.2451C77.044 31.4549 77.275 30.6651 77.5073 29.8757C78.2388 27.3938 78.2388 27.3938 78.9144 24.8963C78.9358 24.8132 78.9358 24.8132 78.9577 24.7285C79.4053 23.1875 79.4053 23.1875 79.6152 21.6103C79.6172 21.5428 79.6191 21.4752 79.6212 21.4056C79.5943 21.1726 79.5449 21.0661 79.3871 20.893C79.2526 20.836 79.1582 20.8092 79.0168 20.7872C78.9694 20.7798 78.9219 20.7724 78.8731 20.7648C78.7107 20.7416 78.5482 20.721 78.3854 20.7012C78.3291 20.6941 78.2727 20.6871 78.2147 20.6797C78.0766 20.6624 77.9385 20.6454 77.8003 20.6285C77.8003 20.2794 77.8003 19.9303 77.8003 19.5707C78.3051 19.5213 78.8095 19.472 79.3152 19.4337C81.0292 19.302 82.7582 19.1223 84.4262 18.6935C84.7198 18.6186 84.7198 18.6186 84.835 18.6186Z" fill="var(--fill-0, white)"/>
<path id="Vector_7" d="M98.5871 18.6715C98.5694 18.7345 98.5517 18.7974 98.5335 18.8623C97.9441 20.9662 97.3723 23.0747 96.8037 25.1843C96.6488 25.7588 96.4931 26.3331 96.3369 26.9073C95.8099 28.8378 95.8099 28.8378 95.3309 30.7805C95.3213 30.8213 95.3117 30.862 95.3018 30.904C95.094 31.7374 95.094 31.7374 95.1491 32.5822C95.2178 32.6062 95.2874 32.6278 95.3573 32.6483C95.396 32.6606 95.4346 32.6728 95.4745 32.6855C95.8488 32.6917 96.151 32.4581 96.4143 32.2134C96.4484 32.1802 96.4825 32.147 96.5176 32.1128C96.5542 32.0777 96.5908 32.0427 96.6284 32.0065C97.1418 31.5045 97.5472 30.9285 97.954 30.3393C97.9791 30.3031 98.0042 30.2669 98.03 30.2295C98.0521 30.1974 98.0742 30.1653 98.0969 30.1322C98.1639 30.0433 98.1639 30.0433 98.3226 29.8847C98.5844 30.0418 98.8462 30.1989 99.116 30.3607C98.9358 30.6954 98.7411 31.0106 98.5243 31.3227C98.4942 31.3663 98.4641 31.4098 98.4331 31.4547C98.3437 31.5839 98.2539 31.7128 98.1639 31.8417C98.139 31.8776 98.114 31.9135 98.0883 31.9505C97.3795 32.9678 96.5535 34.014 95.4664 34.645C95.3905 34.69 95.3905 34.69 95.3131 34.7359C94.6389 35.1046 93.9919 35.1929 93.235 35.2004C93.1735 35.2013 93.1119 35.2023 93.0485 35.2033C92.4644 35.1991 91.8984 35.091 91.4464 34.6995C90.9297 34.1737 90.7434 33.582 90.7292 32.8566C90.7353 32.4664 90.7789 32.0964 90.8617 31.7155C90.873 31.6622 90.8844 31.6089 90.8961 31.554C91.0714 30.753 91.2838 29.9606 91.4921 29.1677C91.5374 28.9946 91.5823 28.8215 91.6273 28.6483C91.6714 28.4784 91.7158 28.3086 91.7602 28.1388C91.781 28.0592 91.8017 27.9796 91.8224 27.9C91.9359 27.4637 92.058 27.032 92.1948 26.6023C92.315 26.2227 92.4187 25.839 92.5214 25.4543C92.542 25.3777 92.5625 25.3011 92.5831 25.2245C92.6258 25.0657 92.6684 24.9068 92.7109 24.7478C92.7648 24.5462 92.8189 24.3446 92.8732 24.143C92.9156 23.9854 92.9578 23.8278 93.0001 23.6702C93.02 23.5959 93.0399 23.5216 93.0599 23.4473C93.4259 22.3376 93.4259 22.3376 93.3633 21.2045C93.1784 20.9093 92.9095 20.7985 92.5875 20.7147C92.193 20.6452 91.7935 20.6427 91.3937 20.6285C91.3937 20.2794 91.3937 19.9303 91.3937 19.5707C91.9355 19.5149 92.4748 19.465 93.0187 19.4361C93.7384 19.3977 94.4373 19.3342 95.1464 19.1973C95.3889 19.1505 95.6308 19.1176 95.8763 19.0913C96.6201 19.0096 97.3458 18.8886 98.0706 18.6999C98.115 18.6886 98.1595 18.6773 98.2052 18.6657C98.2446 18.6554 98.2839 18.645 98.3244 18.6343C98.4284 18.6186 98.4284 18.6186 98.5871 18.6715Z" fill="var(--fill-0, white)"/>
<path id="Vector_8" d="M95.9394 9.83842C96.1725 9.95716 96.3471 10.1198 96.5212 10.3144C96.5212 10.3494 96.5212 10.3843 96.5212 10.4202C96.5561 10.4028 96.591 10.3853 96.627 10.3673C96.7304 10.3595 96.8341 10.3556 96.9378 10.3541C96.9933 10.3528 97.0488 10.3514 97.1059 10.35C97.2779 10.3691 97.3476 10.4106 97.4733 10.526C97.458 10.5904 97.4427 10.6547 97.427 10.7211C97.4094 10.8364 97.4094 10.8364 97.4204 10.9492C97.534 11.0927 97.5773 11.1458 97.7378 11.2136C97.8617 11.2264 97.9775 11.2236 98.1018 11.2163C98.2484 11.2128 98.3504 11.2497 98.4782 11.3194C98.584 11.4252 98.584 11.4252 98.5962 11.5554C98.5955 11.6062 98.5947 11.6571 98.594 11.7095C98.5934 11.7854 98.5934 11.7854 98.5929 11.8628C98.584 12.007 98.584 12.007 98.5491 12.1136C98.5222 12.271 98.5856 12.3625 98.6568 12.5029C98.7567 12.7096 98.8297 12.8859 98.8485 13.1177C98.8965 13.1145 98.9445 13.1112 98.9939 13.1078C99.1812 13.1186 99.2425 13.1519 99.3774 13.2764C99.3374 13.6697 99.3374 13.6697 99.2617 13.845C99.2032 13.9636 99.2032 13.9636 99.2683 14.0731C99.2869 14.1069 99.3054 14.1408 99.3245 14.1756C99.3059 14.3337 99.2808 14.378 99.1658 14.4929C99.1135 14.4929 99.0611 14.4929 99.0072 14.4929C99.0064 14.5257 99.0057 14.5585 99.0049 14.5923C98.9761 15.1262 98.8165 15.6448 98.5642 16.1161C98.4654 16.276 98.4654 16.276 98.4942 16.4031C98.525 16.5085 98.525 16.5085 98.6138 16.5822C98.6898 16.6615 98.6898 16.6615 98.6898 16.8731C98.4941 16.9384 98.332 16.9227 98.1278 16.9124C97.9993 16.9157 97.9993 16.9157 97.9053 16.9971C97.828 17.086 97.828 17.086 97.8601 17.2235C97.8781 17.3119 97.8781 17.3119 97.8964 17.402C97.9016 17.5608 97.8996 17.7192 97.8964 17.8781C97.6181 17.912 97.4899 17.8361 97.2787 17.6715C97.2441 17.6428 97.2441 17.6428 97.2088 17.6136C97.1731 17.6353 97.1374 17.657 97.1006 17.6793C97.0534 17.7078 97.0062 17.7363 96.9576 17.7657C96.911 17.7939 96.8643 17.8221 96.8163 17.8512C96.6799 17.931 96.6799 17.931 96.5644 17.9845C96.4507 18.0382 96.4507 18.0382 96.346 18.1921C96.1993 18.374 96.0616 18.4482 95.8336 18.5128C95.4282 18.5231 95.4282 18.5231 95.2694 18.381C95.074 18.2546 94.8652 18.2635 94.6369 18.2483C94.0626 18.2023 94.0626 18.2023 93.8072 18.1095C93.523 18.0068 93.2385 18.032 92.9415 18.0467C92.7534 18.036 92.6876 18.0067 92.5543 17.8781C92.5718 17.7559 92.5892 17.6337 92.6072 17.5078C92.5428 17.5133 92.4785 17.5187 92.4122 17.5243C92.2327 17.5231 92.1882 17.5106 92.032 17.4053C91.9257 17.2522 91.9029 17.1958 91.8733 17.0219C91.8368 16.8127 91.7686 16.6862 91.6419 16.5161C91.1924 15.9111 90.9297 15.1961 90.9675 14.4401C90.9337 14.4334 90.8999 14.4267 90.865 14.4198C90.829 14.409 90.793 14.3983 90.756 14.3872C90.7189 14.3176 90.6837 14.2469 90.6502 14.1756C90.5426 14.0839 90.5426 14.0839 90.4386 14.0169C90.4307 13.6552 90.6108 13.4832 90.8498 13.2256C90.9675 13.1177 90.9675 13.1177 91.1262 13.0649C91.1327 13.0126 91.1327 13.0126 91.1394 12.9593C91.1925 12.7466 91.2893 12.5674 91.3907 12.3739C91.4294 12.2996 91.468 12.2252 91.5064 12.1506C91.5235 12.1179 91.5406 12.0853 91.5582 12.0516C91.6057 11.9465 91.6398 11.8571 91.6551 11.7425C91.6202 11.6902 91.5853 11.6378 91.5493 11.5839C91.5427 11.4417 91.5427 11.4417 91.5493 11.3194C91.7645 11.2165 91.9514 11.1516 92.1874 11.1144C92.4515 11.0678 92.5737 10.9731 92.7659 10.7905C92.8008 10.7905 92.8357 10.7905 92.8717 10.7905C92.8455 10.7381 92.8455 10.7381 92.8188 10.6847C92.8151 10.5944 92.8143 10.504 92.8155 10.4136C92.8159 10.3655 92.8164 10.3173 92.8169 10.2678C92.8175 10.2308 92.8181 10.1938 92.8188 10.1558C93.2284 10.1952 93.2284 10.1952 93.4006 10.3673C93.4006 10.4022 93.4006 10.4372 93.4006 10.4731C93.4347 10.4597 93.4689 10.4463 93.5041 10.4324C93.8976 10.2887 94.2762 10.215 94.6918 10.1672C94.9568 10.1325 95.1052 10.0821 95.3047 9.89131C95.501 9.79315 95.7251 9.81465 95.9394 9.83842ZM95.3708 9.99709C95.3141 10.032 95.2574 10.0669 95.1989 10.1029C95.1989 10.1378 95.1989 10.1727 95.1989 10.2087C95.2708 10.2183 95.2708 10.2183 95.3442 10.2281C95.7059 10.2778 96.0605 10.3346 96.4154 10.4202C96.2297 10.1798 96.074 9.99969 95.7807 9.89131C95.5762 9.89131 95.5327 9.8975 95.3708 9.99709ZM92.8717 10.2616C92.8891 10.4012 92.9066 10.5408 92.9245 10.6847C93.0816 10.6323 93.2387 10.58 93.4006 10.526C93.2267 10.372 93.1044 10.2882 92.8717 10.2616ZM96.627 10.4731C96.9342 10.7409 96.9342 10.7409 97.3146 10.8434C97.3506 10.7166 97.3506 10.7166 97.3675 10.5789C97.269 10.4572 97.269 10.4572 97.1125 10.4628C97.0549 10.464 96.9972 10.4652 96.9378 10.4665C96.8508 10.4679 96.8508 10.4679 96.7621 10.4694C96.7175 10.4706 96.673 10.4719 96.627 10.4731ZM91.6551 11.3723C91.6726 11.4596 91.69 11.5468 91.708 11.6368C91.7604 11.6542 91.8127 11.6717 91.8667 11.6897C91.9714 11.55 92.0762 11.4104 92.1841 11.2665C91.9753 11.257 91.8351 11.2616 91.6551 11.3723ZM97.9493 11.3194C97.9493 11.5328 98.0337 11.61 98.1609 11.7789C98.2002 11.8315 98.2394 11.884 98.2799 11.9382C98.3104 11.9784 98.341 12.0185 98.3725 12.0599C98.4074 12.0424 98.4423 12.025 98.4782 12.007C98.5301 11.7998 98.5516 11.6816 98.4617 11.4847C98.3816 11.3676 98.3816 11.3676 98.2667 11.3194C98.1609 11.3173 98.0551 11.3171 97.9493 11.3194ZM98.9014 13.2235C98.9162 13.3195 98.9318 13.4153 98.9477 13.5111C98.9563 13.5645 98.9648 13.6179 98.9737 13.6729C98.9903 13.7385 98.9903 13.7385 99.0072 13.8053C99.0421 13.8228 99.077 13.8403 99.113 13.8582C99.2428 13.6395 99.2428 13.6395 99.2584 13.3921C99.2291 13.279 99.2291 13.279 99.1658 13.2235C99.0777 13.2214 98.9895 13.2213 98.9014 13.2235ZM90.8832 13.3597C90.85 13.3966 90.8167 13.4335 90.7824 13.4715C90.7491 13.5077 90.7159 13.5439 90.6816 13.5812C90.589 13.7112 90.5642 13.8071 90.5444 13.964C90.6229 14.0164 90.6229 14.0164 90.7031 14.0698C90.7205 13.9825 90.738 13.8953 90.756 13.8053C90.8258 13.7879 90.8956 13.7704 90.9675 13.7525C90.985 13.5954 91.0024 13.4383 91.0204 13.2764C90.9541 13.2702 90.9541 13.2702 90.8832 13.3597ZM99.0601 14.0698C98.9915 14.1262 98.9915 14.1262 99.0039 14.2582C99.005 14.3008 99.006 14.3433 99.0072 14.3872C99.077 14.3523 99.1468 14.3173 99.2187 14.2814C99.2013 14.2116 99.1838 14.1417 99.1658 14.0698C99.1309 14.0698 99.096 14.0698 99.0601 14.0698ZM98.3196 16.5029C98.1782 16.6462 98.1782 16.6462 98.108 16.8202C98.2651 16.8202 98.4222 16.8202 98.584 16.8202C98.5571 16.6069 98.5571 16.6069 98.422 16.5425C98.3882 16.5294 98.3544 16.5163 98.3196 16.5029ZM92.0254 17.0318C92.0558 17.2397 92.0558 17.2397 92.1841 17.402C92.3207 17.4109 92.3207 17.4109 92.4485 17.402C92.3122 17.262 92.1885 17.1405 92.0254 17.0318ZM97.3675 17.4549C97.4275 17.629 97.4729 17.6663 97.6386 17.7591C97.6888 17.7809 97.7389 17.8027 97.7906 17.8252C97.8753 17.6135 97.8061 17.4525 97.7378 17.2434C97.572 17.2434 97.4902 17.3516 97.3675 17.4549ZM92.6601 17.6136C92.6801 17.7877 92.6801 17.7877 92.7659 17.931C92.9071 17.9384 93.0475 17.9332 93.189 17.931C93.189 17.896 93.189 17.8611 93.189 17.8252C93.1312 17.7903 93.0734 17.7554 93.0138 17.7194C92.9813 17.6997 92.9488 17.6801 92.9152 17.6599C92.8128 17.6022 92.8128 17.6022 92.6601 17.6136ZM95.6915 18.169C95.6544 18.1765 95.6172 18.1841 95.579 18.1919C95.4875 18.2106 95.3961 18.2294 95.3047 18.2483C95.4148 18.3442 95.4847 18.4034 95.6318 18.4202C95.8644 18.3944 95.9688 18.3737 96.1543 18.2186C96.1881 18.176 96.2219 18.1335 96.2568 18.0896C96.0621 18.0896 95.8811 18.1297 95.6915 18.169Z" fill="var(--fill-0, white)"/>
<path id="Vector_9" d="M111.439 37.2367C111.563 37.2909 111.563 37.2909 111.651 37.3425C111.668 37.3076 111.686 37.2727 111.704 37.2367C111.861 37.2367 112.018 37.2367 112.18 37.2367C112.184 37.5397 112.187 37.8428 112.189 38.1458C112.189 38.2488 112.19 38.3518 112.192 38.4548C112.194 38.6032 112.195 38.7516 112.195 38.8999C112.196 38.9457 112.197 38.9915 112.198 39.0387C112.198 39.3897 112.131 39.6102 111.879 39.8681C111.542 40.1239 111.193 40.1011 110.791 40.0656C110.652 40.0411 110.555 40.0044 110.434 39.9342C110.434 39.7946 110.434 39.655 110.434 39.5111C110.485 39.5285 110.535 39.546 110.586 39.564C110.889 39.6496 111.195 39.662 111.496 39.564C111.653 39.4018 111.64 39.2573 111.651 39.0351C111.626 39.0602 111.601 39.0852 111.575 39.1111C111.378 39.2314 111.193 39.2528 110.963 39.2466C110.687 39.165 110.539 39.0652 110.382 38.8235C110.265 38.4727 110.259 37.9647 110.415 37.6235C110.663 37.2288 111.002 37.1799 111.439 37.2367ZM110.858 37.8185C110.764 38.099 110.756 38.397 110.877 38.6681C110.999 38.8134 111.053 38.8217 111.244 38.8433C111.441 38.8367 111.441 38.8367 111.595 38.7342C111.766 38.4591 111.754 38.1865 111.704 37.8714C111.605 37.689 111.605 37.689 111.439 37.607C111.173 37.557 111.045 37.6306 110.858 37.8185Z" fill="var(--fill-0, white)"/>
<path id="Vector_10" d="M65.7388 37.2367C65.8958 37.2367 66.0529 37.2367 66.2148 37.2367C66.2322 37.2891 66.2497 37.3414 66.2677 37.3954C66.3004 37.3692 66.3331 37.343 66.3669 37.3161C66.5986 37.2048 66.8083 37.1903 67.0611 37.2367C67.1816 37.3139 67.2381 37.3847 67.3255 37.5012C67.367 37.4674 67.4084 37.4335 67.4511 37.3987C67.6355 37.2539 67.7232 37.2285 67.9536 37.2268C68.0222 37.2257 68.0222 37.2257 68.0921 37.2245C68.2403 37.2382 68.3159 37.2546 68.4363 37.3425C68.5788 37.579 68.6141 37.752 68.6104 38.0264C68.6097 38.1287 68.6097 38.1287 68.6089 38.233C68.6076 38.3042 68.6062 38.3754 68.6049 38.4466C68.6041 38.5191 68.6033 38.5915 68.6027 38.664C68.6008 38.8406 68.5982 39.0172 68.5949 39.1937C68.4379 39.1937 68.2808 39.1937 68.1189 39.1937C68.1173 39.1325 68.1173 39.1325 68.1157 39.07C68.1107 38.8853 68.1049 38.7007 68.0991 38.5161C68.0974 38.4518 68.0958 38.3875 68.0941 38.3213C68.0911 38.229 68.0911 38.229 68.0879 38.1349C68.0863 38.0781 68.0846 38.0213 68.0829 37.9628C68.0758 37.8071 68.0758 37.8071 67.9602 37.6599C67.8038 37.629 67.8038 37.629 67.6429 37.6599C67.4194 37.8602 67.4311 38.1573 67.4146 38.4396C67.4101 38.5301 67.4057 38.6206 67.4016 38.7111C67.3993 38.7576 67.397 38.8041 67.3946 38.852C67.3891 38.9659 67.3837 39.0798 67.3784 39.1937C67.2388 39.1937 67.0992 39.1937 66.9553 39.1937C66.9542 39.1583 66.9532 39.1228 66.9521 39.0863C66.9471 38.9248 66.9413 38.7634 66.9354 38.602C66.9338 38.5462 66.9322 38.4904 66.9305 38.4329C66.9284 38.3789 66.9264 38.3248 66.9243 38.2692C66.9218 38.1948 66.9218 38.1948 66.9193 38.1189C66.8995 37.9531 66.8656 37.7818 66.7437 37.6599C66.5593 37.6648 66.5593 37.6648 66.3735 37.7128C66.2587 37.8756 66.252 38.0272 66.2458 38.2227C66.2427 38.3076 66.2427 38.3076 66.2396 38.3942C66.2371 38.4823 66.2371 38.4823 66.2346 38.5723C66.2316 38.6616 66.2316 38.6616 66.2284 38.7528C66.2234 38.8998 66.2189 39.0468 66.2148 39.1937C66.0577 39.1937 65.9006 39.1937 65.7388 39.1937C65.7388 38.5479 65.7388 37.9021 65.7388 37.2367Z" fill="var(--fill-0, white)"/>
<path id="Vector_11" d="M57.3969 36.4911C57.5329 36.4928 57.6689 36.4945 57.8049 36.4962C58.024 37.0023 58.216 37.5171 58.4057 38.0346C58.4568 38.1741 58.5082 38.3134 58.5596 38.4527C58.5921 38.5413 58.6247 38.6298 58.6572 38.7183C58.6803 38.7809 58.6803 38.7809 58.7038 38.8447C58.8099 39.1347 58.8099 39.1347 58.8099 39.1937C58.6353 39.1937 58.4608 39.1937 58.281 39.1937C58.1501 38.8796 58.1501 38.8796 58.0165 38.559C57.6849 38.5416 57.3532 38.5241 57.0116 38.5061C56.9766 38.6632 56.9417 38.8203 56.9058 38.9822C56.8709 39.052 56.8359 39.1218 56.8 39.1937C56.6254 39.1937 56.4509 39.1937 56.2711 39.1937C56.3738 38.8408 56.4872 38.496 56.6169 38.1522C56.6342 38.1061 56.6514 38.06 56.6692 38.0126C56.7053 37.9163 56.7415 37.8201 56.7778 37.7239C56.8335 37.576 56.8889 37.428 56.9442 37.28C56.9794 37.1862 57.0147 37.0923 57.05 36.9985C57.0666 36.9542 57.0831 36.9098 57.1002 36.8641C57.2387 36.4978 57.2387 36.4978 57.3969 36.4911ZM57.4876 37.078C57.4344 37.2344 57.3816 37.3909 57.3289 37.5475C57.3138 37.592 57.2986 37.6365 57.283 37.6824C57.2687 37.725 57.2544 37.7676 57.2396 37.8115C57.2197 37.8705 57.2197 37.8705 57.1994 37.9307C57.1653 38.0298 57.1653 38.0298 57.1702 38.1359C57.4146 38.1359 57.659 38.1359 57.9107 38.1359C57.8605 37.9693 57.8098 37.803 57.7587 37.6367C57.7373 37.5655 57.7373 37.5655 57.7155 37.4928C57.7015 37.4476 57.6875 37.4025 57.6731 37.3559C57.654 37.2932 57.654 37.2932 57.6345 37.2292C57.6016 37.1207 57.6016 37.1207 57.4876 37.078Z" fill="var(--fill-0, white)"/>
<path id="Vector_12" d="M84.5707 36.3376C84.7278 36.3376 84.8849 36.3376 85.0468 36.3376C85.0468 37.2801 85.0468 38.2227 85.0468 39.1938C84.8897 39.1938 84.7326 39.1938 84.5707 39.1938C84.5533 39.1414 84.5358 39.089 84.5178 39.0351C84.4928 39.0602 84.4677 39.0853 84.4418 39.1111C84.2445 39.2314 84.0597 39.2528 83.8302 39.2466C83.5538 39.1651 83.4055 39.0652 83.2484 38.8235C83.1315 38.4727 83.1258 37.9647 83.2815 37.6235C83.4 37.4353 83.5175 37.327 83.7245 37.2367C84.0256 37.2026 84.2442 37.2057 84.5178 37.3425C84.5353 37.0109 84.5528 36.6793 84.5707 36.3376ZM83.7245 37.8186C83.6208 38.0258 83.6526 38.2797 83.6716 38.5062C83.7442 38.6711 83.7763 38.7436 83.936 38.8235C84.1528 38.8481 84.2709 38.8438 84.4616 38.7343C84.633 38.4591 84.6208 38.1865 84.5707 37.8714C84.4724 37.6891 84.4724 37.6891 84.3063 37.607C84.0388 37.5568 83.9153 37.6332 83.7245 37.8186Z" fill="var(--fill-0, white)"/>
<path id="Vector_13" d="M74.5715 36.4962C75.8567 36.4962 75.8567 36.4962 76.1748 36.754C76.3489 36.9734 76.3918 37.1677 76.3828 37.4491C76.3519 37.6983 76.2394 37.8431 76.0657 38.0168C75.7191 38.2568 75.4775 38.2416 75.0475 38.2416C75.0475 38.5558 75.0475 38.87 75.0475 39.1937C74.8904 39.1937 74.7333 39.1937 74.5715 39.1937C74.5715 38.3035 74.5715 37.4133 74.5715 36.4962ZM75.0475 36.9193C75.0475 37.2161 75.0475 37.5128 75.0475 37.8185C75.4456 37.8433 75.4456 37.8433 75.788 37.6598C75.873 37.4897 75.8649 37.3154 75.8409 37.1309C75.7806 36.9868 75.7806 36.9868 75.6293 36.9193C75.4318 36.9023 75.2465 36.9099 75.0475 36.9193Z" fill="var(--fill-0, white)"/>
<path id="Vector_14" d="M60.1835 36.4962C61.4869 36.4962 61.4869 36.4962 61.8199 36.7937C61.9757 37.0487 62.0156 37.269 61.9601 37.5635C61.8755 37.8321 61.7446 37.9797 61.5058 38.1359C61.199 38.2574 61.0114 38.2416 60.6595 38.2416C60.6595 38.5558 60.6595 38.87 60.6595 39.1937C60.5024 39.1937 60.3453 39.1937 60.1835 39.1937C60.1835 38.3035 60.1835 37.4133 60.1835 36.4962ZM60.6595 36.9193C60.6595 37.2161 60.6595 37.5128 60.6595 37.8185C61.0208 37.8416 61.0208 37.8416 61.3471 37.7127C61.4794 37.5143 61.4813 37.4187 61.4529 37.1838C61.3616 37.0175 61.3616 37.0175 61.1885 36.9193C61.0061 36.8976 60.8443 36.907 60.6595 36.9193Z" fill="var(--fill-0, white)"/>
<path id="Vector_15" d="M100.488 36.3376C100.645 36.3376 100.802 36.3376 100.964 36.3376C100.981 36.7041 100.999 37.0707 101.017 37.4483C101.104 37.3785 101.191 37.3087 101.281 37.2367C101.547 37.1848 101.787 37.1949 102.025 37.326C102.22 37.5586 102.246 37.7642 102.244 38.0626C102.243 38.1285 102.243 38.1945 102.243 38.2625C102.242 38.3309 102.241 38.3993 102.24 38.4698C102.239 38.5392 102.239 38.6087 102.238 38.6802C102.237 38.8514 102.235 39.0226 102.233 39.1938C102.076 39.1938 101.919 39.1938 101.757 39.1938C101.756 39.1548 101.756 39.1159 101.755 39.0757C101.751 38.8991 101.746 38.7225 101.741 38.5458C101.74 38.4845 101.738 38.4232 101.737 38.3601C101.734 38.2716 101.734 38.2716 101.731 38.1814C101.73 38.1271 101.729 38.0728 101.727 38.0168C101.702 37.855 101.654 37.7804 101.546 37.6599C101.365 37.661 101.365 37.661 101.175 37.7128C100.973 37.9932 100.988 38.2996 100.98 38.6318C100.979 38.6858 100.977 38.7399 100.975 38.7956C100.971 38.9283 100.967 39.061 100.964 39.1938C100.807 39.1938 100.65 39.1938 100.488 39.1938C100.488 38.2512 100.488 37.3087 100.488 36.3376Z" fill="var(--fill-0, white)"/>
<path id="Vector_16" d="M117.204 36.5491C117.204 36.7062 117.204 36.8633 117.204 37.0251C117.162 37.0077 117.121 36.9902 117.078 36.9722C116.838 36.906 116.605 36.8814 116.357 36.9193C116.237 36.9946 116.237 36.9946 116.146 37.078C116.142 37.2301 116.142 37.2301 116.199 37.3954C116.329 37.4818 116.441 37.5443 116.582 37.6069C116.913 37.7572 117.141 37.9048 117.309 38.2417C117.343 38.5107 117.342 38.7116 117.21 38.9524C116.972 39.1869 116.663 39.2456 116.338 39.2479C116.058 39.2307 115.821 39.2036 115.564 39.0879C115.564 38.9134 115.564 38.7388 115.564 38.559C115.621 38.5819 115.621 38.5819 115.678 38.6053C116.01 38.7338 116.287 38.8369 116.642 38.7342C116.738 38.6675 116.738 38.6675 116.781 38.5392C116.795 38.396 116.795 38.396 116.696 38.297C116.549 38.1719 116.401 38.0954 116.228 38.0103C115.958 37.8673 115.772 37.767 115.617 37.5012C115.552 37.2768 115.555 37.1598 115.624 36.9359C115.755 36.7038 115.885 36.5987 116.123 36.483C116.489 36.4031 116.859 36.3899 117.204 36.5491Z" fill="var(--fill-0, white)"/>
<path id="Vector_17" d="M79.0105 37.2202C79.0737 37.2193 79.1368 37.2184 79.2019 37.2175C79.4625 37.2445 79.6366 37.3291 79.8238 37.5111C80.0421 37.862 80.057 38.2161 79.9692 38.6119C79.8811 38.8632 79.7385 39.0356 79.4957 39.1555C79.1526 39.2766 78.8261 39.2764 78.487 39.1452C78.2739 39.0285 78.1698 38.8593 78.0486 38.6516C77.956 38.2813 77.9806 37.9416 78.1709 37.6069C78.4331 37.3044 78.612 37.2215 79.0105 37.2202ZM78.6469 37.7127C78.4952 37.9457 78.4587 38.1247 78.4882 38.4003C78.5716 38.6109 78.6157 38.6969 78.8056 38.8235C79.1167 38.8587 79.1167 38.8587 79.3841 38.7144C79.5178 38.5239 79.5461 38.4216 79.5461 38.1888C79.5121 38.0206 79.4719 37.8626 79.3874 37.7127C79.1563 37.5632 78.8724 37.5417 78.6469 37.7127Z" fill="var(--fill-0, white)"/>
<path id="Vector_18" d="M127.023 37.3226C127.291 37.5904 127.419 37.8302 127.427 38.2053C127.422 38.512 127.33 38.7284 127.139 38.9689C126.862 39.1905 126.625 39.2631 126.269 39.2433C125.945 39.2011 125.765 39.0897 125.546 38.8466C125.386 38.5211 125.361 38.1789 125.456 37.8284C125.551 37.5832 125.713 37.4294 125.932 37.2896C126.275 37.1754 126.694 37.1753 127.023 37.3226ZM125.985 37.8185C125.861 38.0659 125.851 38.2972 125.932 38.559C126.039 38.7141 126.113 38.8027 126.299 38.8487C126.516 38.8643 126.6 38.8393 126.775 38.7011C126.946 38.478 126.956 38.306 126.937 38.0301C126.854 37.8195 126.81 37.7335 126.62 37.6069C126.332 37.5749 126.184 37.6029 125.985 37.8185Z" fill="var(--fill-0, white)"/>
<path id="Vector_19" d="M106.392 37.3226C106.66 37.5904 106.787 37.8302 106.795 38.2053C106.79 38.512 106.699 38.7284 106.507 38.9689C106.23 39.1905 105.994 39.2631 105.638 39.2433C105.313 39.2011 105.133 39.0897 104.914 38.8466C104.754 38.5211 104.729 38.1789 104.825 37.8284C104.92 37.5832 105.081 37.4294 105.301 37.2896C105.643 37.1754 106.063 37.1753 106.392 37.3226ZM105.354 37.8185C105.23 38.0659 105.219 38.2972 105.301 38.559C105.407 38.7141 105.481 38.8027 105.668 38.8487C105.885 38.8643 105.968 38.8393 106.144 38.7011C106.315 38.478 106.324 38.306 106.306 38.0301C106.222 37.8195 106.178 37.7335 105.988 37.6069C105.7 37.5749 105.552 37.6029 105.354 37.8185Z" fill="var(--fill-0, white)"/>
<path id="Vector_20" d="M119.195 37.3259C119.472 37.5956 119.592 37.7831 119.602 38.1722C119.598 38.5468 119.512 38.7869 119.252 39.0549C118.91 39.2613 118.592 39.2772 118.21 39.1937C117.968 39.1091 117.781 38.9683 117.663 38.7348C117.569 38.4016 117.568 38.0192 117.699 37.6991C118.01 37.1854 118.666 37.0794 119.195 37.3259ZM118.157 37.8185C118.053 38.0266 118.08 38.2792 118.104 38.5061C118.2 38.6649 118.258 38.7416 118.422 38.8235C118.72 38.8558 118.72 38.8558 118.974 38.7276C119.138 38.4974 119.144 38.2504 119.109 37.9772C118.992 37.7511 118.992 37.7511 118.792 37.6069C118.501 37.5795 118.365 37.6105 118.157 37.8185Z" fill="var(--fill-0, white)"/>
<path id="Vector_21" d="M109.647 37.3193C109.895 37.5299 109.996 37.6755 110.028 37.996C110.037 38.3365 110.03 38.5786 109.852 38.8763C109.606 39.1215 109.385 39.2438 109.034 39.2482C108.666 39.2261 108.446 39.1247 108.195 38.8466C108.001 38.5658 108.024 38.2533 108.053 37.9243C108.118 37.6738 108.239 37.5 108.443 37.3425C108.787 37.1523 109.294 37.144 109.647 37.3193ZM108.695 37.7325C108.503 37.9688 108.5 38.1564 108.529 38.4532C108.615 38.6454 108.67 38.7057 108.847 38.8234C109.146 38.859 109.146 38.859 109.399 38.7243C109.581 38.4768 109.567 38.2231 109.534 37.9243C109.439 37.7655 109.381 37.6888 109.217 37.6069C108.978 37.5799 108.883 37.5765 108.695 37.7325Z" fill="var(--fill-0, white)"/>
<path id="Vector_22" d="M91.506 37.3193C91.7544 37.5299 91.855 37.6755 91.8879 37.996C91.8965 38.3365 91.8898 38.5786 91.711 38.8763C91.4658 39.1215 91.2447 39.2438 90.8934 39.2482C90.5252 39.2261 90.3058 39.1247 90.0548 38.8466C89.8604 38.5658 89.8838 38.2533 89.9127 37.9243C89.9769 37.6738 90.0983 37.5 90.3027 37.3425C90.6463 37.1523 91.1532 37.144 91.506 37.3193ZM90.554 37.7325C90.3627 37.9688 90.3594 38.1564 90.3887 38.4532C90.4746 38.6454 90.5294 38.7057 90.706 38.8234C91.0056 38.859 91.0056 38.859 91.2581 38.7243C91.4401 38.4768 91.426 38.2231 91.3937 37.9243C91.2984 37.7655 91.2401 37.6888 91.0763 37.6069C90.8374 37.5799 90.7428 37.5765 90.554 37.7325Z" fill="var(--fill-0, white)"/>
<path id="Vector_23" d="M112.442 37.2367C112.617 37.2367 112.791 37.2367 112.971 37.2367C113.111 37.6731 113.25 38.1094 113.394 38.559C113.602 38.0677 113.602 38.0677 113.778 37.5706C113.865 37.2949 113.865 37.2949 113.923 37.2367C114.004 37.2329 114.084 37.2323 114.165 37.2334C114.208 37.2339 114.252 37.2344 114.297 37.2349C114.331 37.2355 114.365 37.2361 114.399 37.2367C114.22 37.7653 114.029 38.2893 113.829 38.8104C113.792 38.9078 113.755 39.0055 113.719 39.1032C113.566 39.498 113.423 39.8643 113.027 40.0665C112.837 40.0975 112.683 40.0776 112.495 40.04C112.495 39.9178 112.495 39.7957 112.495 39.6698C112.528 39.667 112.56 39.6643 112.594 39.6615C112.636 39.6555 112.679 39.6495 112.723 39.6433C112.766 39.6384 112.808 39.6335 112.852 39.6284C113.006 39.5453 113.069 39.4501 113.122 39.2842C113.14 38.9473 112.956 38.6155 112.826 38.3111C112.78 38.1998 112.734 38.0884 112.688 37.9769C112.66 37.9079 112.631 37.839 112.602 37.7703C112.528 37.5935 112.472 37.4263 112.442 37.2367Z" fill="var(--fill-0, white)"/>
<path id="Vector_24" d="M97.844 37.2367C98.0833 37.35 98.2088 37.4729 98.32 37.7127C98.3845 37.9356 98.3729 38.1036 98.3729 38.3474C97.954 38.3649 97.5351 38.3823 97.1035 38.4003C97.1812 38.6636 97.1812 38.6636 97.3481 38.7639C97.6556 38.8664 97.9239 38.8008 98.2142 38.6648C98.2142 38.8044 98.2142 38.944 98.2142 39.0879C97.8384 39.2322 97.4991 39.3009 97.1035 39.1937C96.864 39.0711 96.7271 38.9027 96.6274 38.6549C96.532 38.304 96.5552 37.9604 96.72 37.6367C97.0634 37.2456 97.3365 37.1889 97.844 37.2367ZM97.2092 37.7127C97.097 37.8581 97.097 37.8581 97.0506 38.0301C97.3298 38.0301 97.6091 38.0301 97.8968 38.0301C97.882 37.7187 97.882 37.7187 97.715 37.6135C97.4903 37.5149 97.4048 37.5744 97.2092 37.7127Z" fill="var(--fill-0, white)"/>
<path id="Vector_25" d="M86.7382 37.2367C86.9449 37.3394 87.062 37.4814 87.1845 37.6731C87.2295 37.8935 87.2142 38.1224 87.2142 38.3475C86.7953 38.3475 86.3764 38.3475 85.9448 38.3475C85.9797 38.4696 86.0146 38.5918 86.0506 38.7177C86.4339 38.8289 86.6897 38.8292 87.0555 38.6648C87.0555 38.8044 87.0555 38.9441 87.0555 39.0879C86.6406 39.246 86.3038 39.314 85.8809 39.1398C85.6481 39.0125 85.5511 38.8002 85.4688 38.559C85.4226 38.1702 85.4402 37.8216 85.6803 37.5012C86.0048 37.1998 86.3048 37.182 86.7382 37.2367ZM86.0506 37.7127C86.0157 37.8175 85.9808 37.9222 85.9448 38.0301C86.2241 38.0301 86.5033 38.0301 86.7911 38.0301C86.7023 37.7154 86.7023 37.7154 86.4737 37.5541C86.2778 37.5541 86.2051 37.5939 86.0506 37.7127Z" fill="var(--fill-0, white)"/>
<path id="Vector_26" d="M70.861 37.2235C70.9159 37.2221 70.9707 37.2207 71.0273 37.2193C71.2109 37.2391 71.3053 37.286 71.4527 37.3954C71.7146 37.7445 71.7172 37.8827 71.7172 38.3474C71.2983 38.3474 70.8793 38.3474 70.4477 38.3474C70.5576 38.7005 70.5576 38.7005 70.7093 38.7826C71.0313 38.8414 71.2596 38.7962 71.5585 38.6648C71.5585 38.8044 71.5585 38.9441 71.5585 39.0879C71.2701 39.2548 70.9115 39.2799 70.586 39.2255C70.3181 39.1388 70.1826 39.0004 70.0246 38.7706C69.9641 38.5892 69.9609 38.4427 69.9585 38.2516C69.9564 38.1561 69.9564 38.1561 69.9544 38.0588C69.9766 37.8182 70.0457 37.6447 70.2116 37.4671C70.4493 37.2853 70.5628 37.2279 70.861 37.2235ZM70.5535 37.7127C70.4331 37.8616 70.4331 37.8616 70.4477 38.0301C70.7096 38.0301 70.9714 38.0301 71.2411 38.0301C71.2263 37.7187 71.2263 37.7187 71.0593 37.6136C70.8336 37.5145 70.7517 37.5789 70.5535 37.7127Z" fill="var(--fill-0, white)"/>
<path id="Vector_27" d="M64.5109 37.2235C64.5658 37.2221 64.6207 37.2207 64.6773 37.2193C64.8608 37.2391 64.9553 37.286 65.1027 37.3954C65.3645 37.7445 65.3671 37.8827 65.3671 38.3474C64.9482 38.3474 64.5293 38.3474 64.0977 38.3474C64.2076 38.7005 64.2076 38.7005 64.3593 38.7826C64.6812 38.8414 64.9096 38.7962 65.2085 38.6648C65.2085 38.8044 65.2085 38.9441 65.2085 39.0879C64.92 39.2548 64.5615 39.2799 64.2359 39.2255C63.968 39.1388 63.8326 39.0004 63.6746 38.7706C63.6141 38.5892 63.6109 38.4427 63.6085 38.2516C63.6064 38.1561 63.6064 38.1561 63.6043 38.0588C63.6266 37.8182 63.6957 37.6447 63.8616 37.4671C64.0993 37.2853 64.2127 37.2279 64.5109 37.2235ZM64.2035 37.7127C64.083 37.8616 64.083 37.8616 64.0977 38.0301C64.3595 38.0301 64.6213 38.0301 64.8911 38.0301C64.8763 37.7187 64.8763 37.7187 64.7093 37.6136C64.4836 37.5145 64.4017 37.5789 64.2035 37.7127Z" fill="var(--fill-0, white)"/>
<path id="Vector_28" d="M120.961 37.2367C121.118 37.2367 121.275 37.2367 121.437 37.2367C121.438 37.2775 121.439 37.3183 121.44 37.3604C121.445 37.5451 121.451 37.7297 121.457 37.9144C121.458 37.9786 121.46 38.0429 121.462 38.1091C121.464 38.1706 121.466 38.2322 121.468 38.2956C121.469 38.3523 121.471 38.4091 121.473 38.4676C121.48 38.6233 121.48 38.6233 121.595 38.7706C121.838 38.8008 121.838 38.8008 122.055 38.7098C122.153 38.5711 122.147 38.4644 122.151 38.2956C122.153 38.234 122.155 38.1725 122.157 38.1091C122.158 38.0448 122.159 37.9806 122.161 37.9144C122.162 37.8495 122.164 37.7846 122.166 37.7178C122.171 37.5574 122.174 37.3971 122.177 37.2367C122.334 37.2367 122.491 37.2367 122.653 37.2367C122.653 37.8825 122.653 38.5283 122.653 39.1937C122.496 39.1937 122.339 39.1937 122.177 39.1937C122.16 39.1588 122.142 39.1239 122.124 39.0879C122.073 39.1152 122.022 39.1425 121.969 39.1706C121.733 39.2706 121.522 39.2697 121.278 39.1937C121.107 39.058 121.03 38.9775 120.961 38.7706C120.956 38.6536 120.955 38.5366 120.956 38.4195C120.956 38.3508 120.956 38.2821 120.956 38.2114C120.956 38.1388 120.957 38.0663 120.957 37.9937C120.958 37.9205 120.958 37.8474 120.958 37.7742C120.959 37.595 120.96 37.4158 120.961 37.2367Z" fill="var(--fill-0, white)"/>
<path id="Vector_29" d="M127.781 37.2367C127.938 37.2367 128.095 37.2367 128.257 37.2367C128.274 37.3065 128.292 37.3763 128.31 37.4483C128.341 37.4133 128.373 37.3784 128.405 37.3425C128.651 37.1886 128.874 37.1879 129.156 37.2367C129.386 37.3967 129.453 37.5541 129.526 37.8185C129.538 37.9808 129.538 37.9808 129.536 38.1503C129.536 38.2113 129.536 38.2724 129.535 38.3352C129.535 38.3982 129.534 38.4611 129.533 38.5259C129.532 38.5901 129.532 38.6543 129.531 38.7204C129.53 38.8781 129.528 39.0359 129.526 39.1937C129.369 39.1937 129.212 39.1937 129.05 39.1937C129.049 39.1566 129.049 39.1196 129.048 39.0814C129.044 38.9127 129.039 38.7441 129.034 38.5755C129.032 38.5172 129.031 38.4589 129.03 38.3988C129.028 38.3423 129.026 38.2859 129.024 38.2278C129.023 38.176 129.021 38.1242 129.02 38.0708C128.993 37.8997 128.943 37.7975 128.839 37.6598C128.682 37.6157 128.682 37.6157 128.521 37.6598C128.376 37.7795 128.317 37.8788 128.288 38.065C128.277 38.2354 128.272 38.4048 128.27 38.5755C128.268 38.6349 128.267 38.6942 128.265 38.7554C128.261 38.9015 128.259 39.0476 128.257 39.1937C128.1 39.1937 127.943 39.1937 127.781 39.1937C127.781 38.5479 127.781 37.9021 127.781 37.2367Z" fill="var(--fill-0, white)"/>
<path id="Vector_30" d="M94.4082 36.4962C95.0714 36.4962 95.7347 36.4962 96.4181 36.4962C96.4181 36.6358 96.4181 36.7755 96.4181 36.9193C96.1737 36.9193 95.9293 36.9193 95.6776 36.9193C95.6776 37.6699 95.6776 38.4204 95.6776 39.1937C95.503 39.1937 95.3285 39.1937 95.1487 39.1937C95.1487 38.4432 95.1487 37.6926 95.1487 36.9193C94.9043 36.9193 94.6599 36.9193 94.4082 36.9193C94.4082 36.7797 94.4082 36.6401 94.4082 36.4962Z" fill="var(--fill-0, white)"/>
<path id="Vector_31" d="M102.712 37.2367C102.869 37.2367 103.027 37.2367 103.188 37.2367C103.206 37.289 103.223 37.3414 103.241 37.3954C103.274 37.3692 103.307 37.343 103.34 37.316C103.594 37.1944 103.878 37.1845 104.147 37.2741C104.283 37.3679 104.332 37.4581 104.405 37.6069C104.423 37.7826 104.423 37.7826 104.42 37.9799C104.42 38.0147 104.42 38.0496 104.42 38.0855C104.419 38.1959 104.417 38.3064 104.415 38.4168C104.414 38.4921 104.413 38.5673 104.413 38.6426C104.411 38.8263 104.408 39.01 104.405 39.1937C104.265 39.1937 104.126 39.1937 103.982 39.1937C103.981 39.1582 103.98 39.1228 103.979 39.0862C103.974 38.9248 103.968 38.7634 103.962 38.602C103.96 38.5462 103.959 38.4904 103.957 38.4329C103.955 38.3788 103.953 38.3248 103.951 38.2691C103.948 38.1947 103.948 38.1947 103.946 38.1189C103.926 37.953 103.892 37.7817 103.77 37.6598C103.585 37.6392 103.489 37.632 103.339 37.7473C103.218 37.9017 103.213 37.9867 103.209 38.1813C103.207 38.2403 103.206 38.2993 103.204 38.36C103.203 38.452 103.203 38.452 103.202 38.5458C103.2 38.6079 103.198 38.67 103.197 38.734C103.193 38.8872 103.19 39.0404 103.188 39.1937C103.031 39.1937 102.874 39.1937 102.712 39.1937C102.712 38.5479 102.712 37.9021 102.712 37.2367Z" fill="var(--fill-0, white)"/>
<path id="Vector_32" d="M93.4035 36.3375C93.4035 36.4771 93.4035 36.6168 93.4035 36.7606C93.3446 36.7574 93.2857 36.7541 93.225 36.7507C93.1301 36.7556 93.1301 36.7556 93.0332 36.7606C92.9208 36.9292 92.9009 37.0391 92.8746 37.2367C93.0317 37.2367 93.1887 37.2367 93.3506 37.2367C93.3506 37.3589 93.3506 37.481 93.3506 37.6069C93.1935 37.6069 93.0364 37.6069 92.8746 37.6069C92.8746 38.1306 92.8746 38.6542 92.8746 39.1937C92.7175 39.1937 92.5604 39.1937 92.3985 39.1937C92.3985 38.6701 92.3985 38.1464 92.3985 37.6069C92.2938 37.6069 92.1891 37.6069 92.0812 37.6069C92.0812 37.4847 92.0812 37.3626 92.0812 37.2367C92.1859 37.2367 92.2906 37.2367 92.3985 37.2367C92.3953 37.1832 92.392 37.1298 92.3886 37.0747C92.4016 36.8029 92.4604 36.5899 92.6597 36.397C92.92 36.255 93.1167 36.2945 93.4035 36.3375Z" fill="var(--fill-0, white)"/>
<path id="Vector_33" d="M80.1267 37.2367C80.3013 37.2367 80.4758 37.2367 80.6556 37.2367C80.7953 37.6905 80.9349 38.1443 81.0788 38.6119C81.2359 38.1581 81.393 37.7043 81.5548 37.2367C81.7119 37.2367 81.869 37.2367 82.0308 37.2367C81.9983 37.4875 81.9269 37.71 81.8339 37.9437C81.8199 37.9797 81.8059 38.0156 81.7915 38.0526C81.747 38.1664 81.7022 38.2801 81.6573 38.3937C81.6269 38.4712 81.5966 38.5488 81.5663 38.6263C81.4923 38.8156 81.4179 39.0047 81.3432 39.1937C81.1687 39.1937 80.9942 39.1937 80.8143 39.1937C80.6903 38.8766 80.5669 38.5592 80.4441 38.2416C80.428 38.2002 80.4119 38.1587 80.3954 38.116C80.3507 38.0004 80.3064 37.8847 80.2623 37.7689C80.2486 37.7336 80.2349 37.6983 80.2208 37.662C80.1639 37.5117 80.1267 37.3989 80.1267 37.2367Z" fill="var(--fill-0, white)"/>
<path id="Vector_34" d="M130.692 37.2301C130.792 37.2299 130.792 37.2299 130.894 37.2297C131.062 37.2367 131.062 37.2367 131.168 37.2896C131.168 37.4293 131.168 37.5689 131.168 37.7128C131.115 37.6942 131.061 37.6757 131.006 37.6566C130.802 37.597 130.636 37.6173 130.428 37.6599C130.43 37.7876 130.43 37.7876 130.481 37.9243C130.62 38.0162 130.62 38.0162 130.791 38.083C131.036 38.1869 131.166 38.2573 131.274 38.5061C131.292 38.6566 131.27 38.786 131.221 38.9293C131.041 39.1307 130.849 39.2 130.586 39.2466C130.085 39.2342 130.085 39.2342 129.899 39.1409C129.899 38.9838 129.899 38.8267 129.899 38.6648C129.95 38.6921 130.001 38.7194 130.054 38.7475C130.291 38.8513 130.497 38.8173 130.745 38.7706C130.745 38.7008 130.745 38.631 130.745 38.559C130.693 38.5342 130.641 38.5093 130.587 38.4836C130.518 38.4504 130.45 38.4171 130.381 38.3838C130.347 38.3675 130.313 38.3512 130.277 38.3344C130.1 38.2476 130.01 38.1975 129.899 38.0301C129.867 37.8668 129.865 37.7171 129.899 37.5541C130.115 37.2712 130.356 37.2294 130.692 37.2301Z" fill="var(--fill-0, white)"/>
<path id="Vector_35" d="M123.76 36.7077C123.76 36.8823 123.76 37.0568 123.76 37.2367C123.917 37.2367 124.075 37.2367 124.236 37.2367C124.236 37.3589 124.236 37.481 124.236 37.6069C124.079 37.6069 123.922 37.6069 123.76 37.6069C123.768 37.791 123.775 37.975 123.783 38.159C123.786 38.2115 123.788 38.2641 123.79 38.3182C123.793 38.3931 123.793 38.3931 123.796 38.4695C123.798 38.5158 123.8 38.562 123.802 38.6097C123.802 38.7173 123.802 38.7173 123.866 38.7706C123.99 38.7727 124.113 38.7728 124.236 38.7706C124.236 38.8927 124.236 39.0149 124.236 39.1408C124.001 39.2796 123.809 39.2525 123.549 39.1937C123.376 39.0989 123.347 39.0651 123.284 38.8763C123.28 38.7787 123.279 38.6809 123.279 38.5832C123.279 38.5264 123.279 38.4696 123.28 38.4112C123.28 38.3519 123.281 38.2927 123.281 38.2317C123.281 38.1719 123.281 38.1121 123.282 38.0504C123.282 37.9026 123.283 37.7547 123.284 37.6069C123.18 37.6069 123.075 37.6069 122.967 37.6069C122.967 37.4847 122.967 37.3626 122.967 37.2367C123.072 37.2367 123.176 37.2367 123.284 37.2367C123.284 37.097 123.284 36.9574 123.284 36.8135C123.582 36.7077 123.582 36.7077 123.76 36.7077Z" fill="var(--fill-0, white)"/>
<path id="Vector_36" d="M99.6569 37.2235C99.7216 37.2243 99.7862 37.2251 99.8528 37.226C100.014 37.2367 100.014 37.2367 100.12 37.2896C100.12 37.4467 100.12 37.6038 100.12 37.7657C100.066 37.7395 100.066 37.7395 100.011 37.7128C99.7896 37.6375 99.5928 37.6329 99.366 37.6896C99.2136 37.8148 99.1726 37.9502 99.1148 38.1359C99.1148 38.3635 99.1453 38.4733 99.2734 38.6615C99.4881 38.8091 99.6552 38.8023 99.9082 38.7706C99.979 38.7543 100.05 38.7371 100.12 38.7177C100.13 38.8962 100.13 38.8962 100.12 39.088C99.8697 39.2546 99.5961 39.273 99.3009 39.2256C99.0051 39.1413 98.8584 39.0283 98.6916 38.7706C98.5549 38.4645 98.5432 38.1811 98.652 37.8648C98.8478 37.394 99.148 37.2127 99.6569 37.2235Z" fill="var(--fill-0, white)"/>
<path id="Vector_37" d="M120.005 36.3376C120.162 36.3376 120.319 36.3376 120.481 36.3376C120.481 37.2801 120.481 38.2227 120.481 39.1938C120.324 39.1938 120.167 39.1938 120.005 39.1938C120.005 38.2512 120.005 37.3087 120.005 36.3376Z" fill="var(--fill-0, white)"/>
<path id="Vector_38" d="M107.153 36.3376C107.31 36.3376 107.467 36.3376 107.629 36.3376C107.629 37.2801 107.629 38.2227 107.629 39.1938C107.472 39.1938 107.315 39.1938 107.153 39.1938C107.153 38.2512 107.153 37.3087 107.153 36.3376Z" fill="var(--fill-0, white)"/>
<path id="Vector_39" d="M87.5829 37.2367C87.74 37.2367 87.8971 37.2367 88.0589 37.2367C88.0764 37.2891 88.0938 37.3414 88.1118 37.3954C88.138 37.3692 88.1642 37.343 88.1911 37.3161C88.3824 37.2013 88.5256 37.2257 88.7465 37.2367C88.7465 37.3938 88.7465 37.5509 88.7465 37.7127C88.68 37.7095 88.6134 37.7062 88.5449 37.7028C88.3714 37.7014 88.3714 37.7014 88.2209 37.7822C88.1143 37.9514 88.103 38.1054 88.0951 38.3001C88.0929 38.3521 88.0906 38.4041 88.0884 38.4577C88.0863 38.5119 88.0842 38.566 88.0821 38.6218C88.0798 38.6766 88.0775 38.7314 88.0751 38.7878C88.0695 38.9231 88.0641 39.0584 88.0589 39.1937C87.9018 39.1937 87.7447 39.1937 87.5829 39.1937C87.5829 38.5479 87.5829 37.9021 87.5829 37.2367Z" fill="var(--fill-0, white)"/>
<path id="Vector_40" d="M62.3015 37.2367C62.4586 37.2367 62.6157 37.2367 62.7776 37.2367C62.795 37.3065 62.8125 37.3763 62.8305 37.4482C62.8566 37.4133 62.8828 37.3784 62.9098 37.3425C63.1004 37.19 63.2256 37.2207 63.4652 37.2367C63.4652 37.3938 63.4652 37.5509 63.4652 37.7127C63.3986 37.7083 63.3321 37.704 63.2635 37.6995C63.0814 37.6965 63.0814 37.6965 62.9396 37.8086C62.8509 37.991 62.8222 38.1411 62.8137 38.3414C62.8115 38.391 62.8093 38.4406 62.807 38.4917C62.8049 38.5434 62.8029 38.595 62.8007 38.6482C62.7984 38.7005 62.7961 38.7528 62.7938 38.8066C62.7882 38.9356 62.7829 39.0647 62.7776 39.1937C62.6205 39.1937 62.4634 39.1937 62.3015 39.1937C62.3015 38.5479 62.3015 37.9021 62.3015 37.2367Z" fill="var(--fill-0, white)"/>
<path id="Vector_41" d="M76.7428 37.2367C76.8999 37.2367 77.0569 37.2367 77.2188 37.2367C77.2362 37.2891 77.2537 37.3414 77.2717 37.3954C77.299 37.3692 77.3262 37.343 77.3543 37.316C77.5259 37.2105 77.6558 37.2253 77.8535 37.2367C77.8535 37.3938 77.8535 37.5509 77.8535 37.7127C77.7957 37.7095 77.7379 37.7062 77.6783 37.7028C77.489 37.6945 77.489 37.6945 77.3841 37.7855C77.2722 37.947 77.2624 38.0588 77.2549 38.2537C77.2527 38.3082 77.2505 38.3627 77.2482 38.4189C77.2451 38.5046 77.2451 38.5046 77.2419 38.5921C77.2396 38.6496 77.2374 38.7072 77.235 38.7665C77.2294 38.9089 77.224 39.0513 77.2188 39.1937C77.0617 39.1937 76.9046 39.1937 76.7428 39.1937C76.7428 38.5479 76.7428 37.9021 76.7428 37.2367Z" fill="var(--fill-0, white)"/>
<path id="Vector_42" d="M72.0847 37.2367C72.2418 37.2367 72.3989 37.2367 72.5607 37.2367C72.5782 37.2891 72.5956 37.3414 72.6136 37.3954C72.6409 37.3692 72.6682 37.343 72.6963 37.316C72.8679 37.2105 72.9977 37.2253 73.1954 37.2367C73.1954 37.3938 73.1954 37.5509 73.1954 37.7127C73.1376 37.7095 73.0798 37.7062 73.0202 37.7028C72.831 37.6945 72.831 37.6945 72.726 37.7855C72.6142 37.947 72.6044 38.0588 72.5969 38.2537C72.5947 38.3082 72.5925 38.3627 72.5902 38.4189C72.5871 38.5046 72.5871 38.5046 72.5839 38.5921C72.5816 38.6496 72.5793 38.7072 72.577 38.7665C72.5713 38.9089 72.5659 39.0513 72.5607 39.1937C72.4036 39.1937 72.2466 39.1937 72.0847 39.1937C72.0847 38.5479 72.0847 37.9021 72.0847 37.2367Z" fill="var(--fill-0, white)"/>
<path id="Vector_43" d="M124.556 37.2367C124.714 37.2367 124.871 37.2367 125.033 37.2367C125.033 37.8825 125.033 38.5283 125.033 39.1937C124.875 39.1937 124.718 39.1937 124.556 39.1937C124.556 38.5479 124.556 37.9021 124.556 37.2367Z" fill="var(--fill-0, white)"/>
<path id="Vector_44" d="M82.2939 37.2367C82.451 37.2367 82.6081 37.2367 82.77 37.2367C82.77 37.8825 82.77 38.5283 82.77 39.1937C82.6129 39.1937 82.4558 39.1937 82.2939 39.1937C82.2939 38.5479 82.2939 37.9021 82.2939 37.2367Z" fill="var(--fill-0, white)"/>
<path id="Vector_45" d="M69.0695 37.2367C69.2265 37.2367 69.3836 37.2367 69.5455 37.2367C69.5455 37.8825 69.5455 38.5283 69.5455 39.1937C69.3884 39.1937 69.2313 39.1937 69.0695 39.1937C69.0695 38.5479 69.0695 37.9021 69.0695 37.2367Z" fill="var(--fill-0, white)"/>
<path id="Vector_46" d="M124.792 36.3739C124.883 36.3821 124.883 36.3821 124.977 36.3905C125.083 36.5491 125.083 36.5491 125.073 36.6847C125.03 36.8136 125.03 36.8136 124.871 36.9194C124.695 36.9022 124.627 36.8872 124.501 36.7607C124.488 36.6285 124.488 36.6285 124.501 36.4962C124.607 36.3905 124.607 36.3905 124.792 36.3739Z" fill="var(--fill-0, white)"/>
<path id="Vector_47" d="M69.3076 36.3805C69.496 36.3904 69.496 36.3904 69.6018 36.4962C69.6216 36.6251 69.6216 36.6251 69.6018 36.7607C69.5126 36.8599 69.5126 36.8599 69.3902 36.9194C69.2514 36.9127 69.2514 36.9127 69.1258 36.8665C69.02 36.7078 69.02 36.7078 69.0365 36.5689C69.0926 36.3751 69.0939 36.3922 69.3076 36.3805Z" fill="var(--fill-0, white)"/>
<path id="Vector_48" d="M82.5576 36.3772C82.7163 36.3904 82.7163 36.3904 82.8221 36.4962C82.8419 36.6251 82.8419 36.6251 82.8221 36.7607C82.7328 36.8598 82.7328 36.8598 82.6105 36.9193C82.3773 36.8976 82.3773 36.8976 82.2932 36.8136C82.2832 36.6582 82.2832 36.6582 82.2932 36.4962C82.399 36.3904 82.399 36.3904 82.5576 36.3772Z" fill="var(--fill-0, white)"/>
</g>
<defs>
<filter id="filter0_d_0_9" x="0" y="2.74974e-10" width="135.855" height="58.3415" filterUnits="userSpaceOnUse" color-interpolation-filters="sRGB">
<feFlood flood-opacity="0" result="BackgroundImageFix"/>
<feColorMatrix in="SourceAlpha" type="matrix" values="0 0 0 0 0 0 0 0 0 0 0 0 0 0 0 0 0 0 127 0" result="hardAlpha"/>
<feOffset dy="4"/>
<feGaussianBlur stdDeviation="2"/>
<feComposite in2="hardAlpha" operator="out"/>
<feColorMatrix type="matrix" values="0 0 0 0 0 0 0 0 0 0 0 0 0 0 0 0 0 0 0.24 0"/>
<feBlend mode="normal" in2="BackgroundImageFix" result="effect1_dropShadow_0_9"/>
<feBlend mode="normal" in="SourceGraphic" in2="effect1_dropShadow_0_9" result="shape"/>
</filter>
</defs>
</svg>
