<svg preserveAspectRatio="none" width="100%" height="100%" overflow="visible" style="display: block;" viewBox="0 0 33 33" fill="none" xmlns="http://www.w3.org/2000/svg">
<g id="Logo-black-and-white">
<path id="Vector" d="M30.9144 29.4119C31.0157 29.5092 31.0957 29.6265 31.1493 29.7563C31.2029 29.8862 31.2289 30.0257 31.2258 30.1661C31.227 30.3777 31.1652 30.5849 31.0484 30.7612C30.9315 30.9376 30.7649 31.0752 30.5696 31.1566C30.3743 31.2379 30.1592 31.2594 29.9517 31.2181C29.7441 31.1769 29.5536 31.0748 29.4042 30.925C29.3043 30.8257 29.2254 30.7074 29.1721 30.577C29.1188 30.4467 29.0922 30.307 29.0939 30.1661C29.0936 29.8832 29.2054 29.6116 29.4049 29.4109C29.6044 29.2102 29.8752 29.0967 30.1582 29.0953C30.2993 29.0926 30.4394 29.1193 30.5697 29.1738C30.6999 29.2284 30.8173 29.3094 30.9144 29.4119ZM31.0397 29.2886C30.9251 29.1716 30.7878 29.0792 30.6363 29.017C30.4848 28.9548 30.3222 28.9242 30.1585 28.9269C29.9545 28.9272 29.7537 28.9778 29.5739 29.0743C29.3941 29.1708 29.2409 29.3101 29.1279 29.4799C29.0149 29.6498 28.9455 29.8449 28.9259 30.048C28.9063 30.251 28.9371 30.4558 29.0155 30.6441C29.094 30.8324 29.2177 30.9985 29.3757 31.1276C29.5337 31.2567 29.7211 31.3448 29.9213 31.3841C30.1215 31.4234 30.3283 31.4127 30.5234 31.353C30.7185 31.2933 30.8958 31.1864 31.0397 31.0417C31.1549 30.9266 31.2464 30.7898 31.3088 30.6393C31.3712 30.4888 31.4033 30.3274 31.4033 30.1645C31.4033 30.0015 31.3712 29.8402 31.3088 29.6897C31.2464 29.5392 31.1549 29.4024 31.0397 29.2873V29.2886ZM30.3433 30.1063C30.2699 30.1305 30.1926 30.1408 30.1154 30.1365H29.9004V29.6434H30.1052C30.2367 29.6434 30.3354 29.6621 30.3936 29.6953C30.4518 29.7285 30.4843 29.7962 30.4843 29.8926C30.4877 29.9388 30.4757 29.9848 30.4502 30.0235C30.4247 30.0621 30.3871 30.0912 30.3433 30.1063ZM29.661 30.8392H29.9004V30.3039H30.0901C30.2157 30.3039 30.3058 30.3171 30.3568 30.3486C30.4413 30.3993 30.4843 30.5038 30.4843 30.6603V30.7698L30.4889 30.8109C30.4906 30.8163 30.4918 30.8218 30.4925 30.8273C30.4925 30.8339 30.4945 30.8362 30.4988 30.8392H30.7211L30.7132 30.8234C30.7037 30.8016 30.6998 30.7777 30.7017 30.754C30.6987 30.7165 30.6987 30.6833 30.6987 30.6531V30.5521C30.6958 30.4758 30.6699 30.4021 30.6244 30.3407C30.5738 30.2681 30.4945 30.2253 30.388 30.2066C30.4573 30.1972 30.5242 30.1749 30.5853 30.1408C30.6763 30.0833 30.7188 29.9909 30.7188 29.8712C30.7188 29.7009 30.651 29.5842 30.5083 29.5263C30.4297 29.4934 30.3064 29.4773 30.1368 29.4773H29.661V30.8392Z" fill="var(--fill-0, black)" fill-opacity="0.64"/>
<path id="Vector_2" d="M31.517 20.3953C31.6051 18.6415 31.2812 16.7522 29.7553 15.0428C28.187 13.3525 25.5412 11.9193 20.098 11.5833C20.3807 10.7011 20.628 9.89294 20.8891 9.06733C24.1441 9.18175 27.0395 9.41618 29.5035 9.7361C29.6981 8.85329 29.8036 7.99021 30.0052 7.15737C29.7551 6.79153 29.4901 6.436 29.2102 6.09076C28.038 5.9553 26.8692 5.66333 25.6112 5.50222C23.9103 5.28259 22.1299 5.12575 20.2065 5.03698C18.9952 8.64483 17.4811 13.1845 15.9279 17.8764C24.0248 18.5767 27.1384 20.7589 26.9635 23.8374C26.8021 25.5001 25.2821 27.0119 23.2833 27.1911C20.9058 27.3509 19.8175 26.3905 19.103 25.3367C18.4737 24.3904 17.8461 23.4422 17.176 22.4104C16.9938 22.107 16.7535 22.3043 16.5368 22.516C16.0462 22.9921 15.58 23.4415 15.0954 23.9061C14.7837 24.1771 14.8531 24.4098 14.9639 24.637C15.4166 25.7043 15.8381 26.6828 16.2639 27.6541C16.9728 28.0884 20.3048 28.6815 22.7967 28.4951C24.4854 28.3531 26.5966 27.7001 28.3418 26.3856C30.0657 25.047 31.3223 23.2456 31.517 20.3953Z" fill="var(--fill-0, white)"/>
<path id="Vector_3" d="M3.19652 26.1817C3.50821 26.6045 3.8392 27.0115 4.18947 27.4025C6.99047 27.9062 10.4832 28.2544 14.1207 28.3603C14.1085 27.9828 14.0977 27.6162 14.0878 27.2273C11.854 27.1013 10.8272 26.7607 10.6486 26.3188C10.4997 25.9676 10.4737 25.4432 10.4418 24.9254C10.2741 21.4944 10.2192 17.7833 10.2774 14.0584C11.5268 14.0367 12.7707 14.0255 14.076 14.0114C14.7086 13.723 15.3037 13.438 15.935 13.1565C15.935 12.7054 15.9379 12.3017 15.9379 11.8614C14.0036 11.8693 12.1683 11.9022 10.3287 11.9531C10.3807 10.3874 10.4421 8.94204 10.5339 7.53217C10.5996 6.60563 11.2411 5.92832 11.903 5.87538C12.9637 5.83395 13.9162 6.25547 14.8381 6.66449C15.3464 6.91075 15.8475 7.15571 16.3683 7.42236C16.6169 7.48812 16.9122 7.54664 17.09 7.33062C17.3988 6.965 17.6921 6.62536 17.9959 6.26993C18.1603 6.02696 18.0892 5.88755 18.0218 5.79812C17.3603 5.27566 16.7379 4.80581 16.1079 4.33367C15.719 4.07063 15.1048 4.01276 14.4995 4.01276C14.2581 4.01276 14.0158 4.02164 13.7909 4.02887C13.1688 4.06175 12.3771 4.16039 11.0807 4.47669C8.16065 5.26317 4.65505 7.29906 4.28449 10.6288C4.23682 11.1723 4.19704 11.7105 4.16185 12.2665C3.33724 12.3359 2.5866 12.3954 1.87805 12.4638C1.8261 13.1003 1.79125 13.7132 1.76232 14.3573C2.47974 14.3152 3.22808 14.2777 4.0619 14.2415C3.93827 17.732 4.05532 21.2153 4.38313 24.4414C4.43804 24.9316 4.49163 25.4176 4.42785 25.7316C4.37557 26.0314 3.8929 26.187 3.19652 26.1817Z" fill="var(--fill-0, white)"/>
<path id="Vector_4" d="M30.0077 7.15748C29.8062 7.99031 29.7007 8.85339 29.506 9.73621C27.0401 9.41629 24.144 9.18186 20.8916 9.06744C20.6305 9.89304 20.3833 10.7012 20.1005 11.5834C25.5437 11.9181 28.1889 13.3526 29.7579 15.0429C31.2838 16.7527 31.6077 18.6416 31.5195 20.3954C31.3233 23.2457 30.0666 25.0472 28.3421 26.3827C26.5968 27.6979 24.4857 28.3502 22.797 28.4923C20.305 28.6787 16.973 28.0855 16.2642 27.6515C15.8367 26.6803 15.4169 25.7018 14.9641 24.6345C14.854 24.4073 14.7846 24.1742 15.0956 23.9036C15.5803 23.439 16.0465 22.9896 16.5371 22.5135C16.7537 22.3017 16.9941 22.1045 17.1762 22.4079C17.8463 23.4413 18.4743 24.3896 19.1033 25.3342C19.8178 26.388 20.9061 27.3484 23.2836 27.1886C25.2823 27.0097 26.8017 25.4979 26.9638 23.8349C27.1387 20.7574 24.025 18.5742 15.9281 17.8748C17.482 13.1846 18.9961 8.64494 20.2074 5.03708C22.1308 5.12586 23.9112 5.28269 25.6121 5.50233C26.8701 5.66245 28.0389 5.95541 29.2111 6.09087C26.1974 2.37583 21.5979 -4.01887e-05 16.4397 -4.01887e-05C7.36075 -4.01887e-05 3.5607e-05 7.36034 3.5607e-05 16.4397C-0.00486685 19.946 1.11673 23.3611 3.19953 26.1818C3.89592 26.1871 4.37858 26.0316 4.43086 25.7314C4.49465 25.4174 4.44106 24.9314 4.38615 24.4412C4.05735 21.2151 3.94129 17.7318 4.06492 14.2413C3.23109 14.2775 2.48276 14.315 1.76533 14.3571C1.79426 13.7117 1.82912 13.1001 1.88107 12.4636C2.58962 12.3955 3.34025 12.336 4.16487 12.2663C4.20005 11.7103 4.23983 11.1721 4.28784 10.6286C4.65806 7.29919 8.16366 5.26329 11.0837 4.47748C12.3795 4.16183 13.1719 4.06221 13.7939 4.02966C14.0188 4.02243 14.2611 4.01355 14.5025 4.01355C15.1078 4.01355 15.722 4.0701 16.1109 4.33445C16.7409 4.8066 17.3633 5.27645 18.0252 5.7989C18.0909 5.88833 18.1633 6.02905 17.9989 6.27072C17.6951 6.62614 17.4018 6.96579 17.093 7.33141C16.9152 7.54743 16.6199 7.49054 16.3713 7.42314C15.8505 7.15649 15.3495 6.91154 14.8411 6.66527C13.9205 6.25559 12.967 5.83408 11.906 5.87617C11.2441 5.9291 10.6033 6.60642 10.5369 7.53296C10.4452 8.94283 10.3837 10.3882 10.3317 11.9539C12.1713 11.9023 14.0067 11.8694 15.9416 11.8609C15.9416 12.3011 15.9387 12.7049 15.9387 13.156C15.3074 13.4381 14.7123 13.7232 14.0797 14.0109C12.7743 14.026 11.5322 14.0362 10.2811 14.0579C10.2232 17.7828 10.2781 21.4939 10.4455 24.9248C10.4784 25.4427 10.5034 25.9671 10.6523 26.3183C10.8308 26.7602 11.8577 27.1008 14.0915 27.2267C14.1004 27.6157 14.1112 27.983 14.1244 28.3598C10.4869 28.2539 6.99414 27.9057 4.19479 27.402C7.20293 30.7629 11.5736 32.8794 16.4397 32.8794C25.5194 32.8794 32.8794 25.5186 32.8794 16.4397C32.8842 13.1262 31.8828 9.88936 30.0077 7.15748Z" fill="var(--fill-0, black)" fill-opacity="0.64"/>
</g>
</svg>
