<svg preserveAspectRatio="none" width="100%" height="100%" overflow="visible" style="display: block;" viewBox="0 0 158 20" fill="none" xmlns="http://www.w3.org/2000/svg">
<g id="Fortinet" clip-path="url(#clip0_0_109)">
<path id="Vector" d="M102.24 18.38H97.923V0.762326L111.807 0.773761C111.807 0.773761 114.349 0.678944 115.966 2.27647C115.966 2.27647 117.616 3.65472 117.616 7.02342V18.3772H113.31V6.72996C113.31 6.72996 113.364 5.54196 112.959 5.12505C112.959 5.12505 112.601 4.67221 111.921 4.67221H102.229L102.238 18.3737L102.24 18.38ZM120.617 18.3769V1.88253V0.775481H137.941V4.69063L124.907 4.68961V7.68289H133.962V11.4635H124.907V14.4668H138.022V18.383H120.606L120.617 18.3769ZM90.4004 18.3769V1.88253V0.775481H94.699V18.383H90.4004V18.3769ZM144.129 18.3769V4.68557H140.071V0.770422H156.211V4.68557H148.43V18.3769H144.132H144.129ZM76.203 18.3769V4.68557H72.1452V0.770422H88.2855V4.68557H80.5048V18.3769H76.2061H76.203ZM63.2403 7.67075C64.2907 7.66265 64.9191 7.67176 65.172 7.51775C65.172 7.51775 65.6134 7.27367 65.6185 6.7499L65.6195 5.59832C65.6195 5.07212 65.1731 4.83047 65.1731 4.83047C64.8379 4.64833 64.2699 4.68253 62.9215 4.68121H54.5468V7.67045H63.4325L63.2403 7.67075ZM65.5566 18.3769V12.3681C65.5566 11.8279 65.105 11.6016 65.105 11.6016C64.9014 11.4751 64.2917 11.4523 63.3939 11.4523H63.6025H54.5468V18.3759H50.2481V1.88152V0.774469H63.6663C65.9836 0.781553 67.5835 1.12237 68.6854 2.19218C69.7682 3.29518 69.9119 4.73819 69.918 6.23989V7.49366C69.9319 8.7697 69.2614 9.93342 68.4618 10.6114L68.6225 10.6911C68.9489 10.8492 69.1273 11.0732 69.1273 11.0732C69.7356 11.8498 69.7281 12.5182 69.7268 13.3399V18.3803H65.5567L65.5566 18.3769ZM0.550396 0.76941V1.87747V18.3719H4.84906V11.4543H17.8726V7.67176H4.84906V4.68051H19.9875V0.765362H0.548372L0.550396 0.76941Z" fill="var(--fill-0, black)" fill-opacity="0.64"/>
<path id="Vector_2" d="M154.755 15.2632V16.0715H155.508C155.712 16.0715 155.909 16.0159 155.939 15.7135C155.982 15.3126 155.693 15.2632 155.508 15.2632H154.755ZM154.453 14.9976H155.502C155.866 14.9976 156.218 15.0659 156.248 15.5958C156.261 15.8994 156.168 16.0095 155.939 16.1828C156.181 16.3371 156.187 16.3738 156.224 16.781C156.248 17.0896 156.205 17.139 156.335 17.3426H155.977L155.928 17.0466C155.878 16.7684 156.014 16.3371 155.527 16.3371H154.755V17.3427H154.453L154.453 14.9976ZM155.243 14.35C154.206 14.35 153.361 15.1949 153.368 16.2382C153.368 17.2744 154.207 18.1194 155.25 18.1143C156.287 18.1143 157.132 17.2744 157.132 16.2321C157.132 15.1949 156.286 14.35 155.243 14.35ZM155.25 18.3592C154.072 18.3592 153.121 17.4092 153.121 16.2321C153.115 15.0593 154.072 14.103 155.25 14.103C156.422 14.103 157.379 15.0593 157.379 16.2321C157.379 17.41 156.422 18.3552 155.25 18.3592Z" fill="var(--fill-0, black)" fill-opacity="0.64"/>
<path id="Vector_3" d="M44.3369 18.5519C45.7333 18.0775 46.8201 16.4693 47.0812 14.4475V13.8631H39.9218V18.5524H44.3359L44.3369 18.5519ZM47.0822 5.26529V4.73656C46.8078 2.62669 45.6402 0.964098 44.1517 0.573495H39.9229V5.26479L47.0822 5.26529ZM21.8853 13.8636V14.443C22.1445 16.4668 23.2311 18.0778 24.6316 18.5524H29.0234V13.8631L21.8853 13.8636ZM24.8148 0.577036C23.3283 0.967843 22.1575 2.63125 21.8853 4.74415V5.26914H29.0234V0.577846L24.8148 0.577036ZM47.0873 7.22135H39.9279V11.9126H47.0873V7.22135ZM30.9774 18.5549H37.981V13.8657H30.9774V18.5549ZM37.981 0.572989H30.9774V5.26428H37.981V0.572989ZM21.8913 11.9066H29.0295V7.21528H21.8913V11.9066Z" fill="var(--fill-0, black)" fill-opacity="0.64"/>
</g>
<defs>
<clipPath id="clip0_0_109">
<rect width="157.861" height="19.1159" fill="white"/>
</clipPath>
</defs>
</svg>
