<svg width="115" height="16" viewBox="0 0 115 16" fill="none" xmlns="http://www.w3.org/2000/svg">
<path d="M30.0394 15.5278H26.2309L26.1716 13.5199C25.7383 14.2872 25.0987 14.8927 24.2526 15.3351C23.4065 15.7775 22.4521 15.9999 21.3894 15.9999C19.8341 15.9999 18.6004 15.5723 17.6848 14.716C16.7691 13.8596 16.3119 12.7137 16.3119 11.277C16.3119 9.78211 16.8626 8.57573 17.9653 7.66124C19.0667 6.74562 20.5228 6.28838 22.3336 6.28838C23.711 6.28838 24.9504 6.51529 26.0531 6.96797C26.0325 4.54722 24.7737 3.33627 22.2743 3.33627C20.6209 3.33627 19.0462 3.82886 17.5502 4.8129L17.2252 1.47652C17.9139 1.02384 18.7646 0.664666 19.7783 0.398987C20.7919 0.133309 21.8102 0.00104007 22.8341 0.00104007C25.1762 0.00104007 26.9618 0.587129 28.1922 1.75703C29.4225 2.92806 30.0371 4.6259 30.0371 6.84939V15.5278H30.0394ZM25.0941 12.0729C25.6745 11.4435 25.9938 10.5677 26.0542 9.44574C25.1876 9.05235 24.2241 8.85509 23.1614 8.85509C22.2355 8.85509 21.5228 9.03753 21.0211 9.40127C20.5194 9.76615 20.2686 10.2918 20.2686 10.9805C20.2686 11.6305 20.4795 12.1322 20.9037 12.4856C21.3267 12.8403 21.9025 13.017 22.63 13.017C23.6916 13.0181 24.5137 12.7034 25.0941 12.0729Z" fill="#C93733"/>
<path d="M32.5169 11.3352C33.225 11.8073 34.022 12.1767 34.908 12.4424C35.794 12.7081 36.6492 12.8404 37.477 12.8404C39.1691 12.8404 40.0152 12.358 40.0152 11.3945C40.0152 10.9418 39.8384 10.5872 39.4838 10.3318C39.1292 10.0764 38.3915 9.79018 37.2694 9.47547C35.4587 8.98402 34.1737 8.37285 33.4165 7.64537C32.6583 6.91789 32.2797 5.92359 32.2797 4.66361C32.2797 3.20751 32.8259 2.06612 33.9183 1.23944C35.0106 0.412757 36.5112 0 38.42 0C39.3652 0 40.3094 0.10831 41.2546 0.324958C42.1999 0.541606 42.9764 0.826668 43.5864 1.18129L43.0847 4.31013C41.6081 3.54275 40.1224 3.15848 38.6263 3.15848C37.1509 3.15848 36.412 3.61116 36.412 4.51652C36.412 4.94982 36.599 5.29417 36.973 5.54959C37.347 5.80614 38.0448 6.07182 39.0688 6.34662C40.9582 6.89736 42.3014 7.54731 43.0984 8.29531C43.8954 9.04332 44.2945 10.057 44.2945 11.3364C44.2945 12.7731 43.7084 13.9099 42.5374 14.7457C41.3664 15.5815 39.7575 16 37.7107 16C36.6286 16 35.5602 15.862 34.5078 15.5861C33.4553 15.3113 32.6138 14.9567 31.9832 14.5234L32.5169 11.3352Z" fill="#C93733"/>
<path d="M45.8591 11.3352C46.5672 11.8073 47.3642 12.1767 48.2502 12.4424C49.1351 12.7081 49.9914 12.8404 50.8181 12.8404C52.5102 12.8404 53.3574 12.358 53.3574 11.3945C53.3574 10.9418 53.1807 10.5872 52.826 10.3318C52.4714 10.0764 51.7337 9.79018 50.6117 9.47547C48.801 8.98402 47.517 8.37285 46.7588 7.64537C46.0005 6.91789 45.6219 5.92359 45.6219 4.66361C45.6219 3.20751 46.1681 2.06612 47.2605 1.23944C48.3528 0.412757 49.8534 0 51.7622 0C52.7075 0 53.6516 0.10831 54.5957 0.324958C55.5398 0.541606 56.3175 0.826668 56.9275 1.18129L56.4258 4.31013C54.9492 3.54275 53.4634 3.15848 51.9686 3.15848C50.4919 3.15848 49.7542 3.61116 49.7542 4.51652C49.7542 4.94982 49.9412 5.29417 50.3152 5.54959C50.6892 5.80614 51.3882 6.07182 52.411 6.34662C54.3004 6.89736 55.6436 7.54731 56.4406 8.29531C57.2377 9.04332 57.6356 10.057 57.6356 11.3364C57.6356 12.7731 57.0495 13.9099 55.8785 14.7457C54.7075 15.5815 53.0986 16 51.0518 16C49.9697 16 48.9013 15.862 47.8489 15.5861C46.7953 15.3113 45.9549 14.9567 45.3243 14.5234L45.8591 11.3352Z" fill="#C93733"/>
<path d="M59.9546 3.9112C60.6525 2.71052 61.6274 1.77095 62.8771 1.0925C64.1268 0.412911 65.5681 0.0742559 67.2021 0.0742559C68.0675 0.0742559 68.9478 0.178019 69.844 0.384404C70.7391 0.59079 71.4917 0.871291 72.1017 1.22591L71.5704 4.82796C70.291 4.21793 68.9729 3.91234 67.6148 3.91234C66.2762 3.91234 65.2135 4.27608 64.4267 5.0047C63.6388 5.73332 63.2454 6.72648 63.2454 7.98646C63.2454 9.26582 63.6445 10.2704 64.4404 10.9979C65.2374 11.7265 66.3446 12.0902 67.7619 12.0902C68.4119 12.0902 69.0652 12.0218 69.7255 11.8838C70.3845 11.7459 71.0778 11.5201 71.8064 11.2042L72.2785 14.747C71.6091 15.121 70.8269 15.4106 69.9318 15.6182C69.0367 15.8245 68.1359 15.9283 67.2306 15.9283C65.5578 15.9283 64.096 15.6079 62.8463 14.9682C61.5966 14.3297 60.6274 13.4186 59.9387 12.2373C59.25 11.056 58.9056 9.66947 58.9056 8.0754C58.9067 6.49957 59.2557 5.11188 59.9546 3.9112Z" fill="#C93733"/>
<path d="M81.5526 15.9999C79.9973 15.9999 78.6051 15.6498 77.3759 14.952C76.1455 14.2542 75.1763 13.3043 74.4682 12.1037C73.7601 10.9041 73.4055 9.53582 73.4055 8.00104C73.4055 6.46512 73.7647 5.09796 74.483 3.89728C75.2014 2.69659 76.1752 1.74676 77.4055 1.04893C78.6358 0.349957 80.0178 0.00104007 81.5537 0.00104007C83.1284 0.00104007 84.5252 0.351097 85.7453 1.04893C86.9654 1.7479 87.93 2.69773 88.6381 3.89728C89.3462 5.09796 89.7008 6.46512 89.7008 8.00104C89.7008 9.51643 89.3417 10.879 88.6233 12.09C87.9049 13.3009 86.9357 14.2553 85.7157 14.9531C84.4945 15.6498 83.1068 15.9999 81.5526 15.9999ZM84.3268 5.00218C83.6187 4.22567 82.6929 3.8357 81.5515 3.8357C80.4295 3.8357 79.515 4.22453 78.8057 5.00218C78.0965 5.77983 77.743 6.77869 77.743 7.99876C77.743 9.21883 78.0976 10.2177 78.8057 10.9953C79.5138 11.773 80.4295 12.1618 81.5515 12.1618C82.6929 12.1618 83.6176 11.773 84.3268 10.9953C85.0361 10.2177 85.3895 9.21997 85.3895 7.99876C85.3907 6.77983 85.0361 5.78097 84.3268 5.00218Z" fill="#C93733"/>
<path d="M13.9168 15.8826H9.87346V7.07421C9.87346 5.46645 8.5656 4.15972 6.95784 4.15972C5.35009 4.15972 4.04336 5.46759 4.04336 7.07421V15.8826H3.26014e-05V7.07421C3.26014e-05 3.23726 3.12204 0.116395 6.95784 0.116395C10.7936 0.116395 13.9157 3.2384 13.9157 7.07421V15.8826H13.9168Z" fill="#C93733"/>
<path d="M105.085 15.8826H101.042V6.60784C101.042 5.25779 99.9439 4.15972 98.5939 4.15972C97.2438 4.15972 96.1457 5.25779 96.1457 6.60784V15.8826H92.1024V6.60784C92.1024 3.0286 95.0146 0.116395 98.5939 0.116395C102.173 0.116395 105.085 3.0286 105.085 6.60784V15.8826Z" fill="#C93733"/>
<path d="M114.027 15.8826H109.984V6.60784C109.984 5.25779 108.886 4.15972 107.536 4.15972C106.186 4.15972 105.088 5.25779 105.088 6.60784V15.8826H101.044V6.60784C101.044 3.0286 103.956 0.116395 107.536 0.116395C111.115 0.116395 114.027 3.0286 114.027 6.60784V15.8826Z" fill="#C93733"/>
</svg>
