<svg preserveAspectRatio="none" width="100%" height="100%" overflow="visible" style="display: block;" viewBox="0 0 148 24" fill="none" xmlns="http://www.w3.org/2000/svg">
<g id="Layer 1">
<path id="Vector" d="M11.8025 9.4756C11.0903 9.22215 10.4435 8.81362 9.90895 8.27961C9.37437 7.74561 8.9654 7.09951 8.71167 6.38811C8.48737 6.92365 8.15552 7.40755 7.73663 7.80992C6.78526 8.76026 5.59717 9.1401 4.36172 9.18739L4.37948 9.20513C3.49322 9.22958 2.63389 9.51479 1.9092 10.025C1.18451 10.5352 0.626696 11.2477 0.305656 12.0733C-0.0153834 12.8988 -0.0853616 13.8007 0.104491 14.6658C0.294344 15.5308 0.735582 16.3207 1.37291 16.9364C2.01023 17.5521 2.81529 17.9662 3.6872 18.1267C4.5591 18.2873 5.45906 18.1873 6.27428 17.8391C7.08951 17.491 7.78373 16.9102 8.26996 16.1697C8.75618 15.4291 9.01278 14.5616 9.00758 13.676C9.09784 12.4936 9.46181 11.3615 10.3762 10.4496C10.7925 10.0459 11.2749 9.71651 11.8025 9.4756Z" fill="var(--fill-0, black)" fill-opacity="0.64"/>
<path id="Vector_2" d="M35.0802 1.40145C34.2351 0.557492 33.089 0.0833843 31.894 0.0833843C30.6989 0.0833843 29.5528 0.557492 28.7077 1.40145C27.8944 2.20754 27.4261 3.29745 27.4012 4.44164C27.3287 5.67575 26.9722 6.86404 26.0223 7.81289C25.6123 8.22481 25.1278 8.55531 24.5945 8.78688C25.3099 9.0441 25.9598 9.45553 26.4981 9.99195C27.0364 10.5284 27.4498 11.1766 27.709 11.8906C27.928 11.3526 28.2605 10.8682 28.684 10.4703C29.6354 9.51995 30.8235 9.14011 32.0604 9.09282C33.2057 9.06594 34.2962 8.5978 35.1039 7.78629C35.9396 6.93192 36.4056 5.78355 36.4012 4.58903C36.3967 3.3945 35.9223 2.24961 35.0802 1.40145ZM33.5104 6.19895C33.0796 6.62409 32.4988 6.86298 31.8932 6.86404C31.5932 6.86557 31.2959 6.80756 31.0186 6.69339C30.7412 6.57922 30.4893 6.41115 30.2775 6.19895C29.9553 5.87903 29.7355 5.4708 29.6457 5.02596C29.556 4.58111 29.6005 4.11967 29.7735 3.70009C29.9465 3.28051 30.2403 2.92166 30.6177 2.66901C30.995 2.41635 31.4389 2.28126 31.8932 2.28084C32.1935 2.27879 32.4912 2.33654 32.7688 2.45074C33.0465 2.56494 33.2986 2.73328 33.5104 2.94593C33.9366 3.38 34.1753 3.96372 34.1753 4.5717C34.1753 5.17968 33.9366 5.7634 33.5104 6.19747V6.19895Z" fill="var(--fill-0, black)" fill-opacity="0.64"/>
<path id="Vector_3" d="M25.9499 10.5204C25.1362 9.70713 24.0408 9.23727 22.8901 9.20797L22.9079 9.19023C21.6709 9.13998 20.4828 8.78674 19.5315 7.8098C18.5801 6.86095 18.1999 5.67266 18.1525 4.43855L18.1348 4.45628C18.1094 3.57143 17.8232 2.71373 17.312 1.99063C16.8008 1.26753 16.0874 0.711207 15.2611 0.391348C14.4348 0.0714884 13.5324 0.00232286 12.6669 0.192517C11.8014 0.38271 11.0114 0.823805 10.3958 1.46054C9.78012 2.09727 9.36628 2.90132 9.20609 3.77195C9.0459 4.64259 9.14648 5.54108 9.49522 6.35487C9.84396 7.16866 10.4254 7.86155 11.1666 8.34673C11.9078 8.8319 12.7759 9.0878 13.662 9.08234C14.8457 9.1725 15.979 9.53755 16.8919 10.4495C17.8048 11.3614 18.1895 12.495 18.2605 13.6774C18.2568 14.4182 18.4363 15.1486 18.7829 15.8035C19.1296 16.4585 19.6328 17.0178 20.2479 17.4319C20.8629 17.8459 21.5708 18.1019 22.3087 18.1771C23.0465 18.2523 23.7915 18.1443 24.4776 17.8628C25.1637 17.5813 25.7695 17.1349 26.2415 16.5634C26.7134 15.9918 27.0367 15.3127 27.1828 14.5863C27.3289 13.8599 27.2932 13.1088 27.0789 12.3995C26.8646 11.6902 26.4783 11.0448 25.9543 10.5204H25.9499Z" fill="var(--fill-0, black)" fill-opacity="0.64"/>
<path id="Vector_4" d="M75.4915 18.2621C73.21 18.2621 71.7836 16.861 71.7836 14.6293V0.950631C71.78 0.824961 71.802 0.699864 71.8484 0.583003C71.8949 0.466142 71.9647 0.359975 72.0536 0.271006C72.1425 0.182037 72.2487 0.112137 72.3656 0.0655884C72.4825 0.0190397 72.6077 -0.00317837 72.7335 0.000294865C72.8586 -0.000900111 72.9826 0.022898 73.0983 0.0702894C73.2141 0.117681 73.3191 0.187709 73.4074 0.276254C73.4956 0.3648 73.5652 0.470075 73.6121 0.585888C73.659 0.701701 73.6822 0.825713 73.6805 0.950631V5.60477H77.0332C77.1564 5.59981 77.2794 5.61979 77.3948 5.6635C77.5101 5.70721 77.6155 5.77374 77.7044 5.85912C77.7934 5.94449 77.8642 6.04694 77.9125 6.16031C77.9609 6.27369 77.9858 6.39566 77.9858 6.51889C77.9858 6.64213 77.9609 6.7641 77.9125 6.87747C77.8642 6.99085 77.7934 7.0933 77.7044 7.17867C77.6155 7.26404 77.5101 7.33058 77.3948 7.37429C77.2794 7.41799 77.1564 7.43797 77.0332 7.43302H73.6805V14.5347C73.6805 15.8412 74.3226 16.456 75.6779 16.456C76.0257 16.4605 76.3716 16.4045 76.7003 16.2905C76.8052 16.2443 76.9185 16.2202 77.0332 16.2196C77.27 16.2277 77.4948 16.3253 77.6624 16.4926C77.8299 16.66 77.9276 16.8846 77.9357 17.1211C77.938 17.3081 77.8789 17.4907 77.7675 17.641C77.6561 17.7912 77.4985 17.9009 77.3187 17.9532C76.73 18.1527 76.1131 18.257 75.4915 18.2621Z" fill="var(--fill-0, black)" fill-opacity="0.64"/>
<path id="Vector_5" d="M85.5732 18.2621C83.8307 18.2244 82.1402 17.6618 80.7231 16.6482C80.6147 16.5572 80.5269 16.4443 80.4654 16.3169C80.4039 16.1895 80.3702 16.0505 80.3666 15.9092C80.3715 15.6587 80.4733 15.4198 80.6506 15.2426C80.828 15.0655 81.0671 14.9638 81.3179 14.9588C81.5301 14.9603 81.7367 15.0269 81.9097 15.1495C83.0934 16.0038 84.3348 16.4309 85.6412 16.4309C87.1208 16.4309 88.1388 15.6476 88.1388 14.5553V14.5081C88.1388 13.4868 87.14 13.0109 85.261 12.4891L85.2136 12.4655L85.1663 12.4418C83.265 11.895 80.911 11.2063 80.911 8.85481V8.80751C80.914 6.69697 82.7206 5.14953 85.2225 5.14953C86.6421 5.17842 88.0318 5.56205 89.2647 6.2654L89.2884 6.28905C89.4312 6.37671 89.5495 6.4989 89.6325 6.64433C89.7156 6.78977 89.7605 6.95376 89.7633 7.12115C89.7605 7.29228 89.7123 7.45961 89.6237 7.60609C89.5351 7.75257 89.4091 7.87295 89.2588 7.95497C89.1084 8.03699 88.9389 8.07772 88.7676 8.073C88.5963 8.06829 88.4294 8.01829 88.2837 7.92812C87.2614 7.33693 86.1916 7.00143 85.1693 7.00143C83.7903 7.00143 82.8389 7.69017 82.8389 8.6878V8.73509C82.8389 9.73272 84.0995 10.1599 85.8824 10.6831C87.4522 11.1265 90.0666 11.8462 90.0666 14.3869V14.4342C90.0666 16.6482 88.1891 18.2621 85.5732 18.2621Z" fill="var(--fill-0, black)" fill-opacity="0.64"/>
<path id="Vector_6" d="M94.202 18.1202C94.0748 18.1244 93.9481 18.1028 93.8295 18.0569C93.7109 18.0109 93.6028 17.9414 93.5117 17.8527C93.4206 17.7639 93.3484 17.6576 93.2995 17.5403C93.2506 17.423 93.2259 17.297 93.227 17.1699V0.950582C93.227 0.698537 93.3272 0.456816 93.5056 0.278593C93.684 0.10037 93.926 0.000245708 94.1783 0.000245708C94.4307 0.000245708 94.6726 0.10037 94.8511 0.278593C95.0295 0.456816 95.1297 0.698537 95.1297 0.950582V17.1699C95.1388 17.295 95.1213 17.4206 95.0783 17.5385C95.0352 17.6563 94.9676 17.7637 94.8799 17.8535C94.7922 17.9433 94.6865 18.0136 94.5696 18.0595C94.4528 18.1055 94.3275 18.1262 94.202 18.1202Z" fill="var(--fill-0, black)" fill-opacity="0.64"/>
<path id="Vector_7" d="M112.15 18.3108C108.537 18.3108 105.684 15.4361 105.684 11.756V11.7087C105.684 8.00342 108.537 5.1066 112.195 5.1066C115.808 5.1066 118.66 7.97977 118.66 11.6614V11.7087C118.66 15.4125 115.814 18.3108 112.15 18.3108ZM112.15 6.9585C109.607 6.9585 107.682 8.97741 107.682 11.688V11.7353C107.682 14.3957 109.654 16.5077 112.199 16.5077C114.744 16.5077 116.667 14.4902 116.667 11.7782V11.7309C116.669 9.04835 114.696 6.9585 112.15 6.9585Z" fill="var(--fill-0, black)" fill-opacity="0.64"/>
<path id="Vector_8" d="M62.7979 18.3108C59.2558 18.3108 56.5925 15.4834 56.5925 11.7323V11.6851C56.5925 8.00342 59.2321 5.1066 62.607 5.1066C65.9819 5.1066 68.4321 7.86154 68.4321 11.6363C68.4185 11.8817 68.3132 12.1131 68.137 12.2847C67.9609 12.4563 67.7267 12.5556 67.4807 12.563H60.9913C60.7559 12.563 60.5301 12.4695 60.3636 12.3032C60.1971 12.1369 60.1036 11.9114 60.1036 11.6762C60.1036 11.441 60.1971 11.2154 60.3636 11.0491C60.5301 10.8828 60.7559 10.7894 60.9913 10.7894H66.3873C66.1254 8.9375 65.0084 6.94667 62.5404 6.94667C60.5134 6.93485 58.8992 8.54879 58.5663 10.8293L58.5189 11.2091C58.4715 11.5717 58.4715 11.9388 58.5189 12.3014V12.325C58.7557 14.7711 60.5149 16.4811 62.7742 16.4811C64.1532 16.4811 65.2895 16.0066 66.3636 14.9617C66.4466 14.876 66.5466 14.8084 66.6571 14.7634C66.7677 14.7183 66.8864 14.6968 67.0058 14.7001C67.1294 14.6978 67.2522 14.72 67.3671 14.7654C67.4821 14.8108 67.5868 14.8786 67.6753 14.9648C67.7638 15.0511 67.8343 15.154 67.8827 15.2676C67.9311 15.3812 67.9564 15.5033 67.9571 15.6268C67.9561 15.7533 67.9279 15.8781 67.8746 15.9928C67.8212 16.1075 67.744 16.2095 67.6479 16.2919C66.269 17.693 64.819 18.3108 62.7979 18.3108Z" fill="var(--fill-0, black)" fill-opacity="0.64"/>
<path id="Vector_9" d="M122.088 23.1068C121.959 23.1103 121.831 23.0875 121.711 23.0399C121.592 22.9922 121.483 22.9207 121.392 22.8298C121.3 22.7388 121.229 22.6302 121.181 22.5106C121.133 22.3911 121.11 22.263 121.113 22.1343V11.1146C121.113 7.4817 123.924 5.1066 127.248 5.1066C130.861 5.1066 133.713 7.97977 133.713 11.6614V11.7087C133.713 15.4125 130.861 18.3108 127.203 18.3108C125.562 18.3108 124.089 17.7196 123.019 16.6244V22.1343C123.016 22.7033 122.634 23.1068 122.088 23.1068ZM123.016 12.2777C123.229 14.6765 124.846 16.3628 127.033 16.4811H127.271C128.031 16.49 128.778 16.2933 129.434 15.9121C129.505 15.8648 129.553 15.8411 129.624 15.7923C130.167 15.4356 130.618 14.9555 130.939 14.3912C130.986 14.3203 131.01 14.273 131.059 14.202C131.131 14.0739 131.19 13.9387 131.235 13.7986C131.501 13.1504 131.638 12.4566 131.639 11.756V11.7087C131.639 11.1447 131.552 10.584 131.383 10.046C131.337 9.89992 131.281 9.7572 131.216 9.61885C131.168 9.47763 131.104 9.34228 131.025 9.21536C130.64 8.51001 130.074 7.91976 129.386 7.50535C129.327 7.46348 129.263 7.43106 129.195 7.40928C129.066 7.33998 128.931 7.28449 128.791 7.24374C128.512 7.14278 128.226 7.06324 127.936 7.00579C127.786 6.97835 127.635 6.96254 127.483 6.9585H127.246C124.939 6.9585 123.275 8.64486 123.038 11.1382V12.2777H123.016Z" fill="var(--fill-0, black)" fill-opacity="0.64"/>
<path id="Vector_10" d="M103.499 18.1439C103.371 18.1454 103.243 18.1209 103.125 18.0718C103.006 18.0228 102.899 17.9503 102.809 17.8586L96.9104 11.898C96.7392 11.7315 96.639 11.5054 96.6307 11.2669C96.6224 11.0284 96.7068 10.7959 96.866 10.618L96.8897 10.5693L102.262 5.60623C102.42 5.42675 102.642 5.31593 102.881 5.29733C103.004 5.28282 103.129 5.29426 103.247 5.33092C103.366 5.36758 103.475 5.42864 103.569 5.51016C103.762 5.6755 103.882 5.90985 103.904 6.16294C103.926 6.41604 103.848 6.66771 103.687 6.86398L103.64 6.91128L98.8857 11.2329L104.14 16.5536C104.231 16.6431 104.304 16.7503 104.353 16.8687C104.402 16.9871 104.427 17.1142 104.425 17.2423C104.429 17.367 104.405 17.491 104.356 17.6056C104.306 17.7202 104.233 17.8227 104.14 17.9059C103.965 18.0648 103.735 18.1501 103.499 18.1439Z" fill="var(--fill-0, black)" fill-opacity="0.64"/>
<path id="Vector_11" d="M52.858 18.3108C52.7297 18.312 52.6024 18.2876 52.4836 18.2391C52.3649 18.1905 52.257 18.1188 52.1664 18.0281C52.0757 17.9374 52.0041 17.8296 51.9557 17.7109C51.9072 17.5922 51.883 17.465 51.8844 17.3368V10.686C51.8844 8.35816 50.6001 6.98069 48.437 6.98069C46.2739 6.98069 44.9896 8.35816 44.9896 10.686V17.3368C44.991 17.4651 44.9667 17.5924 44.9182 17.7112C44.8697 17.83 44.7979 17.9379 44.7071 18.0286C44.6163 18.1194 44.5082 18.191 44.3893 18.2395C44.2704 18.288 44.143 18.3122 44.0145 18.3108C43.8868 18.3136 43.7599 18.2901 43.6417 18.2418C43.5234 18.1936 43.4164 18.1215 43.3271 18.0302C43.2379 17.9389 43.1685 17.8302 43.1231 17.7109C43.0777 17.5916 43.0573 17.4643 43.0632 17.3368V10.4968C43.0632 7.26741 45.108 5.17608 48.2417 5.17608H48.5746C51.7364 5.17608 53.7531 7.26593 53.7531 10.4968V17.3368C53.7684 17.4616 53.7564 17.5882 53.7179 17.7079C53.6795 17.8276 53.6155 17.9375 53.5304 18.0301C53.4453 18.1227 53.3411 18.1957 53.225 18.2442C53.1089 18.2927 52.9837 18.3154 52.858 18.3108Z" fill="var(--fill-0, black)" fill-opacity="0.64"/>
<path id="Vector_12" d="M142.322 18.3108C138.782 18.3108 136.119 15.4834 136.119 11.7323V11.6851C136.119 8.00342 138.759 5.1066 142.134 5.1066C145.509 5.1066 147.956 7.86154 147.956 11.6363C147.95 11.8844 147.848 12.1206 147.67 12.2939C147.492 12.4672 147.253 12.5638 147.004 12.563H140.539C140.303 12.563 140.077 12.4695 139.911 12.3032C139.744 12.1369 139.651 11.9114 139.651 11.6762C139.651 11.441 139.744 11.2154 139.911 11.0491C140.077 10.8828 140.303 10.7894 140.539 10.7894H145.935C145.673 8.9375 144.556 6.94667 142.088 6.94667C140.067 6.94667 138.451 8.5621 138.118 10.8411L138.066 11.2091C138.019 11.5717 138.019 11.9388 138.066 12.3014V12.325C138.303 14.7711 140.062 16.4811 142.322 16.4811C143.701 16.4811 144.837 16.0066 145.911 14.9617C145.994 14.876 146.094 14.8084 146.204 14.7634C146.315 14.7183 146.434 14.6968 146.553 14.7001C146.677 14.698 146.799 14.7203 146.914 14.7658C147.029 14.8113 147.134 14.8791 147.222 14.9653C147.311 15.0515 147.381 15.1543 147.43 15.2678C147.478 15.3814 147.504 15.5034 147.505 15.6268C147.503 15.7533 147.475 15.8781 147.422 15.9928C147.369 16.1075 147.291 16.2095 147.195 16.2919C145.793 17.693 144.319 18.3108 142.322 18.3108Z" fill="var(--fill-0, black)" fill-opacity="0.64"/>
</g>
</svg>
