<svg preserveAspectRatio="none" width="100%" height="100%" overflow="visible" style="display: block;" viewBox="0 0 145 27" fill="none" xmlns="http://www.w3.org/2000/svg">
<g id="Palo Alto Networks" clip-path="url(#clip0_0_143)">
<path id="Vector" d="M61.3192 4.83935C59.4557 4.83935 57.5199 5.34723 55.1239 6.63024L56.455 9.92135C58.5357 8.75972 60.2544 8.25184 61.513 8.25184C62.941 8.25184 63.5703 8.78421 63.5703 9.48587V9.53379C63.5703 10.0182 63.1827 10.2844 62.2393 10.3813L60.5941 10.5506C56.4795 10.9861 54.7853 12.777 54.7853 15.245V15.4143C54.7853 17.7621 56.7212 19.6009 59.4557 19.6009C61.2564 19.6009 62.8207 18.8407 63.7716 17.4991L64.0782 19.3592H67.8052V10.9137C67.8052 6.92092 65.5062 4.83935 61.3192 4.83935ZM60.9561 16.3822C59.5771 16.3822 58.9233 15.8498 58.9233 15.0268V14.9789C58.9233 14.2527 59.3344 13.7203 60.8347 13.5031L61.4885 13.4062C62.4437 13.2732 63.0304 13.0975 63.5703 12.7706V13.8417C63.5703 15.4633 62.5534 16.3822 60.9561 16.3822Z" fill="var(--fill-0, black)" fill-opacity="0.64"/>
<path id="Vector_2" d="M26.2769 4.93623L21.5096 0.169388L16.7423 4.93623L19.1137 7.30847L7.15865 19.2623L11.926 24.0291L16.6933 19.2623L14.3219 16.8911L26.2769 4.93623ZM0.0182075 12.1233L11.9736 0.169175L16.7413 4.93633L4.78585 16.8906L0.0182075 12.1233ZM16.693 19.2629L28.6483 7.30868L33.4161 12.0759L21.4606 24.0301L16.693 19.2629Z" fill="var(--fill-0, black)" fill-opacity="0.64"/>
<path id="Vector_3" d="M70.227 1.47644e-05H74.4619V19.3591H70.227V1.47644e-05ZM47.6714 4.83925C45.7461 4.83925 44.2 5.69105 43.3492 7.02516L43.0254 5.08095H39.2985V24.1973H43.5334V17.5714C44.3395 18.814 45.8643 19.5997 47.6714 19.5997C51.0597 19.5997 53.8187 16.5993 53.8187 12.4607V11.9762C53.8187 7.84075 51.0597 4.83925 47.6714 4.83925ZM49.4624 12.3414C49.4624 14.5188 48.3252 16.0925 46.4372 16.0925C44.5492 16.0925 43.412 14.5199 43.412 12.3414V12.0997C43.412 9.92125 44.5492 8.34864 46.4372 8.34864C48.3252 8.34864 49.4624 9.92125 49.4624 12.0997V12.3414ZM131.601 4.83925C127.269 4.83925 124.219 7.83969 124.219 11.9783V12.4628C124.219 16.6004 127.269 19.6019 131.601 19.6019C135.932 19.6019 138.982 16.6014 138.982 12.4628V11.9783C138.982 7.84075 135.932 4.83925 131.601 4.83925ZM134.626 12.3414C134.626 14.5188 133.488 16.0925 131.601 16.0925C129.713 16.0925 128.575 14.5199 128.575 12.3414V12.0997C128.575 9.92125 129.713 8.34864 131.601 8.34864C133.488 8.34864 134.626 9.92125 134.626 12.0997V12.3414ZM142.975 5.71128V5.63887C142.975 5.22788 142.661 4.93721 142.104 4.93721H141.136V7.16358H141.596V6.41294H142.107L142.492 7.16358H143L142.527 6.28304C142.814 6.19467 142.975 5.97959 142.975 5.71128ZM141.595 5.3482H142.103C142.394 5.3482 142.514 5.44509 142.514 5.66336V5.68785C142.514 5.88163 142.393 6.00195 142.103 6.00195H141.595V5.3482Z" fill="var(--fill-0, black)" fill-opacity="0.64"/>
<path id="Vector_4" d="M142.008 3.75109C140.701 3.75109 139.709 4.74343 139.709 6.04986C139.709 7.3563 140.701 8.34864 142.008 8.34864C143.314 8.34864 144.307 7.3563 144.307 6.04986C144.307 4.74343 143.314 3.75109 142.008 3.75109ZM142.008 8.03347C140.871 8.03347 140.047 7.21043 140.047 6.0488C140.047 4.88717 140.871 4.06412 142.008 4.06412C143.145 4.06412 143.968 4.88717 143.968 6.0488C143.968 7.21043 143.145 8.03347 142.008 8.03347ZM107.521 1.47644e-05H111.756V19.3591H107.521V1.47644e-05ZM120.106 16.0925C118.872 16.0925 118.412 15.4877 118.412 14.1813V8.34864H123.397V5.08202H118.412V1.81433L114.177 2.44359V14.5912C114.177 17.9068 115.871 19.6008 119.259 19.6008C120.76 19.6008 122.526 19.1408 123.979 18.3178L122.769 15.3174C121.921 15.7773 120.735 16.0925 120.106 16.0925ZM98.6153 4.83925C96.7518 4.83925 94.8159 5.34714 92.42 6.63015L93.7511 9.92126C95.8318 8.75963 97.5504 8.25174 98.8091 8.25174C100.237 8.25174 100.866 8.78411 100.866 9.48578V9.53369C100.866 10.0181 100.479 10.2843 99.5353 10.3812L97.8901 10.5505C93.7756 10.986 92.0814 12.7769 92.0814 15.245V15.4142C92.0814 17.762 94.0173 19.6008 96.7518 19.6008C98.5514 19.6008 100.117 18.8406 101.068 17.499L101.374 19.3591H105.101V10.9136C105.101 6.92082 102.802 4.83925 98.6153 4.83925ZM98.2522 16.3821C96.8721 16.3821 96.2194 15.8497 96.2194 15.0267V14.9788C96.2194 14.2526 96.6304 13.7202 98.1308 13.503L98.7846 13.4061C99.7398 13.2731 100.326 13.0974 100.865 12.7705V13.8416C100.865 15.4632 99.8494 16.3821 98.2522 16.3821ZM83.7319 4.83925C79.4001 4.83925 76.3504 7.83969 76.3504 11.9783V12.4628C76.3504 16.6004 79.4001 19.6019 83.7319 19.6019C88.0637 19.6019 91.1134 16.6014 91.1134 12.4628V11.9783C91.1124 7.84075 88.0637 4.83925 83.7319 4.83925ZM86.7561 12.3414C86.7561 14.5188 85.6188 16.0925 83.7309 16.0925C81.8429 16.0925 80.7056 14.5199 80.7056 12.3414V12.0997C80.7056 9.92126 81.8429 8.34864 83.7309 8.34864C85.6188 8.34864 86.7561 9.92126 86.7561 12.0997V12.3414ZM101.067 22.7918H102.152L103.65 24.7669H103.665V22.7918H104.66V26.2746H103.61L102.077 24.2495H102.062V26.2746H101.067V22.7918ZM105.984 22.7918H109.03L109.07 23.6372H107.024V24.1153H108.631V24.8862H107.024V25.4292H109.13L109.089 26.2746H105.984V22.7918ZM111.25 23.6873H110.03L110.07 22.7918H113.478L113.519 23.6873H112.3V26.2746H111.25V23.6873ZM114.36 22.7918H115.474L116.042 25.2098H116.097L116.833 22.7918H117.854L118.575 25.2098H118.63L119.187 22.7918H120.252L119.336 26.2746H117.968L117.331 24.1749H117.301L116.654 26.2746H115.28L114.36 22.7918ZM121.019 24.5337C121.019 23.3987 121.79 22.6875 123.009 22.6875C124.228 22.6875 125 23.3987 125 24.5337C125 25.6687 124.229 26.38 123.009 26.38C121.79 26.38 121.019 25.6677 121.019 24.5337ZM123.96 24.5337C123.96 23.9322 123.612 23.5733 123.009 23.5733C122.406 23.5733 122.058 23.9322 122.058 24.5337C122.058 25.1364 122.406 25.4941 123.003 25.4941C123.606 25.4941 123.96 25.1353 123.96 24.5337ZM126.13 22.7918H128.161C129.086 22.7918 129.54 23.2294 129.54 24.0408C129.54 24.5976 129.311 24.9767 128.862 25.1555L129.689 26.2757H128.504L127.862 25.36H127.176V26.2757H126.13V22.7918ZM128.025 24.5433C128.374 24.5433 128.498 24.3495 128.498 24.0855C128.498 23.8214 128.374 23.633 128.025 23.633H127.174V24.5433H128.025ZM130.897 22.7918H131.942V24.0759H132.37L133.39 22.7918H134.565L134.57 22.7961L133.237 24.4635L134.644 26.2703L134.639 26.2746H133.42L132.366 24.9362H131.942V26.2746H130.897V22.7918ZM135.445 26.0457V25.0906H135.45C136.033 25.3845 136.601 25.5282 137.092 25.5282C137.466 25.5282 137.655 25.4388 137.655 25.2641C137.655 25.0895 137.53 25.0448 136.784 24.9256C135.968 24.7967 135.425 24.5518 135.425 23.8502C135.425 23.1986 135.998 22.696 137.117 22.696C137.565 22.696 138.033 22.7908 138.466 22.975V23.9204L138.461 23.9258C138.048 23.6873 137.491 23.5371 137.042 23.5371C136.644 23.5371 136.486 23.6319 136.486 23.7905C136.486 23.995 136.729 24.0141 137.342 24.1196C138.157 24.259 138.7 24.488 138.7 25.2248C138.7 25.7965 138.272 26.3693 137.044 26.3693C136.437 26.3693 135.953 26.2448 135.445 26.0457Z" fill="var(--fill-0, black)" fill-opacity="0.64"/>
</g>
<defs>
<clipPath id="clip0_0_143">
<rect width="144.325" height="26.38" fill="white"/>
</clipPath>
</defs>
</svg>
