<svg preserveAspectRatio="none" width="100%" height="100%" overflow="visible" style="display: block;" viewBox="0 0 103 39" fill="none" xmlns="http://www.w3.org/2000/svg">
<g id="Group 91966">
<g id="Vector">
</g>
<g id="Group">
<path id="Vector_2" d="M35.9793 9.78592L35.2968 8.9163L31.5816 10.5014L30.0185 9.43917L27.5142 9.97856L24.7677 11.2059L24.0577 12.7911L25.3787 14.3487L26.3859 14.6459L29.0553 11.8719L26.6941 15.7247L24.8778 15.1358L24.4595 14.5248L21.4103 18.3005L11.9215 20.7993C11.5913 20.7993 11.1014 20.8103 11.1014 20.8103C2.31164 17.0456 7.36426 11.9985 7.41379 11.938C7.35325 11.971 0.203626 15.5816 8.28342 22.2358L6.76983 23.9531L5.69656 28.8076L2.97762 30.9651L-1.90361e-05 37.4322H2.8235L3.28584 36.3425L2.19055 36.0728L3.97383 32.9685C4.904 32.4732 8.22288 31.1357 8.87785 30.6844L13.292 25.1309L18.2346 26.6885L18.928 23.6173L19.1702 24.1292L19.55 28.5103L17.4585 37.8726H20.4141V36.9204L19.3078 36.4525L22.9019 28.3838C22.9019 28.3838 28.3673 24.8998 28.3618 24.8667C28.3453 24.7787 31.0147 16.5613 31.0147 16.5613L34.3171 16.2806L35.2858 14.9541L31.3725 14.9651L35.9132 11.6187L35.9573 9.79143L35.9793 9.78592Z" fill="var(--fill-0, black)" fill-opacity="0.64"/>
<g id="Group_2">
<path id="Vector_3" d="M23.8327 28.8904L27.4267 26.6117L23.541 35.6712L24.6472 36.095V37.0087H22.0439L23.8327 28.8904Z" fill="var(--fill-0, black)" fill-opacity="0.64"/>
<path id="Vector_4" d="M14.759 30.9323L10.6475 33.0183L9.13393 35.6932L10.2843 36.0124L9.82193 36.9976H7.29011L9.26052 31.7579C9.45316 31.6423 11.5337 29.7765 11.5337 29.7765L11.7098 28.5986L13.6362 26.1824L16.4927 27.0905L14.7645 30.9323H14.759Z" fill="var(--fill-0, black)" fill-opacity="0.64"/>
<path id="Vector_5" d="M30.327 20.2657L22.0876 17.167L22.9077 16.1378L30.6792 18.9283L30.327 20.2657Z" fill="var(--fill-0, black)" fill-opacity="0.64"/>
</g>
</g>
<g id="Group_3">
<path id="Vector_6" d="M38.7212 9.68711V14.9599H41.242V7.87081L38.7212 9.68711Z" fill="var(--fill-0, black)" fill-opacity="0.64"/>
<path id="Vector_7" d="M44.1246 5.80129V14.9599H46.6454V3.98499L44.1246 5.80129Z" fill="var(--fill-0, black)" fill-opacity="0.64"/>
<path id="Vector_8" d="M49.6639 1.81641V14.9598H52.1847V0.000103719L49.6639 1.81641Z" fill="var(--fill-0, black)" fill-opacity="0.64"/>
</g>
<g id="Group_4">
<path id="Vector_9" d="M42.8545 38.3627H41.3024L39.7008 35.275H39.6733C39.6843 35.3685 39.6898 35.4841 39.7008 35.6162C39.7063 35.7483 39.7173 35.8804 39.7228 36.018C39.7283 36.1556 39.7338 36.2767 39.7338 36.3868V38.3627H38.6826V33.976H40.2292L41.8253 37.0252H41.8418C41.8363 36.9317 41.8308 36.8161 41.8253 36.6895C41.8198 36.5629 41.8143 36.4363 41.8088 36.3042C41.8088 36.1721 41.8033 36.0565 41.8033 35.9575V33.976H42.86V38.3627H42.8545Z" fill="var(--fill-0, black)" fill-opacity="0.64"/>
<path id="Vector_10" d="M47.4758 38.3627H44.8724V33.976H47.4758V34.9282H46.0558V35.6162H47.3712V36.5684H46.0558V37.394H47.4758V38.3627Z" fill="var(--fill-0, black)" fill-opacity="0.64"/>
<path id="Vector_11" d="M51.3139 38.3627H50.1306V34.9447H49.0573V33.976H52.3817V34.9447H51.3139V38.3627Z" fill="var(--fill-0, black)" fill-opacity="0.64"/>
<path id="Vector_12" d="M60.0416 33.9759L58.9628 38.3626H57.5593L57.141 36.4527C57.1355 36.4142 57.119 36.3536 57.1025 36.2711C57.086 36.1885 57.0639 36.0894 57.0474 35.9794C57.0309 35.8693 57.0089 35.7592 56.9924 35.6546C56.9759 35.5501 56.9649 35.4565 56.9539 35.3849C56.9484 35.4565 56.9318 35.5501 56.9153 35.6546C56.8988 35.7592 56.8768 35.8693 56.8548 35.9794C56.8328 36.0894 56.8163 36.1885 56.7942 36.2711C56.7777 36.3591 56.7612 36.4197 56.7557 36.4527L56.3319 38.3626H54.9284L53.8441 33.9759H54.989L55.4678 36.1775C55.4788 36.2325 55.4953 36.3096 55.5173 36.4087C55.5393 36.5077 55.5614 36.6178 55.5834 36.7334C55.6054 36.849 55.6274 36.9646 55.6494 37.0691C55.6714 37.1792 55.6824 37.2673 55.6935 37.3388C55.71 37.2122 55.732 37.0746 55.7595 36.915C55.787 36.7554 55.8145 36.5958 55.8476 36.4307C55.8806 36.2656 55.9136 36.117 55.9411 35.9739C55.9687 35.8363 55.9962 35.7207 56.0182 35.6326L56.4035 33.9759H57.5043L57.8785 35.6326C57.9005 35.7207 57.9226 35.8308 57.9556 35.9739C57.9886 36.117 58.0161 36.2656 58.0491 36.4307C58.0822 36.5958 58.1152 36.7554 58.1427 36.915C58.1702 37.0746 58.1922 37.2122 58.2033 37.3333C58.2143 37.2343 58.2363 37.1077 58.2638 36.9536C58.2913 36.7995 58.3188 36.6508 58.3519 36.5077C58.3794 36.3646 58.4014 36.2546 58.4179 36.1775L58.9023 33.9704H60.0471L60.0416 33.9759Z" fill="var(--fill-0, black)" fill-opacity="0.64"/>
<path id="Vector_13" d="M65.6832 36.161C65.6832 36.4967 65.6447 36.8049 65.5621 37.0856C65.4795 37.3608 65.353 37.603 65.1823 37.8011C65.0117 37.9993 64.7916 38.1534 64.5219 38.2635C64.2522 38.368 63.9274 38.4231 63.5532 38.4231C63.1789 38.4231 62.8652 38.368 62.5955 38.2635C62.3258 38.1589 62.1056 38.0048 61.9295 37.8066C61.7534 37.6085 61.6268 37.3718 61.5442 37.0911C61.4617 36.8159 61.4176 36.5022 61.4176 36.161C61.4176 35.7041 61.4947 35.3078 61.6433 34.9721C61.7919 34.6364 62.0286 34.3722 62.3423 34.1905C62.656 34.0089 63.0633 33.9154 63.5532 33.9154C64.043 33.9154 64.4613 34.0089 64.775 34.1961C65.0888 34.3832 65.3199 34.6419 65.463 34.9831C65.6116 35.3189 65.6832 35.7206 65.6832 36.172V36.161ZM62.667 36.161C62.667 36.4251 62.6945 36.6508 62.7551 36.8435C62.8156 37.0361 62.9092 37.1792 63.0413 37.2838C63.1734 37.3883 63.344 37.4379 63.5532 37.4379C63.7623 37.4379 63.9439 37.3883 64.076 37.2838C64.2026 37.1792 64.2962 37.0361 64.3567 36.8435C64.4118 36.6563 64.4448 36.4251 64.4448 36.161C64.4448 35.7647 64.3788 35.4509 64.2467 35.2198C64.1146 34.9886 63.8889 34.873 63.5642 34.873C63.3495 34.873 63.1789 34.9226 63.0468 35.0271C62.9147 35.1317 62.8211 35.2803 62.7606 35.473C62.7001 35.6656 62.6725 35.8913 62.6725 36.1555L62.667 36.161Z" fill="var(--fill-0, black)" fill-opacity="0.64"/>
<path id="Vector_14" d="M68.9809 33.9759C69.3772 33.9759 69.7074 34.0255 69.9716 34.119C70.2358 34.2181 70.434 34.3612 70.5661 34.5538C70.6982 34.7465 70.7642 34.9832 70.7642 35.2694C70.7642 35.4455 70.7367 35.6106 70.6761 35.7537C70.6156 35.9023 70.533 36.0289 70.4175 36.1445C70.3074 36.2601 70.1753 36.3591 70.0212 36.4472L71.2981 38.3571H69.9551L69.025 36.7609H68.7277V38.3571H67.5444V33.9704H68.9809V33.9759ZM68.9589 34.8731H68.7222V35.8748H68.9424C69.124 35.8748 69.2726 35.8363 69.3882 35.7537C69.5038 35.6711 69.5644 35.5335 69.5644 35.3244C69.5644 35.1813 69.5148 35.0712 69.4212 34.9887C69.3277 34.9061 69.1681 34.8676 68.9589 34.8676V34.8731Z" fill="var(--fill-0, black)" fill-opacity="0.64"/>
<path id="Vector_15" d="M76.5989 38.3627H75.2614L74.3918 36.684L74.0396 36.8931V38.3627H72.8507V33.976H74.0396V35.8804C74.0891 35.7868 74.1496 35.6878 74.2102 35.5942C74.2707 35.5006 74.3368 35.4071 74.4028 35.319L75.322 33.976H76.6154L75.2339 35.9409L76.5934 38.3627H76.5989Z" fill="var(--fill-0, black)" fill-opacity="0.64"/>
<path id="Vector_16" d="M81.1276 37.0306C81.1276 37.2673 81.067 37.493 80.9459 37.7076C80.8249 37.9223 80.6377 38.0929 80.3845 38.225C80.1314 38.3571 79.8066 38.4231 79.4048 38.4231C79.2067 38.4231 79.0306 38.4121 78.8765 38.3956C78.7279 38.3791 78.5847 38.3461 78.4527 38.3075C78.3206 38.269 78.1885 38.214 78.0454 38.1479V37.0912C78.282 37.2123 78.5242 37.3003 78.7664 37.3664C79.0086 37.4269 79.2287 37.4599 79.4214 37.4599C79.5369 37.4599 79.636 37.4434 79.7131 37.4159C79.7901 37.3884 79.8451 37.3499 79.8782 37.3003C79.9167 37.2508 79.9332 37.1957 79.9332 37.1297C79.9332 37.0526 79.9057 36.9866 79.8562 36.9371C79.8066 36.8875 79.7186 36.827 79.603 36.7719C79.4874 36.7114 79.3333 36.6398 79.1462 36.5573C78.9865 36.4802 78.8379 36.4032 78.7058 36.3206C78.5737 36.2381 78.4637 36.15 78.3701 36.0454C78.2765 35.9408 78.205 35.8198 78.1554 35.6822C78.1059 35.5446 78.0784 35.3794 78.0784 35.1923C78.0784 34.9116 78.1499 34.6749 78.2875 34.4823C78.4251 34.2897 78.6233 34.1466 78.871 34.053C79.1186 33.9594 79.4048 33.9099 79.7351 33.9099C80.0213 33.9099 80.28 33.9429 80.5056 34.0035C80.7368 34.0695 80.9404 34.1411 81.1221 34.2236L80.7588 35.1373C80.5717 35.0492 80.3845 34.9832 80.2029 34.9336C80.0213 34.8841 79.8507 34.8566 79.6965 34.8566C79.592 34.8566 79.5094 34.8676 79.4434 34.8951C79.3773 34.9226 79.3278 34.9556 79.3003 34.9942C79.2672 35.0382 79.2562 35.0822 79.2562 35.1373C79.2562 35.2033 79.2838 35.2639 79.3333 35.3189C79.3883 35.3739 79.4764 35.429 79.603 35.495C79.7296 35.5556 79.9002 35.6381 80.1148 35.7372C80.3295 35.8308 80.5111 35.9353 80.6597 36.0454C80.8083 36.1555 80.9239 36.2876 81.001 36.4417C81.078 36.5958 81.1221 36.7885 81.1221 37.0141L81.1276 37.0306Z" fill="var(--fill-0, black)" fill-opacity="0.64"/>
</g>
<g id="Group_5">
<g id="Group_6">
<g id="Group_7">
<path id="Vector_17" d="M58.8724 25.5219C58.8724 28.7857 57.3148 30.4204 54.194 30.4204C51.0733 30.4204 49.6533 28.8242 49.6533 25.6374V19.3629H52.1741V25.6705C52.1741 27.4262 52.8786 28.3069 54.2876 28.3069C55.6966 28.3069 56.3626 27.4592 56.3626 25.7585V19.3629H58.8724V25.5274V25.5219Z" fill="var(--fill-0, black)" fill-opacity="0.64"/>
<path id="Vector_18" d="M68.8498 29.8423C68.0352 30.2276 66.973 30.4203 65.663 30.4203C63.9513 30.4203 62.6084 29.9304 61.6287 28.9507C60.6489 27.971 60.1591 26.6666 60.1591 25.0319C60.1591 23.2926 60.7095 21.8836 61.8103 20.8049C62.9111 19.7261 64.3421 19.1812 66.0979 19.1812C67.1876 19.1812 68.1013 19.3133 68.8498 19.583V21.9387C68.1013 21.5039 67.2537 21.2892 66.3015 21.2892C65.2558 21.2892 64.4081 21.6084 63.7697 22.2524C63.1257 22.8964 62.8065 23.766 62.8065 24.8613C62.8065 25.9566 63.1092 26.7491 63.7146 27.3711C64.3201 27.993 65.1347 28.3067 66.1639 28.3067C67.1931 28.3067 68.0408 28.0756 68.8553 27.6077V29.8423H68.8498Z" fill="var(--fill-0, black)" fill-opacity="0.64"/>
<path id="Vector_19" d="M90.6811 25.5219C90.6811 28.7857 89.1235 30.4204 86.0028 30.4204C82.882 30.4204 81.462 28.8242 81.462 25.6374V19.3629H83.9828V25.6705C83.9828 27.4262 84.6873 28.3069 86.0963 28.3069C87.5053 28.3069 88.1713 27.4592 88.1713 25.7585V19.3629H90.6811V25.5274V25.5219Z" fill="var(--fill-0, black)" fill-opacity="0.64"/>
<path id="Vector_20" d="M92.0963 29.8149V27.3876C92.5476 27.7564 93.0375 28.0316 93.5659 28.2187C94.0943 28.4059 94.6281 28.4939 95.1675 28.4939C95.4812 28.4939 95.7619 28.4664 95.9931 28.4114C96.2298 28.3563 96.4279 28.2793 96.582 28.1802C96.7417 28.0811 96.8572 27.9656 96.9343 27.8335C97.0113 27.7014 97.0499 27.5528 97.0499 27.3987C97.0499 27.184 96.9893 26.9969 96.8627 26.8317C96.7361 26.6666 96.571 26.5125 96.3509 26.3694C96.1362 26.2263 95.883 26.0942 95.5858 25.9621C95.2886 25.83 94.9694 25.6979 94.6281 25.5603C93.7585 25.2081 93.1091 24.7733 92.6797 24.2669C92.2504 23.755 92.0358 23.1386 92.0358 22.4176C92.0358 21.8507 92.1514 21.3663 92.388 20.959C92.6192 20.5517 92.9384 20.216 93.3402 19.9573C93.742 19.6931 94.2043 19.5005 94.7382 19.3794C95.2666 19.2583 95.828 19.1923 96.4169 19.1923C97.0058 19.1923 97.5122 19.2253 97.958 19.2968C98.4038 19.3629 98.8221 19.4675 99.1964 19.6106V21.8782C99.0093 21.7516 98.8056 21.6415 98.5855 21.5425C98.3653 21.4489 98.1397 21.3663 97.903 21.3058C97.6718 21.2452 97.4351 21.1957 97.2095 21.1682C96.9783 21.1352 96.7582 21.1242 96.5545 21.1242C96.2683 21.1242 96.0096 21.1517 95.7785 21.2012C95.5473 21.2563 95.3492 21.3278 95.1895 21.4269C95.0299 21.5204 94.9033 21.636 94.8153 21.7736C94.7272 21.9057 94.6832 22.0598 94.6832 22.2249C94.6832 22.4066 94.7327 22.5717 94.8318 22.7148C94.9309 22.8579 95.0685 22.9955 95.2501 23.1221C95.4317 23.2487 95.6519 23.3753 95.9106 23.5019C96.1692 23.6229 96.461 23.755 96.7912 23.8871C97.237 24.0688 97.6388 24.2614 97.991 24.4651C98.3433 24.6687 98.6515 24.8999 98.9047 25.1585C99.1579 25.4172 99.3505 25.7089 99.4881 26.0392C99.6202 26.3694 99.6918 26.7547 99.6918 27.195C99.6918 27.8004 99.5762 28.3123 99.3395 28.7196C99.1028 29.1324 98.7836 29.4626 98.3818 29.7213C97.98 29.9745 97.5067 30.1616 96.9728 30.2717C96.4389 30.3818 95.872 30.4368 95.2721 30.4368C94.6722 30.4368 94.0777 30.3873 93.5273 30.2827C92.977 30.1837 92.4981 30.0295 92.0908 29.8259L92.0963 29.8149Z" fill="var(--fill-0, black)" fill-opacity="0.64"/>
<path id="Vector_21" d="M73.1164 30.2278H70.6067V19.3575H73.1164V30.2278Z" fill="var(--fill-0, black)" fill-opacity="0.64"/>
</g>
<path id="Vector_22" d="M74.1089 25.5109L77.9947 30.2278H81.1649L76.305 24.5477L80.1907 19.363H77.2021L74.1199 23.8927L74.1089 25.5109Z" fill="var(--fill-0, black)" fill-opacity="0.64"/>
<path id="Vector_23" d="M46.036 26.0007C46.3387 25.8576 46.6194 25.6815 46.8726 25.4723C47.6761 24.7954 48.0834 23.9147 48.0834 22.8249C48.0834 20.5133 46.6799 19.363 43.8729 19.363H38.6882V30.2333H41.198V21.2453H43.4381C44.7755 21.2453 45.4415 21.8012 45.4415 22.9185C45.4415 24.0358 44.7755 24.6302 43.4381 24.6302V24.6413H42.0181L46.4818 30.2333H49.652L46.0415 26.0062L46.036 26.0007Z" fill="var(--fill-0, black)" fill-opacity="0.64"/>
</g>
<path id="Vector_24" d="M102.451 20.0344C102.451 20.6618 101.944 21.1572 101.284 21.1572C100.623 21.1572 100.111 20.6618 100.111 20.0344C100.111 19.4069 100.629 18.9226 101.284 18.9226C101.939 18.9226 102.451 19.4179 102.451 20.0344ZM100.403 20.0344C100.403 20.5297 100.777 20.9205 101.289 20.9205C101.801 20.9205 102.153 20.5297 102.153 20.0399C102.153 19.55 101.785 19.1482 101.278 19.1482C100.772 19.1482 100.398 19.55 100.398 20.0344H100.403ZM101.108 20.6178H100.843V19.506C100.948 19.484 101.091 19.473 101.278 19.473C101.493 19.473 101.592 19.506 101.675 19.5555C101.735 19.6051 101.785 19.6931 101.785 19.7977C101.785 19.9188 101.686 20.0123 101.548 20.0564V20.0674C101.658 20.1059 101.719 20.1885 101.757 20.3371C101.79 20.5077 101.812 20.5738 101.84 20.6123H101.553C101.52 20.5738 101.498 20.4692 101.465 20.3426C101.443 20.2215 101.377 20.1665 101.229 20.1665H101.102V20.6123L101.108 20.6178ZM101.113 19.9903H101.24C101.383 19.9903 101.504 19.9408 101.504 19.8307C101.504 19.7316 101.427 19.6601 101.262 19.6601C101.19 19.6601 101.146 19.6656 101.119 19.6711V19.9903H101.113Z" fill="var(--fill-0, black)" fill-opacity="0.64"/>
</g>
</g>
</svg>
