<svg preserveAspectRatio="none" width="100%" height="100%" overflow="visible" style="display: block;" viewBox="0 0 131 29" fill="none" xmlns="http://www.w3.org/2000/svg">
<g id="Group">
<path id="Vector" d="M43.5902 14.281C44.3031 18.7911 40.5222 21.3351 36.7413 21.6052C34.8131 25.1808 30.8432 28.0867 25.107 28.0867C22.7596 28.1718 20.4306 27.6431 18.35 26.5527C17.8421 26.6454 17.3269 26.6924 16.8106 26.6932C14.8068 26.6932 13.4402 26.2287 12.1061 24.6461C14.8068 21.011 23.0275 14.4755 33.0415 17.8513C38.3941 19.6499 39.7877 15.4207 38.4428 13.8381C33.398 7.85892 21.9905 13.2386 21.5854 13.6923C26.0414 6.541 42.0616 4.54253 43.5902 14.281ZM28.2397 6.07109C28.2721 6.07109 24.6047 4.71537 19.4735 7.02712C19.2667 6.94085 19.0648 6.84348 18.8685 6.73545C23.7999 3.32724 28.1263 1.8743 31.8316 2.41442C29.4442 0.313326 26.83 5.22711e-05 23.0167 5.22711e-05C18.7875 5.22711e-05 15.039 1.65825 12.6624 4.22385C11.9264 4.06152 11.1746 3.9818 10.4209 3.9862C4.69016 3.9862 -0.284417 9.39288 0.0126537 15.5341C0.309724 21.6754 6.75345 25.5049 10.4209 24.4733C10.5102 24.457 10.6017 24.457 10.691 24.4733C11.5012 20.4115 14.8122 10.9647 28.2397 6.07109ZM58.9244 11.6938L59.6104 8.56108H48.1327L47.8734 9.77097C47.8098 9.98979 47.7981 10.2204 47.8394 10.4446C47.8807 10.6687 47.9737 10.88 48.111 11.0619C48.2456 11.2373 48.4204 11.378 48.6205 11.472C48.8207 11.5659 49.0405 11.6105 49.2615 11.602H54.5656L45.1565 20.2495L44.5192 23.1553H56.6775L57.3904 19.9848H49.7044L58.9244 11.6938ZM66.5834 14.2162C66.4374 14.2154 66.2921 14.1954 66.1513 14.1568C65.9675 14.1186 65.7869 14.0662 65.6112 14.0002C63.8774 13.5951 63.0726 13.1036 63.1968 12.5148C63.2362 12.3108 63.3181 12.1173 63.4372 11.947C63.5563 11.7767 63.71 11.6334 63.8882 11.5264C64.4037 11.2829 64.9717 11.1715 65.541 11.2023C66.1239 11.1548 66.7031 11.3305 67.1614 11.6938L67.4854 12.1313C67.5653 12.4153 67.7404 12.6631 67.9814 12.8332C68.2223 13.0033 68.5144 13.0855 68.8087 13.0657H71.0719C71.2205 12.4462 71.2217 11.8005 71.0753 11.1804C70.929 10.5603 70.6392 9.98322 70.2293 9.4955C69.3291 8.6601 67.9661 8.24061 66.1405 8.237C64.588 8.20097 63.0615 8.64006 61.7655 9.4955C60.6106 10.334 59.8049 11.5684 59.5023 12.9631C59.3655 13.4089 59.3378 13.8809 59.4215 14.3396C59.5051 14.7983 59.6977 15.2302 59.9831 15.5989C60.4692 16.2579 61.6034 16.825 63.3427 17.3004C63.7819 17.4444 64.2315 17.5545 64.6876 17.6298C66.0919 17.9593 66.7239 18.4562 66.578 19.1098C66.5228 19.3371 66.4168 19.5489 66.2681 19.7295C66.1194 19.91 65.9317 20.0545 65.7192 20.1522C65.1837 20.4228 64.5907 20.56 63.9908 20.5519C63.2858 20.6059 62.5838 20.4151 62.0031 20.0118C61.7911 19.8062 61.6393 19.5466 61.5641 19.261C61.4889 18.9755 61.4931 18.6747 61.5764 18.3914H58.0008L57.963 18.5534C57.6173 20.1738 57.8496 21.3891 58.6868 22.2263C59.5239 23.0635 60.8743 23.4956 62.8889 23.4902C64.9954 23.4902 66.6698 23.0905 67.8851 22.2803C68.5301 21.8586 69.0841 21.3121 69.5145 20.673C69.9449 20.0338 70.243 19.315 70.3913 18.5589C70.5286 18.1167 70.5621 17.6488 70.489 17.1917C70.4159 16.7345 70.2383 16.3003 69.97 15.923C69.3903 15.2605 68.2614 14.6915 66.5834 14.2162ZM79.7463 18.9315C79.5526 19.0596 79.3717 19.2061 79.2062 19.369C79.0921 19.4724 78.9712 19.5681 78.8443 19.6553C78.7521 19.7462 78.639 19.813 78.5148 19.8498C78.0165 20.1144 77.4585 20.2465 76.8945 20.2332C75.987 20.2332 75.3659 19.947 75.0364 19.3582C74.5557 18.6669 74.4963 17.4732 74.8636 15.7934C75.2309 14.1136 75.8142 12.9091 76.6082 12.1745C77.1777 11.6723 77.9122 11.3973 78.6715 11.4022C79.016 11.3598 79.3656 11.4088 79.6851 11.5444C80.0046 11.68 80.2828 11.8973 80.4917 12.1745C80.6603 12.4225 80.7778 12.7016 80.8374 12.9955H84.5211C84.4946 12.0168 84.2374 11.0582 83.7703 10.1977C82.8989 8.87976 81.4099 8.2208 79.3034 8.2208C78.3538 8.20345 77.4102 8.37502 76.5275 8.72551C75.6448 9.07601 74.8405 9.59846 74.1614 10.2625C72.6833 11.7653 71.6899 13.6769 71.3095 15.7502C70.7766 18.2024 70.9242 20.0856 71.7524 21.3999C72.5806 22.7142 73.9958 23.3912 75.9978 23.4308C77.5502 23.4594 79.075 23.0189 80.3729 22.1669C81.6861 21.3128 82.7221 20.0947 83.3544 18.6615H80.7618C80.403 18.639 80.0466 18.7338 79.7463 18.9315ZM95.7773 17.3436C95.555 18.5898 95.0363 19.7642 94.265 20.768C93.673 21.5188 92.9223 22.1293 92.0667 22.5558C91.2795 22.9433 90.4319 23.1936 89.5605 23.2958C88.8253 23.3813 88.086 23.4264 87.3459 23.4308C86.2164 23.4751 85.1122 23.089 84.2564 22.3505C83.4678 21.6304 83.2536 20.4493 83.6137 18.8073C83.7146 18.1535 83.9442 17.5261 84.2891 16.9615C84.634 16.3969 85.0873 15.9063 85.6229 15.5179C86.7073 14.8288 87.9264 14.3795 89.1986 14.2C89.415 14.1945 89.6303 14.1674 89.8413 14.119C90.1287 14.0589 90.4189 14.0139 90.7109 13.984C92.3313 13.7625 93.1847 13.2872 93.3414 12.5526C93.4131 12.3568 93.4066 12.1407 93.3231 11.9496C93.2396 11.7584 93.0855 11.6068 92.893 11.5264C92.8514 11.5089 92.8079 11.4962 92.7634 11.4886C92.2975 11.328 91.8087 11.2441 91.3159 11.2401C90.8531 11.2331 90.3926 11.3062 89.9548 11.4562C89.5297 11.6059 89.1679 11.8953 88.9285 12.2772H85.4123C85.8013 11.1484 86.5365 10.1712 87.5134 9.4847C88.7787 8.60682 90.2956 8.16503 91.8344 8.2262C93.7933 8.2262 95.1904 8.57188 96.0258 9.26325C96.8612 9.95461 97.1457 10.9809 96.8792 12.342L95.7773 17.3436ZM92.6932 15.8042C91.9847 16.116 91.2463 16.3549 90.4895 16.5172L89.2256 16.8034C88.6725 16.9288 88.153 17.172 87.7024 17.5164C87.3998 17.8653 87.1817 18.2793 87.0651 18.7263C86.9978 18.9461 86.9794 19.1779 87.0111 19.4056C87.0428 19.6332 87.1239 19.8512 87.2487 20.0442C87.4178 20.2034 87.6191 20.3243 87.8391 20.3989C88.059 20.4734 88.2924 20.4998 88.5234 20.4763C89.4376 20.5075 90.3313 20.2019 91.035 19.6175C91.7547 18.99 92.2403 18.137 92.4123 17.1977L92.6932 15.8042ZM102.907 4.80719C102.767 4.64192 102.589 4.51185 102.39 4.42744C102.19 4.34302 101.973 4.30659 101.757 4.32108H99.8607L95.7395 23.1877H99.4232L103.177 6.1089C103.238 5.88605 103.246 5.65181 103.199 5.42548C103.152 5.19916 103.052 4.98724 102.907 4.80719ZM111.279 18.6615H113.915C113.285 20.0821 112.259 21.2914 110.96 22.1453C109.659 22.9976 108.13 23.438 106.574 23.4092C104.571 23.4092 103.166 22.734 102.34 21.3783C101.513 20.0226 101.351 18.1808 101.892 15.7394C102.264 13.6711 103.25 11.7628 104.722 10.2625C105.401 9.60406 106.203 9.0862 107.083 8.73861C107.962 8.39103 108.902 8.22056 109.848 8.237C111.96 8.237 113.445 8.89596 114.315 10.2139C115.184 11.5318 115.292 13.4546 114.763 15.8636C114.73 16.0094 114.703 16.1499 114.671 16.2471C114.652 16.3182 114.638 16.3903 114.628 16.4632C114.602 16.5971 114.557 16.7264 114.493 16.8466H105.386C105.176 17.9917 105.246 18.8235 105.624 19.3744C105.819 19.6857 106.099 19.9346 106.431 20.0916C106.764 20.2485 107.134 20.3071 107.498 20.2603C108.816 20.2224 109.329 19.7795 109.421 19.6877C109.689 19.4231 109.974 19.1759 110.274 18.9477C110.572 18.7507 110.923 18.6506 111.279 18.6615ZM105.905 14.3837H111.279C111.462 13.6442 111.372 12.8637 111.025 12.1853C110.815 11.92 110.542 11.7111 110.231 11.5772C109.92 11.4434 109.58 11.3888 109.243 11.4184C108.486 11.4144 107.754 11.6871 107.185 12.1853C106.545 12.7678 106.105 13.5369 105.926 14.3837H105.905ZM124.62 8.56108C123.66 8.56566 122.705 8.69641 121.779 8.94997C119.786 9.45833 118.071 10.7286 117.004 12.4878C116.334 13.5945 115.862 14.8101 115.611 16.0797L114.061 23.1553H117.761L119.419 15.6638C119.631 14.7657 120.066 13.9355 120.683 13.2494C121.947 11.7316 124.328 11.8613 124.328 11.8613L125.182 8.58269H124.642L124.62 8.56108ZM125.625 5.73081L125.722 5.2717H127.704L127.612 5.73081H126.9L126.494 7.74009H125.954L126.365 5.73081H125.625ZM128.887 5.2609L129.071 7.05412L129.984 5.2609H130.724L130.232 7.74009H129.741L130.173 5.76862L129.168 7.74009H128.774L128.541 5.76862L128.169 7.74009H127.677L128.18 5.2609H128.887Z" fill="var(--fill-0, black)" fill-opacity="0.64"/>
</g>
</svg>
