<svg preserveAspectRatio="none" width="100%" height="100%" overflow="visible" style="display: block;" viewBox="0 0 64 65" fill="none" xmlns="http://www.w3.org/2000/svg">
<g id="Group 91971">
<g id="Vector">
<g filter="url(#filter0_i_0_36)">
<path d="M12 45H16.77C16.27 43.11 16 41.14 16 39.13V33.62C16 32.48 16.63 31.45 17.66 30.94L30.66 24.43C31.07 24.23 31.54 24.12 32 24.12C32.46 24.12 32.93 24.23 33.34 24.43L46.34 30.93C47.37 31.45 48 32.48 48 33.62V39.13C48 41.14 47.73 43.11 47.23 45H52C58.62 45 64 39.62 64 33C64 27.28 59.88 22.37 54.39 21.25C54.79 20.21 55 19.11 55 18C55 13.04 50.96 9 46 9H45.73C43.37 3.59 37.95 0 32 0C25.63 0 19.94 4.09 17.85 10.04C17.57 10.01 17.29 10 17 10C12.04 10 8 14.04 8 19C8 19.87 8.13 20.73 8.37 21.57C3.46 23.12 0 27.76 0 33C0 39.62 5.38 45 12 45Z" fill="url(#paint0_linear_0_36)"/>
</g>
<path d="M32 1C37.5492 1 42.6112 4.35139 44.8135 9.39941L45.0752 10H46C50.4077 10 54 13.5923 54 18C54 18.9834 53.8142 19.9618 53.457 20.8906L53.0322 21.9941L54.1904 22.2295C59.2223 23.2561 63 27.7631 63 33C63 39.0677 58.0677 44 52 44H48.4912C48.8217 42.4176 49 40.7876 49 39.1299V33.6201C49 32.1025 48.1575 30.7271 46.791 30.0371L33.7871 23.5352L33.7783 23.5312L33.5703 23.4375C33.0781 23.2316 32.5367 23.1201 32 23.1201C31.3866 23.1201 30.7669 23.2653 30.2217 23.5312L30.2119 23.5361L17.2158 30.0439C15.8418 30.7245 15 32.104 15 33.6201V39.1299C15 40.7876 15.1783 42.4176 15.5088 44H12C5.93229 44 1 39.0677 1 33C1 28.1998 4.17374 23.9431 8.6709 22.5234L9.59863 22.2305L9.33105 21.2949C9.11455 20.537 9 19.7695 9 19C9 14.5923 12.5923 11 17 11C17.2676 11 17.5098 11.0092 17.7432 11.0342L18.5312 11.1191L18.7939 10.3711C20.7447 4.81821 26.0585 1 32 1Z" stroke="url(#paint1_linear_0_36)" stroke-width="2"/>
</g>
<g id="Vector_2" filter="url(#filter1_d_0_36)">
<path d="M23 36.09V39.134C23.0052 42.1415 23.8506 45.0877 25.4408 47.6403C27.031 50.193 29.3028 52.2506 32 53.581C34.6972 52.2506 36.969 50.193 38.5592 47.6403C40.1494 45.0877 40.9948 42.1415 41 39.134V36.09L32 31.59L23 36.09Z" fill="#EDEDED"/>
</g>
<g id="Vector_3" filter="url(#filter2_d_0_36)">
<path d="M37.0017 40C37.0017 39.7348 36.8963 39.4805 36.7089 39.2929C36.5213 39.1055 36.267 39.0002 36.0019 39.0002C35.7367 39.0002 35.4824 39.1055 35.2949 39.2929L31.0019 43.5859L28.7089 41.2929C28.6166 41.1974 28.5063 41.1213 28.3843 41.0688C28.2623 41.0164 28.1311 40.9889 27.9983 40.9877C27.8655 40.9865 27.7338 41.0118 27.6109 41.0621C27.488 41.1124 27.3764 41.1867 27.2825 41.2806C27.1886 41.3744 27.1143 41.4861 27.0641 41.609C27.0138 41.7319 26.9885 41.8636 26.9896 41.9964C26.9908 42.1291 27.0184 42.2604 27.0708 42.3824C27.1232 42.5044 27.1994 42.6147 27.2949 42.707L30.2949 45.7069C30.3875 45.8001 30.4977 45.8741 30.619 45.9245C30.7404 45.975 30.8705 46.001 31.0019 46.001C31.1333 46.001 31.2634 45.975 31.3847 45.9245C31.5061 45.8741 31.6162 45.8001 31.7089 45.7069L36.7089 40.707C36.8963 40.5194 37.0017 40.2651 37.0017 40Z" fill="var(--fill-0, #0070B3)"/>
</g>
<g id="Vector_4">
<g filter="url(#filter3_i_0_36)">
<path d="M46 39.134V33.618C45.9999 33.4323 45.9481 33.2504 45.8504 33.0925C45.7528 32.9346 45.6131 32.807 45.447 32.724L32.447 26.224C32.3082 26.1547 32.1551 26.1187 32 26.1187C31.8448 26.1187 31.6918 26.1547 31.553 26.224L18.553 32.724C18.3869 32.807 18.2472 32.9346 18.1496 33.0925C18.0519 33.2504 18.0001 33.4323 18 33.618V39.134C18 47.859 23.484 55.79 31.647 58.87C31.8745 58.9559 32.1255 58.9559 32.353 58.87C40.516 55.79 46 47.86 46 39.134ZM32.416 55.598C32.2852 55.657 32.1434 55.6875 32 55.6875C31.8566 55.6875 31.7148 55.657 31.584 55.598C25.154 52.66 21 46.199 21 39.134V35.473C20.9999 35.2872 21.0516 35.105 21.1493 34.9469C21.247 34.7888 21.3868 34.6611 21.553 34.578L31.553 29.578C31.834 29.438 32.166 29.438 32.447 29.578L42.447 34.578C42.6132 34.6611 42.753 34.7888 42.8507 34.9469C42.9484 35.105 43.0001 35.2872 43 35.473V39.133C43 46.199 38.845 52.661 32.416 55.598Z" fill="#0070B3"/>
</g>
<path d="M45 33.6187V39.1343C44.9999 47.3143 39.9355 54.7649 32.3623 57.7935L32 57.9341C24.2265 55.001 19.0001 47.4431 19 39.1343V33.6187L32 27.1187L45 33.6187ZM32.8926 28.6831C32.3309 28.4033 31.6691 28.4033 31.1074 28.6831H31.1055L21.1055 33.6831C20.7731 33.8492 20.4941 34.1053 20.2988 34.4214C20.1035 34.7375 19.9999 35.1016 20 35.4731V39.1343C20.0001 46.5908 24.3826 53.4068 31.168 56.5073L31.1729 56.5093C31.4328 56.6265 31.7148 56.687 32 56.687C32.2852 56.687 32.5672 56.6265 32.8271 56.5093L32.8311 56.5073C39.6157 53.4078 43.9999 46.591 44 39.1333V35.4731L43.9951 35.3345C43.9728 35.0114 43.8721 34.698 43.7012 34.4214C43.5058 34.1052 43.226 33.8492 42.8936 33.6831H42.8945L32.8945 28.6831H32.8926Z" stroke="url(#paint2_linear_0_36)" stroke-width="2"/>
</g>
<g id="Group 91970">
<g id="Vector_5">
<path d="M20 55H22.35C23.02 55.72 23.73 56.38 24.49 57H20.78L19.97 60.24C19.86 60.69 19.46 61 19 61H16.858C16.41 62.72 14.858 64 13 64C10.794 64 9 62.206 9 60C9 57.794 10.794 56 13 56C14.858 56 16.411 57.28 16.858 59H18.22L19.03 55.76C19.14 55.31 19.54 55 20 55Z" fill="var(--fill-0, black)"/>
<path d="M13.97 52.24C13.86 52.69 13.46 53 13 53H9.858C9.41 54.72 7.858 56 6 56C3.794 56 2 54.206 2 52C2 49.794 3.794 48 6 48C7.858 48 9.411 49.28 9.858 51H12.22L13.03 47.76C13.14 47.31 13.54 47 14 47H17.4C17.65 47.68 17.93 48.35 18.24 49H14.78L13.97 52.24Z" fill="var(--fill-0, black)"/>
</g>
<g id="Vector_6">
<path d="M54.1424 51C54.5904 49.28 56.1424 48 58.0004 48C60.2064 48 62.0004 49.794 62.0004 52C62.0004 54.206 60.2064 56 58.0004 56C56.1424 56 54.5894 54.72 54.1424 53H51.0004C50.5404 53 50.1404 52.69 50.0304 52.24L49.2204 49H45.7604C46.0704 48.35 46.3504 47.68 46.6004 47H50.0004C50.224 46.9993 50.4413 47.0739 50.6172 47.2118C50.7932 47.3497 50.9176 47.5428 50.9704 47.76L51.7804 51H54.1424Z" fill="var(--fill-0, black)"/>
<path d="M47.1424 59C47.5904 57.28 49.1424 56 51.0004 56C53.2064 56 55.0004 57.794 55.0004 60C55.0004 62.206 53.2064 64 51.0004 64C49.1424 64 47.5894 62.72 47.1424 61H45.0004C44.5404 61 44.1404 60.69 44.0304 60.24L43.2204 57H39.5104C40.2704 56.38 40.9804 55.72 41.6504 55H44.0004C44.224 54.9993 44.4413 55.0739 44.6172 55.2118C44.7932 55.3497 44.9176 55.5428 44.9704 55.76L45.7804 59H47.1424Z" fill="var(--fill-0, black)"/>
</g>
</g>
</g>
<defs>
<filter id="filter0_i_0_36" x="0" y="-4" width="68" height="49" filterUnits="userSpaceOnUse" color-interpolation-filters="sRGB">
<feFlood flood-opacity="0" result="BackgroundImageFix"/>
<feBlend mode="normal" in="SourceGraphic" in2="BackgroundImageFix" result="shape"/>
<feColorMatrix in="SourceAlpha" type="matrix" values="0 0 0 0 0 0 0 0 0 0 0 0 0 0 0 0 0 0 127 0" result="hardAlpha"/>
<feOffset dx="4" dy="-4"/>
<feGaussianBlur stdDeviation="2.66667"/>
<feComposite in2="hardAlpha" operator="arithmetic" k2="-1" k3="1"/>
<feColorMatrix type="matrix" values="0 0 0 0 0 0 0 0 0 0 0 0 0 0 0 0 0 0 0.16 0"/>
<feBlend mode="normal" in2="shape" result="effect1_innerShadow_0_36"/>
</filter>
<filter id="filter1_d_0_36" x="17.6667" y="31.59" width="28.6667" height="32.6577" filterUnits="userSpaceOnUse" color-interpolation-filters="sRGB">
<feFlood flood-opacity="0" result="BackgroundImageFix"/>
<feColorMatrix in="SourceAlpha" type="matrix" values="0 0 0 0 0 0 0 0 0 0 0 0 0 0 0 0 0 0 127 0" result="hardAlpha"/>
<feOffset dy="5.33333"/>
<feGaussianBlur stdDeviation="2.66667"/>
<feComposite in2="hardAlpha" operator="out"/>
<feColorMatrix type="matrix" values="0 0 0 0 0 0 0 0 0 0 0 0 0 0 0 0 0 0 0.25 0"/>
<feBlend mode="normal" in2="BackgroundImageFix" result="effect1_dropShadow_0_36"/>
<feBlend mode="normal" in="SourceGraphic" in2="effect1_dropShadow_0_36" result="shape"/>
</filter>
<filter id="filter2_d_0_36" x="21.6563" y="39.0002" width="20.6787" height="17.6675" filterUnits="userSpaceOnUse" color-interpolation-filters="sRGB">
<feFlood flood-opacity="0" result="BackgroundImageFix"/>
<feColorMatrix in="SourceAlpha" type="matrix" values="0 0 0 0 0 0 0 0 0 0 0 0 0 0 0 0 0 0 127 0" result="hardAlpha"/>
<feOffset dy="5.33333"/>
<feGaussianBlur stdDeviation="2.66667"/>
<feComposite in2="hardAlpha" operator="out"/>
<feColorMatrix type="matrix" values="0 0 0 0 0 0 0 0 0 0 0 0 0 0 0 0 0 0 0.25 0"/>
<feBlend mode="normal" in2="BackgroundImageFix" result="effect1_dropShadow_0_36"/>
<feBlend mode="normal" in="SourceGraphic" in2="effect1_dropShadow_0_36" result="shape"/>
</filter>
<filter id="filter3_i_0_36" x="18" y="22.1187" width="32" height="36.8158" filterUnits="userSpaceOnUse" color-interpolation-filters="sRGB">
<feFlood flood-opacity="0" result="BackgroundImageFix"/>
<feBlend mode="normal" in="SourceGraphic" in2="BackgroundImageFix" result="shape"/>
<feColorMatrix in="SourceAlpha" type="matrix" values="0 0 0 0 0 0 0 0 0 0 0 0 0 0 0 0 0 0 127 0" result="hardAlpha"/>
<feOffset dx="4" dy="-4"/>
<feGaussianBlur stdDeviation="2.66667"/>
<feComposite in2="hardAlpha" operator="arithmetic" k2="-1" k3="1"/>
<feColorMatrix type="matrix" values="0 0 0 0 0 0 0 0 0 0 0 0 0 0 0 0 0 0 0.16 0"/>
<feBlend mode="normal" in2="shape" result="effect1_innerShadow_0_36"/>
</filter>
<linearGradient id="paint0_linear_0_36" x1="32" y1="13.5" x2="33.8132" y2="51.3412" gradientUnits="userSpaceOnUse">
<stop stop-color="#0070B3"/>
<stop offset="1" stop-color="#00304D"/>
</linearGradient>
<linearGradient id="paint1_linear_0_36" x1="0" y1="22.5" x2="121.34" y2="22.5292" gradientUnits="userSpaceOnUse">
<stop stop-color="#0070B3"/>
<stop offset="1" stop-color="#00304D"/>
</linearGradient>
<linearGradient id="paint2_linear_0_36" x1="18" y1="42.5265" x2="71.0861" y2="42.5342" gradientUnits="userSpaceOnUse">
<stop stop-color="#0070B3"/>
<stop offset="1" stop-color="#00304D"/>
</linearGradient>
</defs>
</svg>
