<svg width="1477" height="115" viewBox="0 0 1477 115" fill="none" xmlns="http://www.w3.org/2000/svg">
<g filter="url(#filter0_dd_2877_9145)">

<g filter="url(#filter1_d_2877_9145)">
<path d="M270.618 65.7273L270.349 50.3217L271.419 51.1191L266.788 51.2L266.737 48.2724L273.696 48.151L274.002 65.6683L270.618 65.7273ZM284.131 65.9475C282.755 65.9716 281.567 65.7203 280.566 65.1937C279.58 64.6668 278.816 63.96 278.272 63.0734C277.744 62.1704 277.471 61.1831 277.452 60.1112L280.74 60.0538C280.751 60.6617 280.896 61.1953 281.176 61.6545C281.472 62.1134 281.87 62.4745 282.371 62.7378C282.871 62.9851 283.45 63.103 284.105 63.0916C284.793 63.0796 285.383 62.9252 285.874 62.6286C286.365 62.332 286.734 61.9335 286.981 61.4331C287.244 60.9325 287.37 60.3622 287.359 59.7223C287.348 59.0984 287.202 58.5408 286.922 58.0496C286.657 57.5422 286.274 57.1488 285.773 56.8695C285.288 56.5739 284.701 56.4321 284.013 56.4442C283.437 56.4542 282.896 56.5757 282.388 56.8086C281.879 57.0415 281.485 57.3444 281.203 57.7174L278.06 57.7723L278.778 48.0622L288.929 47.8851L288.979 50.7886L280.317 50.9398L281.5 49.983L281.03 56.0402L280.21 55.8144C280.665 55.2784 281.225 54.8286 281.891 54.4649C282.556 54.1012 283.401 53.9105 284.425 53.8926C285.721 53.87 286.829 54.1147 287.75 54.6267C288.671 55.1387 289.38 55.8304 289.875 56.7019C290.37 57.5574 290.626 58.4971 290.644 59.5209L290.65 59.8329C290.668 60.8727 290.429 61.853 289.933 62.7738C289.437 63.6946 288.698 64.4516 287.716 65.0448C286.75 65.6218 285.555 65.9227 284.131 65.9475ZM297.274 62.9337L297.067 51.0795L299.995 51.0284L300.201 62.8826L297.274 62.9337ZM292.851 58.4262L292.804 55.7386L304.418 55.5359L304.465 58.2235L292.851 58.4262ZM321.477 65.2957C319.893 65.3233 318.512 65.0674 317.334 64.5279C316.173 63.988 315.2 63.2769 314.417 62.3944C313.649 61.4957 313.064 60.5298 312.662 59.4966C312.276 58.4472 312.074 57.4346 312.057 56.4587L312.048 55.9308C312.029 54.859 312.202 53.7918 312.568 52.7292C312.933 51.6507 313.492 50.6728 314.245 49.7955C315.014 48.918 315.97 48.2132 317.112 47.6812C318.255 47.1331 319.602 46.8456 321.154 46.8185C322.69 46.7917 324.038 47.0322 325.199 47.54C326.36 48.0318 327.332 48.703 328.115 49.5534C328.914 50.4036 329.515 51.3613 329.917 52.4264C330.32 53.4755 330.53 54.536 330.549 55.6079L330.558 56.1358C330.575 57.1116 330.401 58.1308 330.035 59.1934C329.686 60.2396 329.135 61.2254 328.383 62.1507C327.646 63.0597 326.699 63.8043 325.541 64.3846C324.399 64.9646 323.044 65.2683 321.477 65.2957ZM321.421 62.1282C322.317 62.1125 323.114 61.9386 323.812 61.6064C324.527 61.2738 325.127 60.8233 325.613 60.2547C326.115 59.6699 326.488 59.0153 326.731 58.2909C326.99 57.5503 327.113 56.772 327.098 55.9561C327.083 55.0763 326.933 54.2708 326.648 53.5396C326.379 52.8082 325.984 52.175 325.463 51.64C324.957 51.1048 324.342 50.6914 323.617 50.4001C322.892 50.1087 322.089 49.9707 321.209 49.986C320.313 50.0016 319.508 50.1677 318.794 50.4842C318.079 50.8008 317.471 51.2355 316.968 51.7883C316.482 52.3409 316.109 52.9875 315.85 53.7281C315.607 54.4685 315.493 55.2786 315.508 56.1585C315.522 56.9743 315.664 57.748 315.933 58.4794C316.217 59.1945 316.612 59.8357 317.118 60.403C317.64 60.954 318.264 61.3832 318.989 61.6905C319.715 61.9979 320.525 62.1438 321.421 62.1282ZM334 64.621L333.695 47.1037L337.03 47.0455L337.336 64.5628L334 64.621ZM336.856 64.5712L336.806 61.6916L344.748 61.553L344.799 64.4325L336.856 64.5712ZM336.726 57.1083L336.675 54.2287L343.994 54.101L344.044 56.9805L336.726 57.1083ZM336.6 49.9334L336.55 47.0538L344.301 46.9185L344.351 49.7981L336.6 49.9334ZM348.295 64.3715L347.989 46.8542L352.645 46.7729L357.218 57.1587L357.65 57.1511L361.835 46.6125L366.562 46.53L366.868 64.0473L363.485 64.1064L363.224 49.1566L363.656 49.1971L359.127 60.6059L355.647 60.6666L350.698 49.4233L351.154 49.3673L351.415 64.317L348.295 64.3715ZM379.203 58.4552L379.151 55.5036L382.559 55.4442C383.246 55.4321 383.82 55.2861 384.279 55.0061C384.754 54.7257 385.108 54.3435 385.339 53.8594C385.587 53.375 385.705 52.8208 385.694 52.1969C385.683 51.573 385.546 51.0233 385.281 50.5479C385.033 50.0721 384.667 49.7105 384.182 49.4629C383.714 49.199 383.135 49.0731 382.448 49.0851L379.04 49.1446L378.989 46.193L382.108 46.1386C383.58 46.1129 384.832 46.3311 385.864 46.7931C386.912 47.2549 387.716 47.929 388.276 48.8154C388.835 49.6857 389.125 50.7288 389.146 51.9446L389.153 52.3286C389.174 53.5444 388.921 54.605 388.393 55.5103C387.864 56.3997 387.084 57.1014 386.053 57.6155C385.037 58.1133 383.794 58.375 382.322 58.4007L379.203 58.4552ZM376.369 63.8815L376.061 46.2441L379.468 46.1847L379.776 63.822L376.369 63.8815ZM399.63 63.4754L399.563 59.612L399.011 59.6217L398.936 55.3263C398.923 54.5744 398.729 54.0177 398.355 53.6562C397.98 53.2947 397.409 53.1206 396.641 53.134C396.241 53.141 395.761 53.1574 395.202 53.1832C394.642 53.2089 394.075 53.2428 393.499 53.2849C392.94 53.3107 392.436 53.3434 391.989 53.3833L391.939 50.5517C392.307 50.5133 392.722 50.474 393.186 50.4339C393.649 50.3938 394.121 50.3696 394.6 50.3612C395.096 50.3366 395.56 50.3205 395.992 50.3129C397.336 50.2895 398.451 50.446 399.337 50.7826C400.239 51.1189 400.92 51.6591 401.381 52.4032C401.858 53.147 402.107 54.1268 402.129 55.3426L402.27 63.4294L399.63 63.4754ZM395.437 63.8847C394.493 63.9012 393.658 63.7477 392.932 63.4243C392.222 63.1007 391.662 62.6304 391.251 62.0134C390.856 61.3962 390.651 60.6477 390.636 59.7678C390.619 58.808 390.838 58.0201 391.291 57.4041C391.76 56.7878 392.416 56.3202 393.259 56.0015C394.117 55.6825 395.122 55.5129 396.274 55.4928L399.298 55.44L399.333 57.4317L396.261 57.4853C395.493 57.4987 394.905 57.701 394.495 58.0922C394.102 58.4672 393.91 58.9506 393.921 59.5425C393.931 60.1344 394.139 60.6108 394.546 60.9718C394.968 61.3325 395.563 61.5061 396.331 61.4927C396.795 61.4846 397.217 61.3972 397.599 61.2305C397.995 61.0476 398.318 60.7539 398.567 60.3495C398.832 59.9288 398.974 59.3663 398.994 58.6618L399.826 59.5834C399.762 60.4967 399.552 61.2685 399.195 61.8988C398.853 62.5288 398.366 63.0174 397.732 63.3645C397.114 63.6954 396.348 63.8688 395.437 63.8847ZM405.843 63.367L405.615 50.337L408.255 50.2909L408.351 55.8101L408.279 55.8113C408.246 53.9396 408.622 52.5168 409.405 51.543C410.188 50.5692 411.355 50.0688 412.907 50.0417L413.387 50.0333L413.438 52.9369L412.526 52.9528C411.406 52.9723 410.539 53.2915 409.926 53.9103C409.329 54.5128 409.04 55.382 409.059 56.5178L409.178 63.3088L405.843 63.367ZM421.796 63.2566C420.596 63.2775 419.602 63.1428 418.813 62.8526C418.039 62.546 417.454 62.0281 417.057 61.299C416.66 60.5538 416.451 59.5493 416.429 58.2855L416.246 46.4789L419.366 46.4244L419.552 58.447C419.563 59.0869 419.74 59.5799 420.082 59.926C420.44 60.2558 420.938 60.4151 421.578 60.4039L423.618 60.3683L423.668 63.2239L421.796 63.2566ZM414.266 52.6344L414.223 50.1867L423.437 50.0259L423.48 52.4735L414.266 52.6344ZM426.464 63.007L426.237 49.977L428.877 49.931L428.974 55.5221L428.734 55.5263C428.711 54.1985 428.868 53.0916 429.204 52.2056C429.541 51.3036 430.049 50.6226 430.729 50.1627C431.425 49.7024 432.293 49.4633 433.333 49.4451L433.477 49.4426C435.028 49.4155 436.213 49.8989 437.031 50.8928C437.848 51.8707 438.274 53.3515 438.308 55.3352L438.439 62.798L435.103 62.8563L434.968 55.1054C434.954 54.3056 434.711 53.6617 434.238 53.1739C433.781 52.6858 433.153 52.4487 432.353 52.4627C431.537 52.4769 430.878 52.7444 430.375 53.2653C429.888 53.7699 429.651 54.4461 429.666 55.294L429.8 62.9488L426.464 63.007ZM447.864 63.0896C446.744 63.1091 445.757 62.9343 444.902 62.5652C444.063 62.1958 443.359 61.696 442.787 61.0659C442.232 60.4195 441.803 59.6988 441.502 58.904C441.216 58.1088 441.065 57.2953 441.051 56.4635L441.043 56.0075C441.028 55.1437 441.149 54.3094 441.407 53.5048C441.681 52.6839 442.084 51.9568 442.617 51.3234C443.166 50.6737 443.845 50.1577 444.655 49.7756C445.464 49.3774 446.404 49.1689 447.476 49.1502C448.884 49.1256 450.065 49.4171 451.02 50.0245C451.991 50.6157 452.725 51.411 453.222 52.4104C453.719 53.3939 453.978 54.4616 453.998 55.6134L454.019 56.8132L442.477 57.0147L442.441 54.975L451.896 54.81L450.881 55.8358C450.867 55.0039 450.735 54.2941 450.484 53.7064C450.234 53.1187 449.858 52.6692 449.357 52.3579C448.871 52.0463 448.26 51.897 447.524 51.9098C446.789 51.9226 446.168 52.1015 445.661 52.4464C445.155 52.7913 444.772 53.286 444.511 53.9307C444.266 54.5591 444.151 55.3132 444.167 56.1931C444.181 57.0089 444.322 57.7346 444.589 58.37C444.856 58.9895 445.256 59.4785 445.791 59.8373C446.325 60.18 447 60.3442 447.815 60.33C448.631 60.3158 449.292 60.1442 449.799 59.8153C450.305 59.4704 450.626 59.0568 450.761 58.5743L453.833 58.5207C453.656 59.4199 453.302 60.2102 452.77 60.8916C452.238 61.573 451.551 62.1051 450.71 62.4878C449.884 62.8703 448.935 63.0709 447.864 63.0896ZM456.905 62.4757L456.678 49.4457L459.317 49.3996L459.414 54.9188L459.342 54.92C459.309 53.0483 459.684 51.6255 460.467 50.6517C461.25 49.6779 462.418 49.1775 463.97 49.1504L464.45 49.142L464.5 52.0456L463.588 52.0615C462.468 52.081 461.602 52.4002 460.989 53.019C460.391 53.6215 460.102 54.4907 460.122 55.6265L460.241 62.4175L456.905 62.4757ZM471.646 62.6265C469.854 62.6577 468.44 62.3064 467.403 61.5724C466.381 60.8221 465.835 59.7754 465.764 58.4325L468.763 58.3801C468.819 58.8272 469.074 59.2308 469.528 59.5909C469.983 59.9511 470.69 60.1228 471.65 60.106C472.45 60.092 473.079 59.937 473.538 59.641C474.013 59.3446 474.246 58.9485 474.237 58.4526C474.23 58.0207 474.04 57.6799 473.667 57.4304C473.311 57.1806 472.7 57.0232 471.835 56.9583L470.681 56.8584C469.222 56.7239 468.095 56.3275 467.3 55.6692C466.504 55.011 466.096 54.122 466.077 53.0022C466.061 52.1063 466.272 51.3505 466.709 50.7348C467.147 50.1191 467.755 49.6524 468.533 49.3348C469.328 49.0008 470.237 48.8249 471.261 48.8071C472.86 48.7792 474.162 49.1085 475.166 49.7951C476.17 50.4816 476.708 51.5044 476.78 52.8634L473.781 52.9157C473.741 52.4683 473.51 52.0883 473.089 51.7756C472.667 51.4629 472.064 51.3134 471.28 51.3271C470.577 51.3394 470.035 51.4849 469.656 51.7635C469.277 52.0422 469.091 52.3975 469.098 52.8294C469.106 53.2454 469.263 53.5627 469.571 53.7813C469.895 53.9997 470.409 54.1427 471.115 54.2104L472.269 54.3103C473.807 54.4435 475.014 54.8465 475.89 55.5193C476.782 56.1918 477.238 57.112 477.259 58.2798C477.274 59.1437 477.047 59.8998 476.578 60.5481C476.125 61.1801 475.478 61.6794 474.636 62.0462C473.794 62.4129 472.798 62.6064 471.646 62.6265ZM480.081 62.0712L479.775 44.5538L483.111 44.4956L483.289 54.718L482.713 54.7281C482.691 53.4163 482.839 52.3015 483.159 51.3838C483.479 50.4661 483.963 49.7615 484.61 49.2702C485.274 48.7785 486.118 48.5237 487.142 48.5059L487.286 48.5034C488.773 48.4774 489.91 48.9696 490.696 49.9801C491.482 50.9905 491.891 52.4716 491.926 54.4233L492.055 61.8621L488.72 61.9204L488.585 54.1695C488.57 53.3377 488.319 52.686 487.83 52.2144C487.358 51.7426 486.738 51.5134 485.97 51.5268C485.154 51.541 484.495 51.8246 483.993 52.3774C483.506 52.914 483.27 53.6142 483.285 54.4781L483.417 62.0129L480.081 62.0712ZM496.265 61.7887L496.038 48.7586L499.373 48.7004L499.601 61.7304L496.265 61.7887ZM494.258 51.2861L494.214 48.7905L499.373 48.7004L499.417 51.196L494.258 51.2861ZM497.234 47.1775C496.578 47.189 496.088 47.0295 495.762 46.6991C495.452 46.3525 495.292 45.9232 495.283 45.4113C495.274 44.8674 495.418 44.4248 495.716 44.0835C496.03 43.742 496.515 43.5655 497.171 43.5541C497.827 43.5426 498.31 43.7022 498.62 44.0329C498.93 44.3635 499.089 44.8008 499.099 45.3447C499.108 45.8566 498.963 46.2912 498.665 46.6485C498.367 46.9897 497.89 47.1661 497.234 47.1775ZM503.529 66.4626L503.217 48.6333L505.857 48.5873L505.955 54.2024L505.547 54.1855C505.587 52.8566 505.84 51.74 506.304 50.8358C506.785 49.9313 507.429 49.2559 508.237 48.8097C509.045 48.3476 509.953 48.1077 510.961 48.0901C511.889 48.0739 512.724 48.2274 513.466 48.5505C514.223 48.8733 514.871 49.334 515.41 49.9327C515.964 50.5311 516.393 51.2358 516.695 52.0466C516.997 52.8415 517.156 53.7028 517.172 54.6307L517.181 55.1346C517.197 56.0785 517.069 56.9609 516.795 57.7818C516.537 58.5864 516.142 59.3054 515.609 59.9388C515.091 60.5559 514.46 61.047 513.714 61.4121C512.968 61.7612 512.131 61.9438 511.203 61.96C510.227 61.977 509.328 61.7927 508.505 61.407C507.698 61.005 507.039 60.3844 506.528 59.5452C506.017 58.69 505.718 57.583 505.63 56.2244L506.714 57.8137L506.864 66.4044L503.529 66.4626ZM510.314 59.1671C511.034 59.1545 511.655 58.9676 512.177 58.6065C512.715 58.245 513.13 57.7497 513.423 57.1205C513.716 56.4753 513.855 55.7528 513.841 54.9529C513.827 54.121 513.662 53.4038 513.348 52.8012C513.033 52.1986 512.601 51.734 512.051 51.4076C511.517 51.0648 510.89 50.8998 510.17 50.9123C509.514 50.9238 508.909 51.0784 508.354 51.3761C507.815 51.6735 507.375 52.1053 507.032 52.6714C506.706 53.2371 506.55 53.912 506.564 54.6958L506.58 55.6557C506.594 56.4076 506.781 57.0444 507.142 57.5662C507.503 58.088 507.966 58.488 508.531 58.7661C509.096 59.0443 509.69 59.178 510.314 59.1671ZM524.958 61.6959C523.166 61.7272 521.752 61.3758 520.715 60.6418C519.694 59.8915 519.147 58.8449 519.076 57.5019L522.075 57.4496C522.131 57.8966 522.386 58.3003 522.841 58.6604C523.295 59.0205 524.002 59.1922 524.962 59.1754C525.762 59.1615 526.391 59.0065 526.85 58.7104C527.325 58.4141 527.558 58.018 527.549 57.522C527.542 57.0901 527.352 56.7494 526.98 56.4998C526.623 56.25 526.012 56.0926 525.147 56.0277L523.993 55.9279C522.535 55.7933 521.407 55.3969 520.612 54.7387C519.816 54.0805 519.409 53.1914 519.389 52.0716C519.373 51.1758 519.584 50.42 520.022 49.8042C520.459 49.1885 521.067 48.7218 521.845 48.4042C522.64 48.0703 523.549 47.8944 524.573 47.8765C526.172 47.8486 527.474 48.1779 528.479 48.8645C529.483 49.5511 530.021 50.5738 530.092 51.9328L527.093 51.9852C527.053 51.5378 526.822 51.1577 526.401 50.8451C525.979 50.5324 525.377 50.3829 524.593 50.3965C523.889 50.4088 523.347 50.5543 522.968 50.833C522.589 51.1116 522.403 51.4669 522.411 51.8989C522.418 52.3148 522.575 52.6321 522.883 52.8508C523.207 53.0691 523.722 53.2122 524.427 53.2799L525.581 53.3798C527.119 53.5129 528.327 53.9159 529.203 54.5887C530.094 55.2613 530.551 56.1814 530.571 57.3493C530.586 58.2131 530.359 58.9692 529.89 59.6175C529.437 60.2495 528.79 60.7489 527.948 61.1156C527.107 61.4824 526.11 61.6758 524.958 61.6959ZM549.058 57.1946L548.944 50.6916L555.184 50.5827L555.297 57.0857L549.058 57.1946ZM577.415 60.3722L577.146 44.9665L578.216 45.764L573.585 45.8448L573.534 42.9173L580.493 42.7958L580.799 60.3131L577.415 60.3722ZM592.272 60.5689C590.896 60.5929 589.725 60.3894 588.757 59.9582C587.789 59.511 586.994 58.9008 586.373 58.1275C585.751 57.3382 585.287 56.4342 584.981 55.4154C584.691 54.3803 584.536 53.2948 584.516 52.159L584.493 50.8152C584.464 49.1995 584.711 47.7389 585.232 46.4336C585.754 45.1283 586.568 44.09 587.674 43.3185C588.781 42.5311 590.206 42.1222 591.95 42.0917C593.677 42.0616 595.108 42.4207 596.241 43.169C597.374 43.9013 598.216 44.9108 598.766 46.1974C599.333 47.4837 599.63 48.9347 599.658 50.5505L599.682 51.8943C599.702 53.0301 599.577 54.1205 599.307 55.1653C599.053 56.1939 598.629 57.1135 598.035 57.924C597.457 58.7182 596.692 59.3556 595.74 59.8363C594.788 60.301 593.632 60.5452 592.272 60.5689ZM592.218 57.4494C593.641 57.4245 594.681 56.9183 595.336 55.9308C595.99 54.9272 596.299 53.3855 596.263 51.3059C596.224 49.0982 595.853 47.5284 595.149 46.5966C594.444 45.6487 593.396 45.187 592.004 45.2113C590.596 45.2358 589.549 45.7342 588.862 46.7063C588.19 47.6622 587.873 49.228 587.911 51.4036C587.948 53.4993 588.319 55.0371 589.024 56.0169C589.729 56.9968 590.794 57.4743 592.218 57.4494ZM606.93 57.5286L606.723 45.6745L609.651 45.6234L609.857 57.4775L606.93 57.5286ZM602.507 53.0212L602.46 50.3336L614.074 50.1308L614.121 52.8184L602.507 53.0212ZM626.136 52.8247L620.668 42.0945L624.172 42.0334L628.351 50.4337L627.579 50.2072L629.859 50.1674L629.047 50.4216L632.57 41.8868L635.882 41.829L631.2 52.7364L626.136 52.8247ZM627.117 59.5046L626.991 52.2817L630.327 52.2235L630.453 59.4464L627.117 59.5046ZM642.857 59.686C641.737 59.7055 640.75 59.5307 639.896 59.1616C639.057 58.7921 638.352 58.2924 637.781 57.6622C637.226 57.0158 636.797 56.2952 636.495 55.5004C636.209 54.7052 636.059 53.8917 636.045 53.0598L636.037 52.6039C636.022 51.74 636.143 50.9058 636.401 50.1012C636.675 49.2803 637.078 48.5531 637.611 47.9197C638.16 47.27 638.839 46.7541 639.648 46.3719C640.458 45.9737 641.398 45.7653 642.47 45.7466C643.878 45.722 645.059 46.0134 646.014 46.6209C646.984 47.212 647.718 48.0073 648.216 49.0068C648.713 49.9903 648.972 51.0579 648.992 52.2098L649.013 53.4096L637.47 53.611L637.435 51.5714L646.889 51.4063L645.875 52.4322C645.861 51.6003 645.728 50.8905 645.478 50.3028C645.228 49.7151 644.852 49.2656 644.35 48.9543C643.865 48.6427 643.254 48.4933 642.518 48.5062C641.782 48.519 641.161 48.6979 640.655 49.0428C640.149 49.3877 639.766 49.8824 639.505 50.5271C639.26 51.1554 639.145 51.9096 639.16 52.7894C639.175 53.6053 639.315 54.331 639.582 54.9664C639.849 55.5858 640.25 56.0749 640.784 56.4336C641.318 56.7764 641.993 56.9406 642.809 56.9264C643.625 56.9121 644.286 56.7406 644.792 56.4117C645.299 56.0668 645.619 55.6531 645.755 55.1707L648.826 55.1171C648.65 56.0163 648.296 56.8066 647.764 57.488C647.232 58.1694 646.545 58.7015 645.703 59.0842C644.878 59.4667 643.929 59.6672 642.857 59.686ZM659.794 58.9343L659.726 55.0709L659.174 55.0805L659.099 50.7851C659.086 50.0333 658.892 49.4766 658.518 49.115C658.144 48.7535 657.573 48.5794 656.805 48.5929C656.405 48.5998 655.925 48.6162 655.365 48.642C654.806 48.6678 654.238 48.7017 653.663 48.7437C653.103 48.7695 652.6 48.8023 652.152 48.8421L652.103 46.0105C652.47 45.9721 652.886 45.9328 653.349 45.8928C653.812 45.8527 654.284 45.8284 654.764 45.82C655.26 45.7954 655.723 45.7793 656.155 45.7718C657.499 45.7483 658.614 45.9049 659.5 46.2415C660.402 46.5778 661.084 47.118 661.545 47.862C662.022 48.6058 662.271 49.5856 662.292 50.8014L662.433 58.8882L659.794 58.9343ZM655.6 59.3435C654.656 59.36 653.821 59.2065 653.096 58.8832C652.386 58.5595 651.826 58.0892 651.415 57.4723C651.02 56.8551 650.815 56.1065 650.8 55.2267C650.783 54.2668 651.001 53.4789 651.454 52.8629C651.924 52.2466 652.58 51.7791 653.422 51.4603C654.281 51.1413 655.286 50.9717 656.438 50.9516L659.461 50.8988L659.496 52.8905L656.425 52.9442C655.657 52.9576 655.068 53.1599 654.659 53.5511C654.265 53.926 654.074 54.4094 654.084 55.0013C654.094 55.5932 654.303 56.0697 654.709 56.4306C655.131 56.7913 655.727 56.9649 656.494 56.9515C656.958 56.9434 657.381 56.8561 657.762 56.6894C658.159 56.5064 658.482 56.2127 658.731 55.8083C658.996 55.3877 659.138 54.8251 659.157 54.1206L659.99 55.0422C659.926 55.9555 659.715 56.7273 659.358 57.3576C659.017 57.9877 658.529 58.4763 657.895 58.8234C657.277 59.1542 656.512 59.3276 655.6 59.3435ZM666.006 58.8258L665.779 45.7958L668.418 45.7497L668.515 51.2689L668.443 51.2702C668.41 49.3984 668.785 47.9757 669.568 47.0019C670.351 46.028 671.519 45.5276 673.071 45.5005L673.55 45.4921L673.601 48.3957L672.689 48.4116C671.569 48.4311 670.703 48.7503 670.09 49.3691C669.492 49.9716 669.203 50.8408 669.223 51.9766L669.342 58.7676L666.006 58.8258ZM680.747 58.9766C678.955 59.0079 677.541 58.6565 676.504 57.9225C675.482 57.1722 674.936 56.1256 674.865 54.7826L677.864 54.7302C677.92 55.1773 678.175 55.581 678.629 55.9411C679.084 56.3012 679.791 56.4729 680.751 56.4561C681.551 56.4422 682.18 56.2872 682.639 55.9911C683.114 55.6948 683.347 55.2986 683.338 54.8027C683.331 54.3708 683.141 54.0301 682.768 53.7805C682.412 53.5307 681.801 53.3733 680.936 53.3084L679.782 53.2085C678.323 53.074 677.196 52.6776 676.401 52.0194C675.605 51.3612 675.197 50.4721 675.178 49.3523C675.162 48.4564 675.373 47.7007 675.81 47.0849C676.248 46.4692 676.856 46.0025 677.634 45.6849C678.429 45.351 679.338 45.1751 680.361 45.1572C681.961 45.1293 683.263 45.4586 684.267 46.1452C685.271 46.8318 685.809 47.8545 685.881 49.2135L682.882 49.2659C682.842 48.8185 682.611 48.4384 682.19 48.1258C681.768 47.8131 681.165 47.6636 680.381 47.6772C679.678 47.6895 679.136 47.835 678.757 48.1137C678.378 48.3923 678.192 48.7476 678.199 49.1796C678.207 49.5955 678.364 49.9128 678.672 50.1314C678.996 50.3498 679.51 50.4929 680.216 50.5606L681.37 50.6604C682.908 50.7936 684.115 51.1966 684.991 51.8694C685.883 52.542 686.339 53.4621 686.36 54.63C686.375 55.4938 686.148 56.2499 685.679 56.8982C685.226 57.5302 684.579 58.0296 683.737 58.3963C682.895 58.7631 681.899 58.9565 680.747 58.9766ZM694.625 58.3263L694.319 40.8089L697.655 40.7507L697.961 58.2681L694.625 58.3263ZM697.481 58.2764L697.43 55.3969L705.373 55.2582L705.423 58.1378L697.481 58.2764ZM697.35 50.8136L697.3 47.934L704.619 47.8063L704.669 50.6858L697.35 50.8136ZM697.225 43.6387L697.175 40.7591L704.926 40.6238L704.976 43.5034L697.225 43.6387ZM708.656 58.0814L708.428 45.0514L711.068 45.0053L711.166 50.5964L710.926 50.6006C710.902 49.2728 711.059 48.1659 711.396 47.2799C711.732 46.3779 712.24 45.6969 712.92 45.237C713.616 44.7768 714.484 44.5376 715.524 44.5194L715.668 44.5169C717.22 44.4898 718.404 44.9732 719.222 45.9671C720.039 46.945 720.465 48.4258 720.5 50.4095L720.63 57.8724L717.294 57.9306L717.159 50.1798C717.145 49.3799 716.902 48.736 716.429 48.2482C715.973 47.7601 715.345 47.523 714.545 47.537C713.729 47.5512 713.069 47.8188 712.566 48.3396C712.079 48.8442 711.843 49.5204 711.858 50.3683L711.991 58.0232L708.656 58.0814ZM729.882 57.8789C728.682 57.8998 727.688 57.7652 726.898 57.4749C726.125 57.1684 725.54 56.6505 725.143 55.9213C724.746 55.1761 724.536 54.1716 724.514 52.9078L724.332 41.1012L727.452 41.0467L727.638 53.0693C727.649 53.7092 727.825 54.2022 728.168 54.5483C728.525 54.8781 729.024 55.0374 729.664 55.0263L731.704 54.9907L731.754 57.8462L729.882 57.8789ZM722.351 47.2567L722.309 44.8091L731.523 44.6482L731.566 47.0959L722.351 47.2567ZM740.319 57.9848C739.199 58.0043 738.212 57.8295 737.357 57.4604C736.519 57.0909 735.814 56.5912 735.243 55.961C734.688 55.3146 734.259 54.594 733.957 53.7992C733.671 53.004 733.521 52.1905 733.506 51.3586L733.498 50.9027C733.483 50.0388 733.605 49.2046 733.863 48.4C734.136 47.5791 734.54 46.8519 735.073 46.2185C735.622 45.5688 736.301 45.0529 737.11 44.6707C737.919 44.2725 738.86 44.0641 739.932 44.0454C741.339 44.0208 742.521 44.3122 743.476 44.9197C744.446 45.5108 745.18 46.3061 745.677 47.3056C746.175 48.2891 746.433 49.3567 746.453 50.5086L746.474 51.7084L734.932 51.9098L734.897 49.8702L744.351 49.7051L743.337 50.731C743.322 49.8991 743.19 49.1893 742.94 48.6016C742.689 48.0139 742.313 47.5644 741.812 47.2531C741.326 46.9415 740.716 46.7921 739.98 46.805C739.244 46.8178 738.623 46.9967 738.117 47.3416C737.611 47.6865 737.227 48.1812 736.967 48.8259C736.722 49.4542 736.607 50.2084 736.622 51.0882C736.636 51.9041 736.777 52.6298 737.044 53.2652C737.311 53.8846 737.712 54.3737 738.246 54.7324C738.78 55.0752 739.455 55.2394 740.271 55.2252C741.087 55.2109 741.748 55.0394 742.254 54.7105C742.76 54.3656 743.081 53.9519 743.217 53.4695L746.288 53.4159C746.112 54.3151 745.758 55.1054 745.225 55.7868C744.693 56.4682 744.006 57.0003 743.165 57.383C742.34 57.7655 741.391 57.966 740.319 57.9848ZM749.361 57.3709L749.133 44.3409L751.773 44.2948L751.869 49.8139L751.797 49.8152C751.764 47.9435 752.14 46.5207 752.923 45.5469C753.706 44.5731 754.873 44.0726 756.425 44.0455L756.905 44.0372L756.956 46.9407L756.044 46.9566C754.924 46.9762 754.057 47.2954 753.444 47.9142C752.847 48.5167 752.558 49.3859 752.577 50.5217L752.696 57.3126L749.361 57.3709ZM759.451 61.9955L759.139 44.1662L761.779 44.1201L761.877 49.7353L761.469 49.7184C761.509 48.3895 761.762 47.2729 762.226 46.3687C762.707 45.4641 763.351 44.7888 764.159 44.3426C764.967 43.8804 765.875 43.6406 766.883 43.623C767.811 43.6068 768.646 43.7602 769.387 44.0833C770.145 44.4062 770.793 44.8669 771.332 45.4656C771.886 46.064 772.315 46.7686 772.617 47.5795C772.919 48.3743 773.078 49.2357 773.094 50.1636L773.103 50.6675C773.119 51.6113 772.991 52.4937 772.717 53.3146C772.459 54.1192 772.064 54.8383 771.531 55.4717C771.013 56.0888 770.382 56.5799 769.636 56.9449C768.89 57.294 768.053 57.4767 767.125 57.4929C766.149 57.5099 765.25 57.3256 764.427 56.9399C763.62 56.5379 762.961 55.9173 762.45 55.0781C761.939 54.2229 761.64 53.1159 761.552 51.7572L762.636 53.3466L762.786 61.9373L759.451 61.9955ZM766.236 54.6999C766.956 54.6874 767.577 54.5005 768.099 54.1393C768.637 53.7779 769.052 53.2826 769.345 52.6534C769.638 52.0082 769.777 51.2856 769.763 50.4857C769.749 49.6539 769.584 48.9366 769.27 48.334C768.955 47.7314 768.523 47.2669 767.973 46.9404C767.439 46.5977 766.812 46.4326 766.092 46.4452C765.436 46.4566 764.831 46.6112 764.276 46.909C763.737 47.2064 763.297 47.6382 762.954 48.2042C762.628 48.77 762.472 49.4448 762.486 50.2287L762.502 51.1886C762.516 51.9405 762.703 52.5773 763.064 53.0991C763.425 53.6208 763.888 54.0208 764.453 54.299C765.018 54.5772 765.612 54.7108 766.236 54.6999ZM776.145 56.9033L775.918 43.8733L778.558 43.8272L778.654 49.3464L778.582 49.3477C778.549 47.4759 778.925 46.0532 779.708 45.0794C780.491 44.1055 781.658 43.6051 783.21 43.578L783.69 43.5696L783.741 46.4732L782.829 46.4891C781.709 46.5087 780.842 46.8278 780.229 47.4466C779.632 48.0491 779.343 48.9183 779.362 50.0541L779.481 56.8451L776.145 56.9033ZM786.776 56.7178L786.548 43.6878L789.884 43.6295L790.111 56.6596L786.776 56.7178ZM784.768 46.2152L784.725 43.7196L789.884 43.6295L789.927 46.1252L784.768 46.2152ZM787.745 42.1066C787.089 42.1181 786.598 41.9586 786.272 41.6283C785.962 41.2816 785.803 40.8523 785.794 40.3404C785.784 39.7965 785.929 39.3539 786.227 39.0127C786.541 38.6711 787.026 38.4946 787.682 38.4832C788.337 38.4717 788.82 38.6313 789.13 38.962C789.44 39.2926 789.6 39.7299 789.609 40.2738C789.618 40.7858 789.474 41.2203 789.176 41.5776C788.878 41.9188 788.401 42.0952 787.745 42.1066ZM798.69 56.9179C796.898 56.9492 795.484 56.5978 794.447 55.8638C793.425 55.1135 792.879 54.0669 792.808 52.7239L795.807 52.6715C795.863 53.1186 796.118 53.5223 796.572 53.8824C797.027 54.2425 797.734 54.4142 798.694 54.3974C799.494 54.3835 800.123 54.2285 800.582 53.9324C801.057 53.6361 801.29 53.2399 801.281 52.744C801.274 52.3121 801.084 51.9714 800.711 51.7218C800.355 51.472 799.744 51.3146 798.879 51.2497L797.725 51.1498C796.266 51.0153 795.139 50.6189 794.344 49.9607C793.548 49.3025 793.14 48.4134 793.121 47.2936C793.105 46.3977 793.316 45.642 793.753 45.0262C794.191 44.4105 794.799 43.9438 795.577 43.6262C796.372 43.2923 797.281 43.1164 798.304 43.0985C799.904 43.0706 801.206 43.3999 802.21 44.0865C803.214 44.7731 803.752 45.7958 803.824 47.1548L800.825 47.2071C800.785 46.7598 800.554 46.3797 800.133 46.0671C799.711 45.7544 799.108 45.6049 798.324 45.6185C797.621 45.6308 797.079 45.7763 796.7 46.055C796.321 46.3336 796.135 46.6889 796.142 47.1209C796.15 47.5368 796.307 47.8541 796.615 48.0727C796.939 48.2911 797.453 48.4342 798.159 48.5019L799.313 48.6017C800.851 48.7349 802.058 49.1379 802.934 49.8107C803.826 50.4833 804.282 51.4034 804.303 52.5713C804.318 53.4351 804.091 54.1912 803.622 54.8395C803.169 55.4715 802.522 55.9709 801.68 56.3376C800.838 56.7044 799.842 56.8978 798.69 56.9179ZM812.964 56.7167C811.844 56.7363 810.857 56.5615 810.003 56.1923C809.164 55.8229 808.459 55.3231 807.888 54.693C807.333 54.0466 806.904 53.326 806.602 52.5311C806.316 51.736 806.166 50.9225 806.152 50.0906L806.144 49.6347C806.129 48.7708 806.25 47.9366 806.508 47.1319C806.782 46.311 807.185 45.5839 807.718 44.9505C808.267 44.3008 808.946 43.7849 809.755 43.4027C810.565 43.0045 811.505 42.7961 812.577 42.7774C813.985 42.7528 815.166 43.0442 816.121 43.6517C817.091 44.2428 817.825 45.0381 818.323 46.0376C818.82 47.0211 819.079 48.0887 819.099 49.2405L819.12 50.4403L807.577 50.6418L807.542 48.6021L816.996 48.4371L815.982 49.463C815.968 48.6311 815.835 47.9213 815.585 47.3336C815.335 46.7458 814.959 46.2963 814.457 45.985C813.972 45.6735 813.361 45.5241 812.625 45.5369C811.889 45.5498 811.268 45.7287 810.762 46.0735C810.256 46.4184 809.873 46.9132 809.612 47.5578C809.367 48.1862 809.252 48.9403 809.267 49.8202C809.282 50.6361 809.422 51.3617 809.689 51.9972C809.956 52.6166 810.357 53.1057 810.891 53.4644C811.425 53.8071 812.1 53.9714 812.916 53.9572C813.732 53.9429 814.393 53.7713 814.899 53.4425C815.405 53.0976 815.726 52.6839 815.862 52.2015L818.933 52.1479C818.757 53.0471 818.403 53.8374 817.871 54.5188C817.338 55.2002 816.652 55.7322 815.81 56.115C814.985 56.4974 814.036 56.698 812.964 56.7167ZM833.432 56.3595C831.88 56.3866 830.564 56.1615 829.483 55.6843C828.419 55.2068 827.599 54.541 827.024 53.6869C826.449 52.8168 826.151 51.8298 826.132 50.726L829.468 50.6678C829.476 51.1317 829.612 51.5854 829.875 52.0289C830.139 52.4563 830.553 52.8012 831.118 53.0634C831.698 53.3253 832.453 53.4481 833.381 53.4319C834.212 53.4174 834.906 53.2853 835.462 53.0355C836.018 52.7858 836.428 52.4666 836.693 52.0779C836.958 51.6732 837.087 51.2229 837.078 50.727C837.067 50.1031 836.794 49.6118 836.26 49.253C835.725 48.8783 834.905 48.6526 833.8 48.5759L832.262 48.4827C830.58 48.368 829.227 47.8716 828.203 46.9933C827.196 46.0987 826.679 44.9076 826.653 43.4198C826.633 42.3 826.88 41.3355 827.394 40.5264C827.908 39.7013 828.633 39.0646 829.569 38.6162C830.521 38.1515 831.637 37.908 832.917 37.8856C834.245 37.8625 835.393 38.0745 836.361 38.5216C837.329 38.9688 838.084 39.6117 838.627 40.4504C839.169 41.273 839.45 42.2523 839.47 43.3881L836.135 43.4463C836.126 42.9664 835.999 42.5286 835.752 42.1328C835.52 41.7208 835.171 41.3988 834.703 41.167C834.25 40.9188 833.672 40.8009 832.968 40.8132C832.296 40.8249 831.738 40.9467 831.294 41.1785C830.85 41.4102 830.52 41.7201 830.302 42.1079C830.085 42.4958 829.98 42.9137 829.988 43.3616C829.998 43.9055 830.206 44.3819 830.613 44.7909C831.02 45.1839 831.656 45.4048 832.521 45.4537L834.059 45.5709C835.309 45.6451 836.409 45.8899 837.361 46.3054C838.312 46.7208 839.05 47.292 839.575 48.019C840.116 48.7457 840.395 49.6289 840.413 50.6688C840.433 51.7726 840.162 52.7535 839.601 53.6114C839.039 54.4533 838.227 55.1156 837.163 55.5982C836.115 56.0806 834.871 56.3343 833.432 56.3595ZM849.193 56.0844C848.073 56.1039 847.086 55.9291 846.231 55.56C845.393 55.1905 844.688 54.6908 844.117 54.0606C843.562 53.4142 843.133 52.6936 842.831 51.8987C842.545 51.1036 842.395 50.2901 842.38 49.4582L842.372 49.0023C842.357 48.1384 842.479 47.3042 842.737 46.4996C843.011 45.6787 843.414 44.9515 843.947 44.3181C844.496 43.6684 845.175 43.1525 845.984 42.7703C846.793 42.3721 847.734 42.1637 848.806 42.145C850.214 42.1204 851.395 42.4118 852.35 43.0193C853.32 43.6104 854.054 44.4057 854.552 45.4052C855.049 46.3887 855.307 47.4563 855.328 48.6082L855.348 49.808L843.806 50.0094L843.771 47.9698L853.225 47.8047L852.211 48.8306C852.196 47.9987 852.064 47.2889 851.814 46.7012C851.563 46.1135 851.188 45.664 850.686 45.3527C850.201 45.0411 849.59 44.8917 848.854 44.9046C848.118 44.9174 847.497 45.0963 846.991 45.4412C846.485 45.786 846.102 46.2808 845.841 46.9255C845.596 47.5538 845.481 48.308 845.496 49.1878C845.51 50.0037 845.651 50.7294 845.918 51.3648C846.185 51.9842 846.586 52.4733 847.12 52.832C847.654 53.1748 848.329 53.339 849.145 53.3248C849.961 53.3105 850.622 53.139 851.128 52.8101C851.634 52.4652 851.955 52.0515 852.091 51.5691L855.162 51.5155C854.986 52.4147 854.632 53.205 854.099 53.8864C853.567 54.5678 852.88 55.0999 852.039 55.4826C851.214 55.8651 850.265 56.0656 849.193 56.0844ZM864.026 55.8255C862.89 55.8453 861.903 55.6705 861.064 55.3011C860.241 54.9314 859.545 54.4314 858.974 53.8013C858.418 53.1709 857.998 52.4581 857.712 51.663C857.426 50.8679 857.276 50.0544 857.261 49.2225L857.253 48.7666C857.238 47.8867 857.359 47.0445 857.617 46.2398C857.891 45.4189 858.302 44.6916 858.851 44.058C859.4 43.4083 860.079 42.8924 860.889 42.5102C861.714 42.1117 862.67 41.903 863.758 41.884C864.894 41.8642 865.914 42.0704 866.818 42.5027C867.721 42.919 868.443 43.5145 868.985 44.2891C869.543 45.0635 869.863 45.9701 869.945 47.0088L866.705 47.0654C866.613 46.3949 866.316 45.84 865.812 45.4007C865.324 44.9611 864.656 44.7488 863.809 44.7636C863.073 44.7764 862.46 44.9631 861.97 45.3237C861.496 45.684 861.145 46.1783 860.916 46.8064C860.686 47.4184 860.579 48.1244 860.593 48.9243C860.606 49.6922 860.73 50.3861 860.965 51.0061C861.216 51.6258 861.584 52.1075 862.07 52.4511C862.573 52.7943 863.207 52.9593 863.975 52.9459C864.551 52.9358 865.045 52.8232 865.458 52.608C865.87 52.3927 866.193 52.0991 866.426 51.7269C866.676 51.3545 866.829 50.9358 866.885 50.4707L870.124 50.4142C870.079 51.4711 869.783 52.4045 869.237 53.2141C868.707 54.0075 867.989 54.6361 867.085 55.0999C866.197 55.5635 865.177 55.8053 864.026 55.8255ZM877.327 55.5453C875.823 55.5715 874.647 55.096 873.798 54.1186C872.965 53.141 872.531 51.6764 872.497 49.7247L872.365 42.1658L875.7 42.1076L875.837 49.9544C875.851 50.7543 876.087 51.3903 876.543 51.8624C876.999 52.3185 877.611 52.5399 878.379 52.5265C879.147 52.513 879.766 52.2542 880.237 51.7499C880.725 51.2453 880.961 50.5691 880.946 49.7212L880.812 42.0184L884.147 41.9602L884.375 55.0142L881.735 55.0603L881.639 49.5171L881.903 49.5125C881.926 50.8243 881.777 51.9231 881.456 52.8088C881.135 53.6945 880.643 54.3672 879.979 54.8269C879.315 55.2865 878.479 55.5252 877.471 55.5428L877.327 55.5453ZM888.207 54.9473L887.979 41.9173L890.619 41.8712L890.715 47.3904L890.643 47.3916C890.61 45.5199 890.986 44.0971 891.769 43.1233C892.552 42.1495 893.719 41.6491 895.271 41.622L895.751 41.6136L895.802 44.5172L894.89 44.5331C893.77 44.5526 892.903 44.8718 892.29 45.4906C891.693 46.0931 891.404 46.9623 891.424 48.0981L891.542 54.8891L888.207 54.9473ZM898.837 54.7618L898.609 41.7317L901.945 41.6735L902.172 54.7035L898.837 54.7618ZM896.829 44.2592L896.786 41.7636L901.945 41.6735L901.988 44.1691L896.829 44.2592ZM899.806 40.1506C899.15 40.1621 898.659 40.0026 898.333 39.6722C898.023 39.3256 897.864 38.8963 897.855 38.3844C897.845 37.8405 897.99 37.3979 898.288 37.0566C898.602 36.7151 899.087 36.5386 899.743 36.5272C900.399 36.5157 900.881 36.6753 901.191 37.006C901.501 37.3366 901.661 37.7739 901.67 38.3178C901.679 38.8297 901.535 39.2643 901.237 39.6216C900.939 39.9628 900.462 40.1392 899.806 40.1506ZM911.682 54.7056C910.483 54.7265 909.488 54.5918 908.699 54.3016C907.925 53.995 907.34 53.4771 906.944 52.748C906.546 52.0028 906.337 50.9983 906.315 49.7345L906.133 37.9279L909.252 37.8734L909.438 49.896C909.449 50.5359 909.626 51.0289 909.968 51.375C910.326 51.7048 910.825 51.8641 911.465 51.8529L913.504 51.8173L913.554 54.6729L911.682 54.7056ZM904.152 44.0834L904.109 41.6357L913.324 41.4749L913.366 43.9225L904.152 44.0834ZM916.056 59.598L916.007 56.7424L918.454 56.6997C918.918 56.6916 919.301 56.6209 919.603 56.4876C919.921 56.37 920.181 56.1735 920.384 55.8979C920.588 55.6383 920.742 55.2755 920.846 54.8097L924.114 41.2865L927.306 41.2308L923.69 55.4801C923.451 56.4604 923.104 57.2426 922.65 57.8266C922.197 58.4266 921.604 58.861 920.873 59.1298C920.158 59.3984 919.264 59.542 918.192 59.5607L916.056 59.598ZM920.017 54.104L919.971 51.4644L922.755 51.4158L922.801 54.0554L920.017 54.104ZM918.889 54.1237L914.444 41.4553L917.803 41.3967L922.033 54.0688L918.889 54.1237ZM945.49 50.2749L945.376 43.7718L951.615 43.6629L951.729 50.166L945.49 50.2749ZM971.615 53.4914L971.309 35.9741L974.717 35.9146L975.023 53.4319L971.615 53.4914ZM985.377 53.7073C983.825 53.7343 982.509 53.5093 981.429 53.0321C980.364 52.5546 979.545 51.8888 978.97 51.0347C978.394 50.1646 978.097 49.1776 978.078 48.0738L981.413 48.0156C981.421 48.4795 981.557 48.9332 981.821 49.3767C982.085 49.8041 982.499 50.1489 983.063 50.4111C983.644 50.673 984.398 50.7959 985.326 50.7797C986.158 50.7652 986.852 50.633 987.408 50.3833C987.963 50.1336 988.374 49.8144 988.639 49.4257C988.904 49.021 989.032 48.5707 989.023 48.0748C989.013 47.4509 988.74 46.9595 988.206 46.6008C987.671 46.2261 986.851 46.0004 985.745 45.9236L984.208 45.8305C982.525 45.7158 981.172 45.2193 980.149 44.3411C979.141 43.4465 978.624 42.2554 978.598 40.7676C978.579 39.6478 978.826 38.6833 979.34 37.8742C979.854 37.0491 980.579 36.4124 981.515 35.964C982.467 35.4993 983.583 35.2558 984.863 35.2334C986.191 35.2102 987.338 35.4222 988.306 35.8694C989.274 36.3166 990.03 36.9595 990.572 37.7982C991.115 38.6208 991.396 39.6001 991.416 40.7359L988.08 40.7941C988.072 40.3142 987.944 39.8763 987.697 39.4806C987.466 39.0686 987.116 38.7466 986.648 38.5148C986.196 38.2666 985.618 38.1487 984.914 38.161C984.242 38.1727 983.684 38.2945 983.24 38.5262C982.796 38.758 982.465 39.0678 982.248 39.4557C982.031 39.8435 981.926 40.2614 981.934 40.7094C981.943 41.2533 982.152 41.7297 982.559 42.1387C982.966 42.5316 983.602 42.7526 984.467 42.8015L986.005 42.9187C987.255 42.9929 988.355 43.2377 989.306 43.6531C990.258 44.0686 990.996 44.6398 991.521 45.3668C992.061 46.0934 992.341 46.9767 992.359 48.0165C992.378 49.1204 992.107 50.1012 991.546 50.9592C990.985 51.8011 990.172 52.4634 989.108 52.946C988.061 53.4284 986.817 53.6821 985.377 53.7073ZM1003.8 53.3856C1002.22 53.4133 1000.84 53.1573 999.66 52.6178C998.499 52.078 997.526 51.3669 996.743 50.4844C995.975 49.5857 995.39 48.6197 994.988 47.5866C994.601 46.5372 994.4 45.5245 994.383 44.5487L994.373 44.0208C994.355 42.9489 994.528 41.8817 994.894 40.8192C995.259 39.7407 995.818 38.7628 996.571 37.8855C997.339 37.0079 998.295 36.3031 999.438 35.7711C1000.58 35.2231 1001.93 34.9355 1003.48 34.9085C1005.02 34.8816 1006.36 35.1222 1007.52 35.63C1008.69 36.1218 1009.66 36.7929 1010.44 37.6434C1011.24 38.4936 1011.84 39.4512 1012.24 40.5164C1012.65 41.5655 1012.86 42.626 1012.87 43.6978L1012.88 44.2258C1012.9 45.2016 1012.73 46.2208 1012.36 47.2833C1012.01 48.3296 1011.46 49.3154 1010.71 50.2406C1009.97 51.1496 1009.03 51.8943 1007.87 52.4746C1006.72 53.0546 1005.37 53.3583 1003.8 53.3856ZM1003.75 50.2181C1004.64 50.2025 1005.44 50.0285 1006.14 49.6963C1006.85 49.3638 1007.45 48.9132 1007.94 48.3447C1008.44 47.7598 1008.81 47.1052 1009.06 46.3809C1009.32 45.6402 1009.44 44.862 1009.42 44.0461C1009.41 43.1662 1009.26 42.3607 1008.97 41.6296C1008.71 40.8982 1008.31 40.265 1007.79 39.73C1007.28 39.1947 1006.67 38.7814 1005.94 38.49C1005.22 38.1986 1004.41 38.0606 1003.54 38.076C1002.64 38.0916 1001.83 38.2577 1001.12 38.5742C1000.4 38.8907 999.796 39.3254 999.294 39.8783C998.807 40.4308 998.435 41.0774 998.176 41.8181C997.932 42.5584 997.819 43.3685 997.834 44.2484C997.848 45.0643 997.99 45.8379 998.258 46.5694C998.543 47.2845 998.938 47.9257 999.444 48.493C999.966 49.0439 1000.59 49.4731 1001.31 49.7805C1002.04 50.0879 1002.85 50.2338 1003.75 50.2181ZM1020.91 52.631L1020.85 49.2716C1020.83 48.5357 1020.93 47.8938 1021.15 47.346C1021.38 46.7979 1021.75 46.3112 1022.28 45.8861C1022.81 45.4447 1023.52 45.0243 1024.39 44.625L1027.34 43.2533C1028.07 42.9045 1028.63 42.4868 1029 42.0001C1029.39 41.4972 1029.58 40.8618 1029.57 40.0939C1029.55 39.2461 1029.29 38.5786 1028.76 38.0917C1028.26 37.5884 1027.54 37.3449 1026.62 37.3611C1025.69 37.3773 1024.97 37.6458 1024.47 38.1666C1023.98 38.6872 1023.75 39.4034 1023.76 40.3153L1020.48 40.3727C1020.46 39.2848 1020.67 38.3049 1021.12 37.433C1021.57 36.545 1022.24 35.8451 1023.15 35.3333C1024.05 34.8054 1025.19 34.5295 1026.57 34.5055C1027.94 34.4815 1029.09 34.7095 1030.01 35.1895C1030.93 35.6695 1031.63 36.3214 1032.11 37.1452C1032.59 37.9529 1032.83 38.8607 1032.85 39.8686L1032.86 40.1805C1032.88 41.4923 1032.53 42.5946 1031.81 43.4873C1031.09 44.364 1030.02 45.1348 1028.61 45.7995L1025.66 47.1713C1025.1 47.421 1024.72 47.6838 1024.5 47.9597C1024.28 48.2195 1024.17 48.5734 1024.18 49.0214L1024.21 50.5571L1023.37 49.6835L1033.09 49.5139L1033.14 52.4174L1020.91 52.631ZM1037.85 52.3353L1044.15 37.8232L1043.92 37.515L1035.04 37.67L1035 34.8624L1047.76 34.6396L1047.81 37.2312L1041.42 52.2729L1037.85 52.3353ZM1035.09 40.4776L1035 34.8624L1037.76 34.8142L1037.85 40.4294L1035.09 40.4776ZM1057.79 52.4433C1056.41 52.4673 1055.24 52.2638 1054.27 51.8326C1053.3 51.3854 1052.51 50.7752 1051.89 50.0019C1051.27 49.2127 1050.8 48.3086 1050.5 47.2898C1050.21 46.2547 1050.05 45.1692 1050.03 44.0334L1050.01 42.6896C1049.98 41.0739 1050.23 39.6133 1050.75 38.308C1051.27 37.0027 1052.08 35.9644 1053.19 35.1929C1054.3 34.4055 1055.72 33.9966 1057.46 33.9661C1059.19 33.936 1060.62 34.2951 1061.76 35.0434C1062.89 35.7758 1063.73 36.7852 1064.28 38.0718C1064.85 39.3581 1065.15 40.8091 1065.17 42.4249L1065.2 43.7687C1065.22 44.9045 1065.09 45.9949 1064.82 47.0397C1064.57 48.0683 1064.14 48.9879 1063.55 49.7984C1062.97 50.5926 1062.21 51.23 1061.25 51.7107C1060.3 52.1754 1059.15 52.4196 1057.79 52.4433ZM1057.73 49.3238C1059.16 49.299 1060.2 48.7927 1060.85 47.8052C1061.51 46.8016 1061.81 45.26 1061.78 43.1803C1061.74 40.9726 1061.37 39.4028 1060.66 38.471C1059.96 37.5232 1058.91 37.0614 1057.52 37.0857C1056.11 37.1102 1055.06 37.6086 1054.38 38.5807C1053.71 39.5366 1053.39 41.1024 1053.43 43.278C1053.46 45.3737 1053.83 46.9115 1054.54 47.8913C1055.24 48.8712 1056.31 49.3487 1057.73 49.3238ZM1075.92 52.1267C1074.55 52.1507 1073.38 51.9472 1072.41 51.516C1071.44 51.0688 1070.65 50.4586 1070.03 49.6853C1069.4 48.8961 1068.94 47.992 1068.63 46.9732C1068.34 45.9381 1068.19 44.8526 1068.17 43.7168L1068.15 42.373C1068.12 40.7573 1068.36 39.2967 1068.89 37.9914C1069.41 36.6861 1070.22 35.6478 1071.33 34.8763C1072.43 34.0889 1073.86 33.68 1075.6 33.6495C1077.33 33.6194 1078.76 33.9785 1079.89 34.7268C1081.03 35.4592 1081.87 36.4686 1082.42 37.7552C1082.99 39.0415 1083.28 40.4925 1083.31 42.1083L1083.33 43.4521C1083.35 44.5879 1083.23 45.6783 1082.96 46.7231C1082.71 47.7517 1082.28 48.6713 1081.69 49.4818C1081.11 50.276 1080.34 50.9134 1079.39 51.3941C1078.44 51.8588 1077.28 52.103 1075.92 52.1267ZM1075.87 49.0072C1077.29 48.9824 1078.33 48.4761 1078.99 47.4886C1079.64 46.485 1079.95 44.9434 1079.92 42.8637C1079.88 40.656 1079.51 39.0863 1078.8 38.1544C1078.1 37.2066 1077.05 36.7448 1075.66 36.7691C1074.25 36.7936 1073.2 37.292 1072.51 38.2641C1071.84 39.22 1071.53 40.7858 1071.56 42.9614C1071.6 45.0571 1071.97 46.5949 1072.68 47.5747C1073.38 48.5546 1074.45 49.0321 1075.87 49.0072ZM1089.4 51.4355L1089.13 36.0298L1090.2 36.8273L1085.57 36.9081L1085.52 33.9805L1092.48 33.8591L1092.78 51.3764L1089.4 51.4355ZM1110.4 51.5251C1108.81 51.5527 1107.45 51.2965 1106.3 50.7564C1105.16 50.2163 1104.22 49.5046 1103.48 48.6213C1102.76 47.7377 1102.22 46.771 1101.87 45.721C1101.51 44.671 1101.33 43.6581 1101.31 42.6822L1101.3 42.1543C1101.28 41.0665 1101.43 39.9917 1101.75 38.93C1102.08 37.868 1102.6 36.8988 1103.31 36.0224C1104.01 35.146 1104.91 34.4421 1106.01 33.9109C1107.12 33.3635 1108.43 33.0765 1109.95 33.05C1111.54 33.0223 1112.92 33.2863 1114.1 33.8418C1115.29 34.381 1116.25 35.1644 1116.97 36.192C1117.69 37.2036 1118.14 38.396 1118.3 39.7692L1114.87 39.8291C1114.73 39.0315 1114.43 38.3646 1113.97 37.8285C1113.53 37.2762 1112.97 36.8699 1112.3 36.6096C1111.62 36.3334 1110.86 36.2027 1110.01 36.2175C1109.14 36.2326 1108.38 36.3979 1107.71 36.7136C1107.05 37.0133 1106.49 37.439 1106.05 37.9907C1105.62 38.5425 1105.28 39.1884 1105.06 39.9285C1104.85 40.6683 1104.75 41.4861 1104.76 42.382C1104.78 43.2458 1104.9 44.0438 1105.14 44.7757C1105.39 45.5074 1105.76 46.1492 1106.23 46.701C1106.7 47.2368 1107.28 47.6508 1107.96 47.9431C1108.65 48.235 1109.44 48.3732 1110.34 48.3575C1111.65 48.3346 1112.75 47.9954 1113.63 47.3399C1114.54 46.6681 1115.07 45.7466 1115.24 44.5754L1118.67 44.5155C1118.54 45.7661 1118.13 46.9173 1117.46 47.9692C1116.79 49.021 1115.86 49.8694 1114.67 50.5142C1113.49 51.1591 1112.06 51.496 1110.4 51.5251ZM1127.24 51.2311C1126.12 51.2506 1125.13 51.0758 1124.28 50.7067C1123.44 50.3373 1122.73 49.8375 1122.16 49.2074C1121.61 48.561 1121.18 47.8403 1120.87 47.0455C1120.59 46.2503 1120.44 45.4368 1120.42 44.605L1120.42 44.149C1120.4 43.2852 1120.52 42.4509 1120.78 41.6463C1121.05 40.8254 1121.46 40.0982 1121.99 39.4649C1122.54 38.8152 1123.22 38.2992 1124.03 37.9171C1124.84 37.5189 1125.78 37.3104 1126.85 37.2917C1128.26 37.2671 1129.44 37.5586 1130.39 38.166C1131.36 38.7572 1132.1 39.5525 1132.6 40.5519C1133.09 41.5354 1133.35 42.6031 1133.37 43.7549L1133.39 44.9547L1121.85 45.1562L1121.81 43.1165L1131.27 42.9515L1130.25 43.9773C1130.24 43.1454 1130.11 42.4356 1129.86 41.8479C1129.61 41.2602 1129.23 40.8107 1128.73 40.4994C1128.24 40.1878 1127.63 40.0385 1126.9 40.0513C1126.16 40.0641 1125.54 40.243 1125.03 40.5879C1124.53 40.9328 1124.15 41.4275 1123.88 42.0722C1123.64 42.7006 1123.52 43.4547 1123.54 44.3346C1123.55 45.1504 1123.69 45.8761 1123.96 46.5115C1124.23 47.131 1124.63 47.62 1125.16 47.9788C1125.7 48.3215 1126.37 48.4857 1127.19 48.4715C1128 48.4573 1128.67 48.2857 1129.17 47.9568C1129.68 47.6119 1130 47.1983 1130.13 46.7158L1133.21 46.6622C1133.03 47.5614 1132.68 48.3517 1132.14 49.0331C1131.61 49.7145 1130.92 50.2466 1130.08 50.6293C1129.26 51.0118 1128.31 51.2124 1127.24 51.2311ZM1136.28 50.6172L1136.05 37.5872L1138.69 37.5411L1138.79 43.0603L1138.71 43.0615C1138.68 41.1898 1139.06 39.767 1139.84 38.7932C1140.62 37.8194 1141.79 37.319 1143.34 37.2919L1143.82 37.2835L1143.87 40.1871L1142.96 40.203C1141.84 40.2225 1140.98 40.5417 1140.36 41.1605C1139.76 41.763 1139.48 42.6322 1139.5 43.768L1139.61 50.559L1136.28 50.6172ZM1152.23 50.5068C1151.03 50.5277 1150.04 50.393 1149.25 50.1028C1148.47 49.7962 1147.89 49.2783 1147.49 48.5492C1147.1 47.804 1146.89 46.7995 1146.86 45.5357L1146.68 33.729L1149.8 33.6746L1149.99 45.6972C1150 46.3371 1150.18 46.8301 1150.52 47.1762C1150.88 47.506 1151.37 47.6653 1152.01 47.6541L1154.05 47.6185L1154.1 50.4741L1152.23 50.5068ZM1144.7 39.8846L1144.66 37.4369L1153.87 37.2761L1153.92 39.7237L1144.7 39.8846ZM1157.52 50.2464L1157.3 37.2163L1160.63 37.1581L1160.86 50.1881L1157.52 50.2464ZM1155.52 39.7438L1155.47 37.2482L1160.63 37.1581L1160.68 39.6537L1155.52 39.7438ZM1158.49 35.6352C1157.84 35.6467 1157.35 35.4872 1157.02 35.1568C1156.71 34.8102 1156.55 34.3809 1156.54 33.869C1156.53 33.3251 1156.68 32.8825 1156.97 32.5412C1157.29 32.1997 1157.77 32.0232 1158.43 32.0118C1159.09 32.0003 1159.57 32.1599 1159.88 32.4906C1160.19 32.8212 1160.35 33.2585 1160.36 33.8024C1160.37 34.3143 1160.22 34.7489 1159.92 35.1062C1159.63 35.4474 1159.15 35.6238 1158.49 35.6352ZM1164.99 50.116L1164.76 36.6301C1164.73 35.1423 1165.12 34.0393 1165.92 33.3212C1166.74 32.5868 1167.96 32.2055 1169.58 32.1773L1170.92 32.1538L1170.96 34.7214L1169.38 34.7491C1168.88 34.7577 1168.5 34.9004 1168.24 35.1771C1167.98 35.4375 1167.86 35.8077 1167.87 36.2877L1168.11 50.0616L1164.99 50.116ZM1163.2 39.6337L1163.16 37.186L1170.88 37.0512L1170.93 39.4988L1163.2 39.6337ZM1173.89 49.9606L1173.67 36.9306L1177 36.8724L1177.23 49.9024L1173.89 49.9606ZM1172.05 39.4551L1172.01 36.9595L1177 36.8724L1177.05 39.368L1172.05 39.4551ZM1174.84 35.3499C1174.2 35.3611 1173.72 35.2015 1173.39 34.8711C1173.08 34.5245 1172.92 34.0952 1172.91 33.5832C1172.9 33.0393 1173.05 32.5967 1173.35 32.2555C1173.66 31.914 1174.14 31.7376 1174.78 31.7264C1175.43 31.715 1175.91 31.8746 1176.22 32.2052C1176.55 32.5356 1176.72 32.9727 1176.73 33.5167C1176.74 34.0286 1176.58 34.4633 1176.27 34.8208C1175.97 35.1621 1175.5 35.3384 1174.84 35.3499ZM1186.9 50.1897C1185.78 50.2092 1184.79 50.0344 1183.94 49.6653C1183.1 49.2959 1182.39 48.7961 1181.82 48.1659C1181.27 47.5195 1180.84 46.7989 1180.54 46.0041C1180.25 45.2089 1180.1 44.3954 1180.09 43.5636L1180.08 43.1076C1180.06 42.2438 1180.19 41.4095 1180.44 40.6049C1180.72 39.784 1181.12 39.0568 1181.65 38.4234C1182.2 37.7738 1182.88 37.2578 1183.69 36.8756C1184.5 36.4775 1185.44 36.269 1186.51 36.2503C1187.92 36.2257 1189.1 36.5172 1190.06 37.1246C1191.03 37.7157 1191.76 38.5111 1192.26 39.5105C1192.76 40.494 1193.01 41.5616 1193.03 42.7135L1193.05 43.9133L1181.51 44.1148L1181.48 42.0751L1190.93 41.91L1189.92 42.9359C1189.9 42.104 1189.77 41.3942 1189.52 40.8065C1189.27 40.2188 1188.89 39.7693 1188.39 39.458C1187.91 39.1464 1187.3 38.997 1186.56 39.0099C1185.82 39.0227 1185.2 39.2016 1184.7 39.5465C1184.19 39.8914 1183.81 40.3861 1183.55 41.0308C1183.3 41.6592 1183.19 42.4133 1183.2 43.2931C1183.22 44.109 1183.36 44.8347 1183.62 45.4701C1183.89 46.0895 1184.29 46.5786 1184.83 46.9374C1185.36 47.2801 1186.04 47.4443 1186.85 47.4301C1187.67 47.4158 1188.33 47.2443 1188.83 46.9154C1189.34 46.5705 1189.66 46.1568 1189.8 45.6744L1192.87 45.6208C1192.69 46.52 1192.34 47.3103 1191.81 47.9917C1191.27 48.6731 1190.59 49.2052 1189.75 49.5879C1188.92 49.9704 1187.97 50.171 1186.9 50.1897ZM1201.35 49.9135C1200.44 49.9294 1199.59 49.7761 1198.82 49.4535C1198.05 49.131 1197.37 48.6706 1196.8 48.0725C1196.23 47.4744 1195.79 46.778 1195.47 45.9834C1195.15 45.1729 1194.98 44.2957 1194.97 43.3518L1194.96 42.8479C1194.94 41.92 1195.07 41.0456 1195.35 40.2247C1195.64 39.4036 1196.04 38.6844 1196.56 38.0673C1197.09 37.4499 1197.73 36.9666 1198.48 36.6176C1199.24 36.2522 1200.08 36.0615 1201.01 36.0453C1202.03 36.0274 1202.93 36.2357 1203.71 36.6702C1204.5 37.0885 1205.14 37.7335 1205.61 38.6053C1206.09 39.477 1206.37 40.5764 1206.44 41.9034L1205.44 40.7687L1205.28 31.8901L1208.62 31.8318L1208.92 49.3492L1206.28 49.3953L1206.19 43.8521L1206.76 43.842C1206.74 45.1707 1206.49 46.2873 1206 47.1918C1205.52 48.0803 1204.88 48.7556 1204.07 49.2178C1203.28 49.6637 1202.37 49.8956 1201.35 49.9135ZM1202.04 47.0929C1202.7 47.0815 1203.3 46.927 1203.83 46.6296C1204.37 46.3161 1204.8 45.8766 1205.11 45.3111C1205.43 44.7294 1205.59 44.0545 1205.58 43.2867L1205.56 42.3268C1205.55 41.5589 1205.37 40.9219 1205.02 40.4159C1204.68 39.8938 1204.23 39.5016 1203.68 39.2391C1203.13 38.9606 1202.54 38.827 1201.9 38.8382C1201.18 38.8507 1200.54 39.0379 1199.99 39.3996C1199.45 39.745 1199.03 40.2325 1198.72 40.862C1198.42 41.4912 1198.28 42.2217 1198.3 43.0536C1198.31 43.8855 1198.49 44.6106 1198.82 45.2289C1199.15 45.8312 1199.59 46.2956 1200.14 46.6221C1200.7 46.9483 1201.34 47.1052 1202.04 47.0929Z" fill="#0A1628"/>
</g>
</g>
<defs>
<filter id="filter0_dd_2877_9145" x="0" y="0" width="1476.71" height="114.123" filterUnits="userSpaceOnUse" color-interpolation-filters="sRGB">
<feFlood flood-opacity="0" result="BackgroundImageFix"/>
<feColorMatrix in="SourceAlpha" type="matrix" values="0 0 0 0 0 0 0 0 0 0 0 0 0 0 0 0 0 0 127 0" result="hardAlpha"/>
<feOffset dy="4"/>
<feGaussianBlur stdDeviation="2"/>
<feColorMatrix type="matrix" values="0 0 0 0 0 0 0 0 0 0 0 0 0 0 0 0 0 0 0.3 0"/>
<feBlend mode="normal" in2="BackgroundImageFix" result="effect1_dropShadow_2877_9145"/>
<feColorMatrix in="SourceAlpha" type="matrix" values="0 0 0 0 0 0 0 0 0 0 0 0 0 0 0 0 0 0 127 0" result="hardAlpha"/>
<feMorphology radius="6" operator="dilate" in="SourceAlpha" result="effect2_dropShadow_2877_9145"/>
<feOffset dy="8"/>
<feGaussianBlur stdDeviation="6"/>
<feColorMatrix type="matrix" values="0 0 0 0 0 0 0 0 0 0 0 0 0 0 0 0 0 0 0.15 0"/>
<feBlend mode="normal" in2="effect1_dropShadow_2877_9145" result="effect2_dropShadow_2877_9145"/>
<feBlend mode="normal" in="SourceGraphic" in2="effect2_dropShadow_2877_9145" result="shape"/>
</filter>
<filter id="filter1_d_2877_9145" x="262.727" y="30.136" width="950.285" height="47.7889" filterUnits="userSpaceOnUse" color-interpolation-filters="sRGB">
<feFlood flood-opacity="0" result="BackgroundImageFix"/>
<feColorMatrix in="SourceAlpha" type="matrix" values="0 0 0 0 0 0 0 0 0 0 0 0 0 0 0 0 0 0 127 0" result="hardAlpha"/>
<feOffset dy="3"/>
<feGaussianBlur stdDeviation="2"/>
<feComposite in2="hardAlpha" operator="out"/>
<feColorMatrix type="matrix" values="0 0 0 0 0 0 0 0 0 0 0 0 0 0 0 0 0 0 0.16 0"/>
<feBlend mode="normal" in2="BackgroundImageFix" result="effect1_dropShadow_2877_9145"/>
<feBlend mode="normal" in="SourceGraphic" in2="effect1_dropShadow_2877_9145" result="shape"/>
</filter>
<linearGradient id="paint0_linear_2877_9145" x1="0" y1="26.5" x2="2730.09" y2="39.0469" gradientUnits="userSpaceOnUse">
<stop stop-color="#0070B3"/>
<stop offset="1" stop-color="#00304D"/>
</linearGradient>
</defs>
</svg>
