<svg width="22" height="19" viewBox="0 0 22 19" fill="none" xmlns="http://www.w3.org/2000/svg">
<path d="M8.1472 18.9252C12.6467 18.9252 16.2943 15.2776 16.2943 10.7781C16.2943 6.27858 12.6467 2.63101 8.1472 2.63101C3.64769 2.63101 0.000119222 6.27858 0.000119222 10.7781C0.000119222 15.2776 3.64769 18.9252 8.1472 18.9252Z" fill="#0070B3"/>
<path d="M20.3911 0.250012C17.4675 2.92879 14.4563 6.95822 12.1548 10.3584C10.1261 13.3555 8.63795 15.8769 8.229 16.5801C6.68348 14.0062 3.11721 9.11735 2.58251 8.38771L3.70947 7.27345L8.06298 10.3145L8.25829 10.4502L8.4038 10.2617C11.2399 6.58149 13.8847 4.055 15.6069 2.58204C17.3306 1.10785 18.4999 0.365597 18.686 0.250012H20.3911Z" fill="#EDEDED" stroke="#0070B3" stroke-width="0.5"/>
</svg>
