<svg width="16" height="16" viewBox="0 0 16 16" fill="none" xmlns="http://www.w3.org/2000/svg">
<path d="M15.092 10.7189C15.6761 10.865 16.0456 11.4017 15.9848 12.0143L15.8016 13.9399C15.7036 15.5709 14.5861 16.1977 13.1703 15.9464C6.17881 15.0914 0.902822 9.82294 0.0455539 2.82164C-0.355291 -0.057367 1.96641 0.236361 3.9777 0.00730712C4.59413 -0.0575354 5.12584 0.314846 5.27186 0.898765L5.77628 2.90434C5.9186 3.55798 6.29704 4.34418 5.7943 4.98317L4.94445 6.42941C4.77198 6.67463 4.74066 6.95707 4.85131 7.18933C5.6914 8.94833 7.03962 10.3119 8.76678 11.158C8.99516 11.2726 9.28249 11.2434 9.50532 11.0839L11.029 10.1824C11.6503 9.6973 12.4471 10.0766 13.0925 10.2155L15.092 10.7189Z" fill="#666666"/>
</svg>
